BASTELEUR_MOONLIGHT_V1.ufo
<glyph name="exclam" format="2">
	<advance width="308"/>
	<unicode hex="0021"/>
	<outline>
		<component base="period"/>
		<contour>
			<point x="141" y="253" type="line"/>
			<point x="167" y="253" type="line"/>
			<point x="208" y="760" type="line"/>
			<point x="100" y="760" type="line"/>
		</contour>
	</outline>
</glyph>
<glyph name="quotedbl" format="2">
	<advance width="368"/>
	<unicode hex="0022"/>
	<outline>
		<contour>
			<point x="86" y="513" type="line"/>
			<point x="112" y="513" type="line"/>
			<point x="148" y="800" type="line"/>
			<point x="50" y="800" type="line"/>
		</contour>
		<contour>
			<point x="256" y="513" type="line"/>
			<point x="282" y="513" type="line"/>
			<point x="318" y="800" type="line"/>
			<point x="220" y="800" type="line"/>
		</contour>
	</outline>
</glyph>
<glyph name="numbersign" format="2">
	<advance width="879"/>
	<unicode hex="0023"/>
	<outline>
		<contour>
			<point x="244" y="0" type="line"/>
			<point x="450" y="800" type="line"/>
			<point x="384" y="800" type="line"/>
			<point x="177" y="0" type="line"/>
		</contour>
		<contour>
			<point x="495" y="0" type="line"/>
			<point x="701" y="800" type="line"/>
			<point x="635" y="800" type="line"/>
			<point x="428" y="0" type="line"/>
		</contour>
		<contour>
			<point x="40" y="237" type="line"/>
			<point x="765" y="237" type="line"/>
			<point x="785" y="299" type="line"/>
			<point x="59" y="299" type="line"/>
		</contour>
		<contour>
			<point x="94" y="488" type="line"/>
			<point x="819" y="488" type="line"/>
			<point x="839" y="550" type="line"/>
			<point x="113" y="550" type="line"/>
		</contour>
	</outline>
</glyph>
<glyph name="dollar" format="2">
	<advance width="654"/>
	<unicode hex="0024"/>
	<anchor x="323.368" y="-11.688" name="bottom"/>
	<anchor x="340.9" y="725.63" name="top"/>
	<outline>
		<contour>
			<point x="97" y="285" type="curve"/>
			<point x="73" y="278" type="line"/>
			<point x="87" y="216"/>
			<point x="83" y="102"/>
			<point x="60" y="48" type="curve"/>
			<point x="163" y="18"/>
			<point x="248" y="10"/>
			<point x="333" y="10" type="curve" smooth="yes"/>
			<point x="524" y="10"/>
			<point x="604" y="82"/>
			<point x="604" y="187" type="curve" smooth="yes"/>
			<point x="604" y="282"/>
			<point x="539" y="341"/>
			<point x="369" y="413" type="curve" smooth="yes"/>
			<point x="228" y="474"/>
			<point x="163" y="518"/>
			<point x="163" y="590" type="curve" smooth="yes"/>
			<point x="163" y="649"/>
			<point x="231" y="687"/>
			<point x="303" y="687" type="curve" smooth="yes"/>
			<point x="391" y="687"/>
			<point x="489" y="636"/>
			<point x="537" y="480" type="curve"/>
			<point x="559" y="485" type="line"/>
			<point x="550" y="560"/>
			<point x="549" y="627"/>
			<point x="557" y="703" type="curve"/>
			<point x="433" y="703"/>
			<point x="410" y="727"/>
			<point x="316" y="727" type="curve" smooth="yes"/>
			<point x="199" y="727"/>
			<point x="77" y="669"/>
			<point x="77" y="553" type="curve" smooth="yes"/>
			<point x="77" y="464"/>
			<point x="140" y="392"/>
			<point x="292" y="329" type="curve" smooth="yes"/>
			<point x="457" y="261"/>
			<point x="520" y="218"/>
			<point x="520" y="147" type="curve" smooth="yes"/>
			<point x="520" y="89"/>
			<point x="460" y="51"/>
			<point x="360" y="51" type="curve" smooth="yes"/>
			<point x="258" y="51"/>
			<point x="157" y="106"/>
		</contour>
		<contour>
			<point x="375" y="-52" type="line"/>
			<point x="375" y="790" type="line"/>
			<point x="315" y="790" type="line"/>
			<point x="315" y="-54" type="line"/>
		</contour>
	</outline>
</glyph>
<glyph name="percent" format="2">
	<advance width="918"/>
	<unicode hex="0025"/>
	<anchor x="244" y="424" name="bottom"/>
	<anchor x="244" y="585" name="center"/>
	<anchor x="395" y="430" name="ogonek"/>
	<anchor x="244" y="754" name="top"/>
	<anchor x="421" y="746" name="topright"/>
	<outline>
		<contour>
			<point x="196" y="0" type="line"/>
			<point x="816" y="745" type="line"/>
			<point x="712" y="745" type="line"/>
			<point x="91" y="0" type="line"/>
		</contour>
		<contour>
			<point x="237" y="415" type="curve" smooth="yes"/>
			<point x="329" y="415"/>
			<point x="404" y="491"/>
			<point x="404" y="585" type="curve" smooth="yes"/>
			<point x="404" y="683"/>
			<point x="329" y="754"/>
			<point x="237" y="754" type="curve" smooth="yes"/>
			<point x="144" y="754"/>
			<point x="70" y="679"/>
			<point x="70" y="585" type="curve" smooth="yes"/>
			<point x="70" y="487"/>
			<point x="144" y="415"/>
		</contour>
		<contour>
			<point x="281" y="466" type="curve" smooth="yes"/>
			<point x="238" y="450"/>
			<point x="181" y="485"/>
			<point x="155" y="555" type="curve" smooth="yes"/>
			<point x="129" y="623"/>
			<point x="147" y="687"/>
			<point x="192" y="703" type="curve" smooth="yes"/>
			<point x="235" y="718"/>
			<point x="293" y="684"/>
			<point x="318" y="615" type="curve" smooth="yes"/>
			<point x="344" y="547"/>
			<point x="326" y="482"/>
		</contour>
		<contour>
			<point x="681" y="-3" type="curve" smooth="yes"/>
			<point x="773" y="-3"/>
			<point x="848" y="73"/>
			<point x="848" y="167" type="curve" smooth="yes"/>
			<point x="848" y="265"/>
			<point x="773" y="336"/>
			<point x="681" y="336" type="curve" smooth="yes"/>
			<point x="588" y="336"/>
			<point x="514" y="261"/>
			<point x="514" y="167" type="curve" smooth="yes"/>
			<point x="514" y="69"/>
			<point x="588" y="-3"/>
		</contour>
		<contour>
			<point x="725" y="48" type="curve" smooth="yes"/>
			<point x="682" y="32"/>
			<point x="625" y="67"/>
			<point x="599" y="137" type="curve" smooth="yes"/>
			<point x="573" y="205"/>
			<point x="591" y="269"/>
			<point x="636" y="285" type="curve" smooth="yes"/>
			<point x="679" y="300"/>
			<point x="737" y="266"/>
			<point x="762" y="197" type="curve" smooth="yes"/>
			<point x="788" y="129"/>
			<point x="770" y="64"/>
		</contour>
	</outline>
</glyph>
<glyph name="ampersand" format="2">
	<advance width="805"/>
	<unicode hex="0026"/>
	<anchor x="1306" y="0" name="bottom"/>
	<anchor x="1306" y="373" name="center"/>
	<anchor x="1306" y="745" name="top"/>
	<anchor x="1575" y="536" name="topright"/>
	<outline>
		<contour>
			<point x="761" y="0" type="line"/>
			<point x="775" y="28" type="line"/>
			<point x="622" y="152"/>
			<point x="388" y="414"/>
			<point x="325" y="489" type="curve" smooth="yes"/>
			<point x="283" y="539"/>
			<point x="257" y="596"/>
			<point x="259" y="641" type="curve" smooth="yes"/>
			<point x="262" y="688"/>
			<point x="305" y="722"/>
			<point x="376" y="722" type="curve" smooth="yes"/>
			<point x="542" y="722"/>
			<point x="667" y="581"/>
			<point x="667" y="393" type="curve" smooth="yes"/>
			<point x="667" y="189"/>
			<point x="539" y="36"/>
			<point x="368" y="36" type="curve" smooth="yes"/>
			<point x="257" y="36"/>
			<point x="174" y="97"/>
			<point x="174" y="179" type="curve" smooth="yes"/>
			<point x="174" y="265"/>
			<point x="243" y="348"/>
			<point x="334" y="373" type="curve"/>
			<point x="317" y="392" type="line"/>
			<point x="170" y="374"/>
			<point x="60" y="282"/>
			<point x="60" y="177" type="curve" smooth="yes"/>
			<point x="60" y="68"/>
			<point x="175" y="-14"/>
			<point x="328" y="-14" type="curve" smooth="yes"/>
			<point x="552" y="-14"/>
			<point x="707" y="150"/>
			<point x="707" y="393" type="curve" smooth="yes"/>
			<point x="707" y="541"/>
			<point x="651" y="622"/>
			<point x="620" y="735" type="curve"/>
			<point x="525" y="735"/>
			<point x="473" y="761"/>
			<point x="379" y="761" type="curve" smooth="yes"/>
			<point x="243" y="761"/>
			<point x="155" y="685"/>
			<point x="155" y="601" type="curve" smooth="yes"/>
			<point x="155" y="537"/>
			<point x="190" y="477"/>
			<point x="246" y="416" type="curve" smooth="yes"/>
			<point x="629" y="0" type="line"/>
		</contour>
	</outline>
</glyph>
<glyph name="quotesingle" format="2">
	<advance width="198"/>
	<unicode hex="0027"/>
	<outline>
		<contour>
			<point x="86" y="513" type="line"/>
			<point x="112" y="513" type="line"/>
			<point x="148" y="800" type="line"/>
			<point x="50" y="800" type="line"/>
		</contour>
	</outline>
</glyph>
<glyph name="parenleft" format="2">
	<advance width="410"/>
	<unicode hex="0028"/>
	<anchor x="240" y="500" name="_top"/>
	<anchor x="240" y="765" name="top"/>
	<outline>
		<contour>
			<point x="360" y="793" type="curve"/>
			<point x="334" y="816" type="line"/>
			<point x="175" y="697"/>
			<point x="80" y="526"/>
			<point x="80" y="302" type="curve" smooth="yes"/>
			<point x="80" y="79"/>
			<point x="175" y="-91"/>
			<point x="334" y="-210" type="curve"/>
			<point x="360" y="-188" type="line"/>
			<point x="252" y="-75"/>
			<point x="195" y="117"/>
			<point x="195" y="302" type="curve" smooth="yes"/>
			<point x="195" y="489"/>
			<point x="252" y="681"/>
		</contour>
	</outline>
</glyph>
<glyph name="asterisk" format="2">
	<advance width="384"/>
	<unicode hex="002A"/>
	<anchor x="121" y="555" name="_bottom"/>
	<anchor x="291" y="758" name="bottom"/>
	<outline>
		<contour>
			<point x="191" y="673" type="line"/>
			<point x="251" y="507" type="line"/>
			<point x="323" y="534" type="line"/>
			<point x="331" y="547" type="line"/>
			<point x="206" y="684" type="line"/>
		</contour>
		<contour>
			<point x="188" y="660" type="line"/>
			<point x="364" y="666" type="line"/>
			<point x="361" y="742" type="line"/>
			<point x="351" y="754" type="line"/>
			<point x="182" y="677" type="line"/>
		</contour>
		<contour>
			<point x="198" y="653" type="line"/>
			<point x="247" y="823" type="line"/>
			<point x="173" y="843" type="line"/>
			<point x="159" y="837" type="line"/>
			<point x="180" y="653" type="line"/>
		</contour>
		<contour>
			<point x="204" y="673" type="line"/>
			<point x="64" y="564" type="line"/>
			<point x="112" y="504" type="line"/>
			<point x="127" y="501" type="line"/>
			<point x="218" y="662" type="line"/>
		</contour>
		<contour>
			<point x="209" y="661" type="line"/>
			<point x="62" y="761" type="line"/>
			<point x="20" y="696" type="line"/>
			<point x="22" y="681" type="line"/>
			<point x="203" y="644" type="line"/>
		</contour>
	</outline>
</glyph>
<glyph name="plus" format="2">
	<advance width="559"/>
	<unicode hex="002B"/>
	<outline>
		<contour>
			<point x="81" y="340" type="line"/>
			<point x="479" y="343" type="line"/>
			<point x="479" y="403" type="line"/>
			<point x="80" y="400" type="line"/>
		</contour>
		<contour>
			<point x="309" y="173" type="line"/>
			<point x="309" y="571" type="line"/>
			<point x="249" y="571" type="line"/>
			<point x="249" y="172" type="line"/>
		</contour>
	</outline>
</glyph>
<glyph name="comma" format="2">
	<advance width="253"/>
	<unicode hex="002C"/>
	<outline>
		<contour>
			<point x="40" y="-157" type="curve"/>
			<point x="58" y="-183" type="line"/>
			<point x="177" y="-122"/>
			<point x="258" y="24"/>
			<point x="158" y="156" type="curve"/>
			<point x="45" y="73" type="line"/>
			<point x="138" y="-8"/>
			<point x="111" y="-105"/>
		</contour>
	</outline>
</glyph>
<glyph name="hyphen" format="2">
	<advance width="382"/>
	<unicode hex="002D"/>
	<outline>
		<contour>
			<point x="61" y="268" type="line"/>
			<point x="322" y="271" type="line"/>
			<point x="322" y="331" type="line"/>
			<point x="60" y="328" type="line"/>
		</contour>
	</outline>
</glyph>
<glyph name="period" format="2">
	<advance width="308"/>
	<unicode hex="002E"/>
	<outline>
		<contour>
			<point x="154" y="-16" type="curve" smooth="yes"/>
			<point x="195" y="-16"/>
			<point x="228" y="17"/>
			<point x="228" y="58" type="curve" smooth="yes"/>
			<point x="228" y="99"/>
			<point x="195" y="132"/>
			<point x="154" y="132" type="curve" smooth="yes"/>
			<point x="113" y="132"/>
			<point x="80" y="99"/>
			<point x="80" y="58" type="curve" smooth="yes"/>
			<point x="80" y="17"/>
			<point x="113" y="-16"/>
		</contour>
	</outline>
</glyph>
<glyph name="slash" format="2">
	<advance width="487"/>
	<unicode hex="002F"/>
	<outline>
		<contour>
			<point x="102" y="-201" type="line"/>
			<point x="472" y="800" type="line"/>
			<point x="386" y="800" type="line"/>
			<point x="15" y="-201" type="line"/>
		</contour>
	</outline>
</glyph>
<glyph name="zero" format="2">
	<advance width="774"/>
	<unicode hex="0030"/>
	<anchor x="397" y="0" name="bottom"/>
	<anchor x="397" y="373" name="center"/>
	<anchor x="742" y="10" name="ogonek"/>
	<anchor x="397" y="755" name="top"/>
	<anchor x="-14" y="745" name="topleft"/>
	<anchor x="808" y="745" name="topright"/>
	<outline>
		<contour>
			<point x="387" y="-15" type="curve" smooth="yes"/>
			<point x="601" y="-15"/>
			<point x="739" y="138"/>
			<point x="739" y="374" type="curve" smooth="yes"/>
			<point x="739" y="608"/>
			<point x="601" y="760"/>
			<point x="387" y="760" type="curve" smooth="yes"/>
			<point x="173" y="760"/>
			<point x="35" y="608"/>
			<point x="35" y="374" type="curve" smooth="yes"/>
			<point x="35" y="138"/>
			<point x="173" y="-15"/>
		</contour>
		<contour>
			<point x="447" y="30" type="curve" smooth="yes"/>
			<point x="309" y="6"/>
			<point x="195" y="125"/>
			<point x="158" y="334" type="curve" smooth="yes"/>
			<point x="122" y="541"/>
			<point x="188" y="690"/>
			<point x="327" y="715" type="curve" smooth="yes"/>
			<point x="465" y="739"/>
			<point x="579" y="621"/>
			<point x="615" y="414" type="curve" smooth="yes"/>
			<point x="652" y="206"/>
			<point x="586" y="55"/>
		</contour>
	</outline>
</glyph>
<glyph name="one" format="2">
	<advance width="592"/>
	<unicode hex="0031"/>
	<outline>
		<contour>
			<point x="30" y="21" type="curve"/>
			<point x="34" y="-7" type="line"/>
			<point x="183" y="-3"/>
			<point x="278" y="0"/>
			<point x="307" y="0" type="curve" smooth="yes"/>
			<point x="339" y="0"/>
			<point x="433" y="-3"/>
			<point x="568" y="-7" type="curve"/>
			<point x="572" y="21" type="line"/>
			<point x="372" y="45"/>
			<point x="352" y="76"/>
			<point x="352" y="152" type="curve" smooth="yes"/>
			<point x="352" y="521" type="line" smooth="yes"/>
			<point x="352" y="587"/>
			<point x="360" y="652"/>
			<point x="370" y="751" type="curve"/>
			<point x="347" y="760" type="line"/>
			<point x="267" y="649"/>
			<point x="172" y="574"/>
			<point x="24" y="492" type="curve"/>
			<point x="31" y="469" type="line"/>
			<point x="303" y="545" type="line"/>
			<point x="271" y="613" type="line"/>
			<point x="261" y="152" type="line" smooth="yes"/>
			<point x="259" y="76"/>
			<point x="240" y="44"/>
		</contour>
	</outline>
</glyph>
<glyph name="two" format="2">
	<advance width="671"/>
	<unicode hex="0032"/>
	<anchor x="307" y="0" name="bottom"/>
	<anchor x="375" y="745" name="top"/>
	<outline>
		<contour>
			<point x="31" y="0" type="line"/>
			<point x="625" y="0" type="line"/>
			<point x="641" y="17" type="line"/>
			<point x="624" y="81"/>
			<point x="612" y="170"/>
			<point x="610" y="288" type="curve"/>
			<point x="584" y="289" type="line"/>
			<point x="574" y="81"/>
			<point x="459" y="56"/>
			<point x="297" y="53" type="curve" smooth="yes"/>
			<point x="91" y="49" type="line"/>
			<point x="112" y="32" type="line"/>
			<point x="328" y="210" type="line" smooth="yes"/>
			<point x="501" y="352"/>
			<point x="575" y="459"/>
			<point x="575" y="568" type="curve" smooth="yes"/>
			<point x="575" y="680"/>
			<point x="477" y="760"/>
			<point x="336" y="760" type="curve" smooth="yes"/>
			<point x="180" y="760"/>
			<point x="72" y="654"/>
			<point x="52" y="494" type="curve"/>
			<point x="76" y="489" type="line"/>
			<point x="109" y="610"/>
			<point x="200" y="688"/>
			<point x="309" y="688" type="curve" smooth="yes"/>
			<point x="407" y="688"/>
			<point x="455" y="633"/>
			<point x="455" y="558" type="curve" smooth="yes"/>
			<point x="455" y="485"/>
			<point x="415" y="400"/>
			<point x="270" y="261" type="curve" smooth="yes"/>
			<point x="20" y="22" type="line"/>
		</contour>
	</outline>
</glyph>
<glyph name="three" format="2">
	<advance width="668"/>
	<unicode hex="0033"/>
	<outline>
		<contour>
			<point x="336" y="-15" type="curve" smooth="yes"/>
			<point x="499" y="-15"/>
			<point x="618" y="88"/>
			<point x="618" y="234" type="curve" smooth="yes"/>
			<point x="618" y="331"/>
			<point x="539" y="419"/>
			<point x="391" y="430" type="curve"/>
			<point x="390" y="433" type="line"/>
			<point x="522" y="489"/>
			<point x="581" y="542"/>
			<point x="581" y="613" type="curve" smooth="yes"/>
			<point x="581" y="697"/>
			<point x="473" y="760"/>
			<point x="346" y="760" type="curve" smooth="yes"/>
			<point x="223" y="760"/>
			<point x="156" y="698"/>
			<point x="82" y="740" type="curve"/>
			<point x="68" y="730" type="line"/>
			<point x="87" y="655"/>
			<point x="103" y="565"/>
			<point x="100" y="484" type="curve"/>
			<point x="125" y="481" type="line"/>
			<point x="171" y="647"/>
			<point x="245" y="719"/>
			<point x="351" y="719" type="curve" smooth="yes"/>
			<point x="436" y="719"/>
			<point x="477" y="672"/>
			<point x="477" y="612" type="curve" smooth="yes"/>
			<point x="477" y="552"/>
			<point x="407" y="470"/>
			<point x="187" y="383" type="curve"/>
			<point x="195" y="356" type="line"/>
			<point x="235" y="367"/>
			<point x="270" y="376"/>
			<point x="332" y="376" type="curve" smooth="yes"/>
			<point x="439" y="376"/>
			<point x="509" y="319"/>
			<point x="509" y="231" type="curve" smooth="yes"/>
			<point x="509" y="129"/>
			<point x="432" y="63"/>
			<point x="312" y="63" type="curve" smooth="yes"/>
			<point x="190" y="63"/>
			<point x="92" y="136"/>
			<point x="50" y="204" type="curve"/>
			<point x="30" y="193" type="line"/>
			<point x="58" y="106"/>
			<point x="158" y="-15"/>
		</contour>
	</outline>
</glyph>
<glyph name="four" format="2">
	<advance width="697"/>
	<unicode hex="0034"/>
	<outline>
		<contour>
			<point x="21" y="239" type="line"/>
			<point x="675" y="239" type="line"/>
			<point x="675" y="322" type="line"/>
			<point x="60" y="279" type="line"/>
			<point x="79" y="267" type="line"/>
			<point x="394" y="635" type="line"/>
			<point x="376" y="646" type="line"/>
			<point x="376" y="152" type="line" smooth="yes"/>
			<point x="376" y="76"/>
			<point x="355" y="47"/>
			<point x="145" y="21" type="curve"/>
			<point x="149" y="-7" type="line"/>
			<point x="298" y="-3"/>
			<point x="393" y="0"/>
			<point x="422" y="0" type="curve" smooth="yes"/>
			<point x="454" y="0"/>
			<point x="548" y="-3"/>
			<point x="683" y="-7" type="curve"/>
			<point x="687" y="21" type="line"/>
			<point x="487" y="48"/>
			<point x="466" y="76"/>
			<point x="466" y="152" type="curve" smooth="yes"/>
			<point x="466" y="750" type="line"/>
			<point x="436" y="760" type="line"/>
			<point x="10" y="261" type="line"/>
		</contour>
	</outline>
</glyph>
<glyph name="five" format="2">
	<advance width="678"/>
	<unicode hex="0035"/>
	<outline>
		<contour>
			<point x="351" y="-15" type="curve" smooth="yes"/>
			<point x="514" y="-15"/>
			<point x="633" y="88"/>
			<point x="633" y="234" type="curve" smooth="yes"/>
			<point x="633" y="443"/>
			<point x="348" y="479"/>
			<point x="164" y="403" type="curve"/>
			<point x="186" y="381" type="line"/>
			<point x="221" y="721" type="line"/>
			<point x="156" y="695" type="line"/>
			<point x="290" y="695" type="line" smooth="yes"/>
			<point x="426" y="695"/>
			<point x="509" y="671"/>
			<point x="559" y="491" type="curve"/>
			<point x="584" y="494" type="line"/>
			<point x="571" y="575"/>
			<point x="567" y="665"/>
			<point x="586" y="740" type="curve"/>
			<point x="572" y="750" type="line"/>
			<point x="498" y="735"/>
			<point x="420" y="735"/>
			<point x="297" y="735" type="curve" smooth="yes"/>
			<point x="132" y="735" type="line"/>
			<point x="93" y="346" type="line"/>
			<point x="263" y="406"/>
			<point x="524" y="423"/>
			<point x="524" y="231" type="curve" smooth="yes"/>
			<point x="524" y="129"/>
			<point x="447" y="63"/>
			<point x="327" y="63" type="curve" smooth="yes"/>
			<point x="205" y="63"/>
			<point x="107" y="136"/>
			<point x="65" y="204" type="curve"/>
			<point x="45" y="193" type="line"/>
			<point x="73" y="106"/>
			<point x="173" y="-15"/>
		</contour>
	</outline>
</glyph>
<glyph name="six" format="2">
	<advance width="659"/>
	<unicode hex="0036"/>
	<outline>
		<contour>
			<point x="171" y="308" type="curve" smooth="yes"/>
			<point x="171" y="589"/>
			<point x="334" y="705"/>
			<point x="509" y="736" type="curve"/>
			<point x="504" y="760" type="line"/>
			<point x="224" y="732"/>
			<point x="50" y="578"/>
			<point x="50" y="316" type="curve" smooth="yes"/>
			<point x="50" y="89"/>
			<point x="185" y="-15"/>
			<point x="343" y="-15" type="curve" smooth="yes"/>
			<point x="500" y="-15"/>
			<point x="629" y="99"/>
			<point x="629" y="240" type="curve" smooth="yes"/>
			<point x="629" y="390"/>
			<point x="491" y="497"/>
			<point x="352" y="497" type="curve" smooth="yes"/>
			<point x="280" y="497"/>
			<point x="195" y="469"/>
			<point x="143" y="392" type="curve"/>
			<point x="157" y="357" type="line"/>
			<point x="208" y="424"/>
			<point x="277" y="449"/>
			<point x="329" y="449" type="curve" smooth="yes"/>
			<point x="415" y="449"/>
			<point x="496" y="388"/>
			<point x="507" y="264" type="curve" smooth="yes"/>
			<point x="519" y="133"/>
			<point x="471" y="42"/>
			<point x="380" y="32" type="curve" smooth="yes"/>
			<point x="291" y="21"/>
			<point x="171" y="96"/>
		</contour>
	</outline>
</glyph>
<glyph name="seven" format="2">
	<advance width="602"/>
	<unicode hex="0037"/>
	<outline>
		<contour>
			<point x="571" y="745" type="line"/>
			<point x="36" y="745" type="line"/>
			<point x="20" y="728" type="line"/>
			<point x="37" y="664"/>
			<point x="49" y="577"/>
			<point x="51" y="479" type="curve"/>
			<point x="77" y="478" type="line"/>
			<point x="87" y="649"/>
			<point x="172" y="667"/>
			<point x="295" y="667" type="curve" smooth="yes"/>
			<point x="511" y="667" type="line"/>
			<point x="509" y="695" type="line"/>
			<point x="441" y="599" type="line" smooth="yes"/>
			<point x="321" y="429"/>
			<point x="239" y="266"/>
			<point x="212" y="0" type="curve"/>
			<point x="349" y="0" type="line"/>
			<point x="349" y="240"/>
			<point x="351" y="386"/>
			<point x="475" y="567" type="curve" smooth="yes"/>
			<point x="582" y="723" type="line"/>
		</contour>
	</outline>
</glyph>
<glyph name="eight" format="2">
	<advance width="662"/>
	<unicode hex="0038"/>
	<outline>
		<contour>
			<point x="271" y="349" type="curve"/>
			<point x="243" y="368" type="line"/>
			<point x="124" y="335"/>
			<point x="60" y="282"/>
			<point x="60" y="170" type="curve" smooth="yes"/>
			<point x="60" y="58"/>
			<point x="171" y="-15"/>
			<point x="343" y="-15" type="curve" smooth="yes"/>
			<point x="500" y="-15"/>
			<point x="602" y="62"/>
			<point x="602" y="180" type="curve" smooth="yes"/>
			<point x="602" y="282"/>
			<point x="538" y="333"/>
			<point x="364" y="411" type="curve" smooth="yes"/>
			<point x="234" y="469"/>
			<point x="186" y="534"/>
			<point x="186" y="596" type="curve" smooth="yes"/>
			<point x="186" y="671"/>
			<point x="243" y="720"/>
			<point x="331" y="720" type="curve" smooth="yes"/>
			<point x="419" y="720"/>
			<point x="476" y="664"/>
			<point x="476" y="577" type="curve" smooth="yes"/>
			<point x="476" y="497"/>
			<point x="442" y="439"/>
			<point x="371" y="394" type="curve"/>
			<point x="383" y="377" type="line"/>
			<point x="515" y="414"/>
			<point x="575" y="485"/>
			<point x="575" y="579" type="curve" smooth="yes"/>
			<point x="575" y="689"/>
			<point x="480" y="760"/>
			<point x="332" y="760" type="curve" smooth="yes"/>
			<point x="186" y="760"/>
			<point x="91" y="686"/>
			<point x="91" y="572" type="curve" smooth="yes"/>
			<point x="91" y="469"/>
			<point x="156" y="393"/>
			<point x="292" y="335" type="curve" smooth="yes"/>
			<point x="437" y="273"/>
			<point x="506" y="210"/>
			<point x="506" y="140" type="curve" smooth="yes"/>
			<point x="506" y="70"/>
			<point x="442" y="25"/>
			<point x="342" y="25" type="curve" smooth="yes"/>
			<point x="231" y="25"/>
			<point x="159" y="82"/>
			<point x="159" y="170" type="curve" smooth="yes"/>
			<point x="159" y="238"/>
			<point x="195" y="295"/>
		</contour>
	</outline>
</glyph>
<glyph name="nine" format="2">
	<advance width="669"/>
	<unicode hex="0039"/>
	<outline>
		<contour>
			<point x="498" y="437" type="curve" smooth="yes"/>
			<point x="498" y="156"/>
			<point x="335" y="40"/>
			<point x="160" y="9" type="curve"/>
			<point x="165" y="-15" type="line"/>
			<point x="445" y="13"/>
			<point x="619" y="167"/>
			<point x="619" y="429" type="curve" smooth="yes"/>
			<point x="619" y="656"/>
			<point x="484" y="760"/>
			<point x="326" y="760" type="curve" smooth="yes"/>
			<point x="169" y="760"/>
			<point x="40" y="646"/>
			<point x="40" y="505" type="curve" smooth="yes"/>
			<point x="40" y="355"/>
			<point x="178" y="248"/>
			<point x="317" y="248" type="curve" smooth="yes"/>
			<point x="389" y="248"/>
			<point x="474" y="276"/>
			<point x="526" y="353" type="curve"/>
			<point x="512" y="388" type="line"/>
			<point x="461" y="321"/>
			<point x="392" y="296"/>
			<point x="340" y="296" type="curve" smooth="yes"/>
			<point x="254" y="296"/>
			<point x="173" y="357"/>
			<point x="162" y="481" type="curve" smooth="yes"/>
			<point x="150" y="612"/>
			<point x="198" y="703"/>
			<point x="289" y="713" type="curve" smooth="yes"/>
			<point x="378" y="724"/>
			<point x="498" y="673"/>
		</contour>
	</outline>
</glyph>
<glyph name="equal" format="2">
	<advance width="559"/>
	<unicode hex="003D"/>
	<outline>
		<contour>
			<point x="101" y="437" type="line"/>
			<point x="459" y="440" type="line"/>
			<point x="459" y="500" type="line"/>
			<point x="100" y="497" type="line"/>
		</contour>
		<contour>
			<point x="101" y="236" type="line"/>
			<point x="459" y="239" type="line"/>
			<point x="459" y="299" type="line"/>
			<point x="100" y="296" type="line"/>
		</contour>
	</outline>
</glyph>
<glyph name="greater" format="2">
	<advance width="457"/>
	<unicode hex="003E"/>
	<outline>
		<contour>
			<point x="427" y="393" type="line"/>
			<point x="76" y="624" type="line"/>
			<point x="50" y="603" type="line"/>
			<point x="290" y="381" type="line"/>
			<point x="50" y="159" type="line"/>
			<point x="76" y="138" type="line"/>
			<point x="427" y="369" type="line"/>
		</contour>
	</outline>
</glyph>
<glyph name="question" format="2">
	<advance width="628"/>
	<unicode hex="003F"/>
	<outline>
		<component base="period" xOffset="143"/>
		<contour>
			<point x="283" y="248" type="curve"/>
			<point x="309" y="248" type="line"/>
			<point x="307" y="337"/>
			<point x="332" y="377"/>
			<point x="400" y="410" type="curve" smooth="yes"/>
			<point x="508" y="463"/>
			<point x="573" y="505"/>
			<point x="573" y="602" type="curve" smooth="yes"/>
			<point x="573" y="696"/>
			<point x="465" y="760"/>
			<point x="338" y="760" type="curve" smooth="yes"/>
			<point x="215" y="760"/>
			<point x="168" y="698"/>
			<point x="94" y="740" type="curve"/>
			<point x="80" y="730" type="line"/>
			<point x="99" y="655"/>
			<point x="115" y="565"/>
			<point x="112" y="484" type="curve"/>
			<point x="137" y="481" type="line"/>
			<point x="183" y="647"/>
			<point x="237" y="720"/>
			<point x="343" y="720" type="curve" smooth="yes"/>
			<point x="428" y="720"/>
			<point x="469" y="662"/>
			<point x="469" y="606" type="curve" smooth="yes"/>
			<point x="469" y="551"/>
			<point x="432" y="495"/>
			<point x="364" y="446" type="curve" smooth="yes"/>
			<point x="296" y="397"/>
			<point x="267" y="348"/>
		</contour>
	</outline>
</glyph>
<glyph name="at" format="2">
	<advance width="1094"/>
	<unicode hex="0040"/>
	<outline>
		<contour>
			<point x="408" y="199" type="curve" smooth="yes"/>
			<point x="356" y="251"/>
			<point x="464" y="376"/>
			<point x="603" y="461" type="curve"/>
			<point x="606" y="388"/>
			<point x="600" y="325"/>
			<point x="555" y="261" type="curve" smooth="yes"/>
			<point x="503" y="189"/>
			<point x="443" y="164"/>
		</contour>
		<contour>
			<point x="728" y="517" type="curve"/>
			<point x="696" y="552" type="line"/>
			<point x="521" y="506"/>
			<point x="185" y="208"/>
			<point x="302" y="90" type="curve" smooth="yes"/>
			<point x="355" y="37"/>
			<point x="515" y="109"/>
			<point x="593" y="229" type="curve"/>
			<point x="626" y="115"/>
			<point x="751" y="44"/>
			<point x="858" y="77" type="curve" smooth="yes"/>
			<point x="1058" y="137"/>
			<point x="1056" y="402"/>
			<point x="998" y="539" type="curve" smooth="yes"/>
			<point x="936" y="686"/>
			<point x="813" y="761"/>
			<point x="587" y="761" type="curve" smooth="yes"/>
			<point x="297" y="761"/>
			<point x="50" y="527"/>
			<point x="50" y="214" type="curve" smooth="yes"/>
			<point x="50" y="-31"/>
			<point x="238" y="-189"/>
			<point x="489" y="-189" type="curve" smooth="yes"/>
			<point x="630" y="-189"/>
			<point x="763" y="-123"/>
			<point x="867" y="-21" type="curve"/>
			<point x="836" y="4" type="line"/>
			<point x="739" y="-76"/>
			<point x="630" y="-127"/>
			<point x="517" y="-127" type="curve" smooth="yes"/>
			<point x="319" y="-127"/>
			<point x="165" y="8"/>
			<point x="165" y="216" type="curve" smooth="yes"/>
			<point x="165" y="523"/>
			<point x="346" y="721"/>
			<point x="586" y="721" type="curve" smooth="yes"/>
			<point x="746" y="721"/>
			<point x="859" y="614"/>
			<point x="908" y="481" type="curve" smooth="yes"/>
			<point x="956" y="351"/>
			<point x="938" y="155"/>
			<point x="846" y="128" type="curve" smooth="yes"/>
			<point x="774" y="107"/>
			<point x="703" y="141"/>
			<point x="669" y="217" type="curve" smooth="yes"/>
			<point x="621" y="325"/>
			<point x="676" y="439"/>
		</contour>
	</outline>
</glyph>
<glyph name="A" format="2">
	<advance width="721"/>
	<unicode hex="0041"/>
	<anchor x="389" y="0" name="bottom"/>
	<anchor x="749" y="10" name="ogonek"/>
	<anchor x="389" y="745" name="top"/>
	<outline>
		<contour>
			<point x="48" y="669" type="curve"/>
			<point x="62" y="641" type="line"/>
			<point x="293" y="753"/>
			<point x="448" y="678"/>
			<point x="480" y="456" type="curve" smooth="yes"/>
			<point x="521" y="174"/>
			<point x="531" y="94"/>
			<point x="538" y="0" type="curve"/>
			<point x="698" y="0" type="line"/>
			<point x="711" y="26" type="line"/>
			<point x="646" y="76"/>
			<point x="591" y="215"/>
			<point x="572" y="355" type="curve" smooth="yes"/>
			<point x="545" y="557"/>
			<point x="579" y="627"/>
			<point x="670" y="685" type="curve"/>
			<point x="652" y="707" type="line"/>
			<point x="595" y="691"/>
			<point x="518" y="662"/>
			<point x="438" y="620" type="curve"/>
			<point x="550" y="557" type="line"/>
			<point x="510" y="690"/>
			<point x="428" y="753"/>
			<point x="293" y="753" type="curve" smooth="yes"/>
			<point x="192" y="753"/>
			<point x="118" y="722"/>
		</contour>
		<contour>
			<point x="460" y="588" type="curve"/>
			<point x="438" y="620" type="line"/>
			<point x="341" y="568"/>
			<point x="249" y="501"/>
			<point x="181" y="435" type="curve" smooth="yes"/>
			<point x="-10" y="243"/>
			<point x="-5" y="58"/>
			<point x="61" y="9" type="curve" smooth="yes"/>
			<point x="150" y="-55"/>
			<point x="436" y="12"/>
			<point x="515" y="346" type="curve"/>
			<point x="480" y="456" type="line"/>
			<point x="494" y="350"/>
			<point x="454" y="275"/>
			<point x="402" y="207" type="curve" smooth="yes"/>
			<point x="328" y="111"/>
			<point x="214" y="50"/>
			<point x="150" y="93" type="curve" smooth="yes"/>
			<point x="88" y="134"/>
			<point x="128" y="309"/>
			<point x="222" y="408" type="curve" smooth="yes"/>
			<point x="279" y="469"/>
			<point x="365" y="533"/>
		</contour>
	</outline>
</glyph>
<glyph name="B" format="2">
	<advance width="737"/>
	<unicode hex="0042"/>
	<anchor x="369" y="0" name="bottom"/>
	<anchor x="369" y="373" name="center"/>
	<anchor x="369" y="745" name="top"/>
	<outline>
		<contour>
			<point x="410" y="-7" type="curve" smooth="yes"/>
			<point x="600" y="-7"/>
			<point x="697" y="68"/>
			<point x="697" y="193" type="curve" smooth="yes"/>
			<point x="697" y="308"/>
			<point x="626" y="381"/>
			<point x="508" y="406" type="curve"/>
			<point x="587" y="435"/>
			<point x="639" y="492"/>
			<point x="639" y="582" type="curve" smooth="yes"/>
			<point x="639" y="693"/>
			<point x="562" y="760"/>
			<point x="372" y="750" type="curve" smooth="yes"/>
			<point x="315" y="747"/>
			<point x="239" y="745"/>
			<point x="207" y="745" type="curve" smooth="yes"/>
			<point x="175" y="745"/>
			<point x="125" y="747"/>
			<point x="64" y="752" type="curve"/>
			<point x="60" y="724" type="line"/>
			<point x="140" y="698"/>
			<point x="161" y="659"/>
			<point x="161" y="583" type="curve" smooth="yes"/>
			<point x="161" y="162" type="line" smooth="yes"/>
			<point x="161" y="86"/>
			<point x="140" y="47"/>
			<point x="60" y="21" type="curve"/>
			<point x="64" y="-7" type="line"/>
			<point x="125" y="-2"/>
			<point x="175" y="0"/>
			<point x="215" y="0" type="curve" smooth="yes"/>
			<point x="254" y="0"/>
			<point x="336" y="-7"/>
		</contour>
		<contour>
			<point x="414" y="33" type="curve" smooth="yes"/>
			<point x="303" y="33"/>
			<point x="251" y="103"/>
			<point x="251" y="209" type="curve" smooth="yes"/>
			<point x="251" y="358" type="line"/>
			<point x="361" y="369" type="line" smooth="yes"/>
			<point x="520" y="385"/>
			<point x="592" y="305"/>
			<point x="592" y="189" type="curve" smooth="yes"/>
			<point x="592" y="84"/>
			<point x="520" y="33"/>
		</contour>
		<contour>
			<point x="348" y="409" type="curve" smooth="yes"/>
			<point x="251" y="399" type="line"/>
			<point x="251" y="705" type="line"/>
			<point x="437" y="721"/>
			<point x="534" y="693"/>
			<point x="534" y="565" type="curve" smooth="yes"/>
			<point x="534" y="484"/>
			<point x="494" y="424"/>
		</contour>
	</outline>
</glyph>
<glyph name="C" format="2">
	<advance width="763"/>
	<unicode hex="0043"/>
	<anchor x="402" y="0" name="bottom"/>
	<anchor x="397" y="745" name="top"/>
	<outline>
		<contour>
			<point x="743" y="293" type="curve"/>
			<point x="719" y="297" type="line"/>
			<point x="666" y="147"/>
			<point x="593" y="73"/>
			<point x="441" y="73" type="curve" smooth="yes"/>
			<point x="270" y="73"/>
			<point x="134" y="220"/>
			<point x="134" y="410" type="curve" smooth="yes"/>
			<point x="134" y="587"/>
			<point x="244" y="719"/>
			<point x="388" y="719" type="curve" smooth="yes"/>
			<point x="514" y="719"/>
			<point x="609" y="647"/>
			<point x="655" y="481" type="curve"/>
			<point x="680" y="484" type="line"/>
			<point x="677" y="565"/>
			<point x="693" y="655"/>
			<point x="716" y="728" type="curve"/>
			<point x="698" y="740" type="line"/>
			<point x="624" y="698"/>
			<point x="530" y="760"/>
			<point x="407" y="760" type="curve" smooth="yes"/>
			<point x="205" y="760"/>
			<point x="30" y="586"/>
			<point x="30" y="373" type="curve" smooth="yes"/>
			<point x="30" y="156"/>
			<point x="196" y="-15"/>
			<point x="407" y="-15" type="curve" smooth="yes"/>
			<point x="595" y="-15"/>
			<point x="705" y="106"/>
		</contour>
	</outline>
</glyph>
<glyph name="D" format="2">
	<advance width="840"/>
	<unicode hex="0044"/>
	<anchor x="431" y="0" name="bottom"/>
	<anchor x="431" y="373" name="center"/>
	<anchor x="431" y="745" name="top"/>
	<outline>
		<contour>
			<point x="413" y="-10" type="curve" smooth="yes"/>
			<point x="676" y="-10"/>
			<point x="820" y="171"/>
			<point x="810" y="396" type="curve" smooth="yes"/>
			<point x="800" y="620"/>
			<point x="641" y="764"/>
			<point x="368" y="749" type="curve" smooth="yes"/>
			<point x="300" y="745"/>
			<point x="239" y="745"/>
			<point x="207" y="745" type="curve" smooth="yes"/>
			<point x="175" y="745"/>
			<point x="125" y="747"/>
			<point x="64" y="752" type="curve"/>
			<point x="60" y="724" type="line"/>
			<point x="140" y="698"/>
			<point x="161" y="659"/>
			<point x="161" y="583" type="curve" smooth="yes"/>
			<point x="161" y="162" type="line" smooth="yes"/>
			<point x="161" y="86"/>
			<point x="140" y="47"/>
			<point x="60" y="21" type="curve"/>
			<point x="64" y="-7" type="line"/>
			<point x="125" y="-2"/>
			<point x="175" y="0"/>
			<point x="207" y="0" type="curve" smooth="yes"/>
			<point x="239" y="0"/>
			<point x="335" y="-10"/>
		</contour>
		<contour>
			<point x="411" y="30" type="curve" smooth="yes"/>
			<point x="278" y="30"/>
			<point x="251" y="86"/>
			<point x="251" y="192" type="curve" smooth="yes"/>
			<point x="251" y="583" type="line" smooth="yes"/>
			<point x="251" y="659"/>
			<point x="277" y="706"/>
			<point x="370" y="709" type="curve" smooth="yes"/>
			<point x="536" y="714"/>
			<point x="666" y="618"/>
			<point x="689" y="408" type="curve" smooth="yes"/>
			<point x="712" y="197"/>
			<point x="623" y="30"/>
		</contour>
	</outline>
</glyph>
<glyph name="E" format="2">
	<advance width="763"/>
	<unicode hex="0045"/>
	<anchor x="389" y="0" name="bottom"/>
	<anchor x="699" y="10" name="ogonek"/>
	<anchor x="405" y="760" name="top"/>
	<anchor x="20" y="745" name="topleft"/>
	<outline>
		<contour>
			<point x="407" y="-15" type="curve" smooth="yes"/>
			<point x="595" y="-15"/>
			<point x="705" y="106"/>
			<point x="743" y="293" type="curve"/>
			<point x="719" y="297" type="line"/>
			<point x="666" y="147"/>
			<point x="593" y="73"/>
			<point x="441" y="73" type="curve" smooth="yes"/>
			<point x="270" y="73"/>
			<point x="134" y="220"/>
			<point x="134" y="410" type="curve" smooth="yes"/>
			<point x="134" y="587"/>
			<point x="244" y="719"/>
			<point x="388" y="719" type="curve" smooth="yes"/>
			<point x="514" y="719"/>
			<point x="609" y="647"/>
			<point x="655" y="481" type="curve"/>
			<point x="680" y="484" type="line"/>
			<point x="677" y="565"/>
			<point x="693" y="655"/>
			<point x="712" y="730" type="curve"/>
			<point x="698" y="740" type="line"/>
			<point x="624" y="698"/>
			<point x="530" y="760"/>
			<point x="407" y="760" type="curve" smooth="yes"/>
			<point x="205" y="760"/>
			<point x="30" y="586"/>
			<point x="30" y="373" type="curve" smooth="yes"/>
			<point x="30" y="156"/>
			<point x="196" y="-15"/>
		</contour>
		<contour>
			<point x="525" y="221" type="curve"/>
			<point x="550" y="230" type="line"/>
			<point x="527" y="331"/>
			<point x="516" y="414"/>
			<point x="503" y="529" type="curve"/>
			<point x="478" y="529" type="line"/>
			<point x="467" y="434"/>
			<point x="410" y="408"/>
			<point x="338" y="408" type="curve" smooth="yes"/>
			<point x="111" y="408" type="line"/>
			<point x="111" y="368" type="line"/>
			<point x="348" y="368" type="line" smooth="yes"/>
			<point x="427" y="368"/>
			<point x="478" y="339"/>
		</contour>
	</outline>
</glyph>
<glyph name="F" format="2">
	<advance width="724"/>
	<unicode hex="0046"/>
	<outline>
		<contour>
			<point x="60" y="21" type="curve"/>
			<point x="64" y="-7" type="line"/>
			<point x="125" y="-2"/>
			<point x="175" y="0"/>
			<point x="207" y="0" type="curve" smooth="yes"/>
			<point x="239" y="0"/>
			<point x="299" y="-2"/>
			<point x="348" y="-7" type="curve"/>
			<point x="352" y="21" type="line"/>
			<point x="272" y="48"/>
			<point x="251" y="86"/>
			<point x="251" y="162" type="curve" smooth="yes"/>
			<point x="251" y="572" type="line" smooth="yes"/>
			<point x="251" y="660"/>
			<point x="292" y="704"/>
			<point x="415" y="704" type="curve" smooth="yes"/>
			<point x="544" y="704"/>
			<point x="621" y="665"/>
			<point x="656" y="427" type="curve"/>
			<point x="684" y="427" type="line"/>
			<point x="670" y="750" type="line"/>
			<point x="612" y="746"/>
			<point x="534" y="744"/>
			<point x="378" y="744" type="curve" smooth="yes"/>
			<point x="175" y="744"/>
			<point x="125" y="746"/>
			<point x="64" y="751" type="curve"/>
			<point x="60" y="723" type="line"/>
			<point x="140" y="697"/>
			<point x="161" y="658"/>
			<point x="161" y="582" type="curve" smooth="yes"/>
			<point x="161" y="162" type="line" smooth="yes"/>
			<point x="161" y="86"/>
			<point x="140" y="47"/>
		</contour>
		<contour>
			<point x="535" y="211" type="curve"/>
			<point x="560" y="220" type="line"/>
			<point x="537" y="321"/>
			<point x="527" y="404"/>
			<point x="524" y="519" type="curve"/>
			<point x="499" y="519" type="line"/>
			<point x="478" y="424"/>
			<point x="420" y="398"/>
			<point x="348" y="398" type="curve" smooth="yes"/>
			<point x="251" y="398" type="line"/>
			<point x="251" y="358" type="line"/>
			<point x="358" y="358" type="line" smooth="yes"/>
			<point x="437" y="358"/>
			<point x="488" y="329"/>
		</contour>
	</outline>
</glyph>
<glyph name="G" format="2">
	<advance width="811"/>
	<unicode hex="0047"/>
	<anchor x="411" y="-14" name="bottom"/>
	<anchor x="400" y="745" name="top"/>
	<outline>
		<contour>
			<point x="397" y="-15" type="curve" smooth="yes"/>
			<point x="542" y="-15"/>
			<point x="675" y="67"/>
			<point x="706" y="176" type="curve"/>
			<point x="688" y="213" type="line"/>
			<point x="711" y="0" type="line"/>
			<point x="751" y="0" type="line"/>
			<point x="744" y="408" type="line"/>
			<point x="406" y="408" type="line"/>
			<point x="406" y="368" type="line"/>
			<point x="646" y="368"/>
			<point x="684" y="302"/>
			<point x="684" y="242" type="curve" smooth="yes"/>
			<point x="684" y="147"/>
			<point x="573" y="73"/>
			<point x="451" y="73" type="curve" smooth="yes"/>
			<point x="260" y="73"/>
			<point x="134" y="220"/>
			<point x="134" y="410" type="curve" smooth="yes"/>
			<point x="134" y="587"/>
			<point x="244" y="719"/>
			<point x="398" y="719" type="curve" smooth="yes"/>
			<point x="524" y="719"/>
			<point x="634" y="647"/>
			<point x="680" y="481" type="curve"/>
			<point x="705" y="484" type="line"/>
			<point x="702" y="565"/>
			<point x="722" y="655"/>
			<point x="741" y="730" type="curve"/>
			<point x="723" y="740" type="line"/>
			<point x="649" y="698"/>
			<point x="540" y="760"/>
			<point x="407" y="760" type="curve" smooth="yes"/>
			<point x="205" y="760"/>
			<point x="30" y="586"/>
			<point x="30" y="373" type="curve" smooth="yes"/>
			<point x="30" y="156"/>
			<point x="186" y="-15"/>
		</contour>
	</outline>
</glyph>
<glyph name="H" format="2">
	<advance width="953"/>
	<unicode hex="0048"/>
	<outline>
		<contour>
			<point x="601" y="21" type="curve"/>
			<point x="605" y="-7" type="line"/>
			<point x="666" y="-2"/>
			<point x="716" y="0"/>
			<point x="748" y="0" type="curve" smooth="yes"/>
			<point x="780" y="0"/>
			<point x="840" y="-2"/>
			<point x="889" y="-7" type="curve"/>
			<point x="893" y="21" type="line"/>
			<point x="813" y="48"/>
			<point x="792" y="86"/>
			<point x="792" y="162" type="curve" smooth="yes"/>
			<point x="792" y="583" type="line" smooth="yes"/>
			<point x="792" y="659"/>
			<point x="813" y="697"/>
			<point x="893" y="724" type="curve"/>
			<point x="889" y="752" type="line"/>
			<point x="840" y="747"/>
			<point x="780" y="745"/>
			<point x="748" y="745" type="curve" smooth="yes"/>
			<point x="716" y="745"/>
			<point x="666" y="747"/>
			<point x="605" y="752" type="curve"/>
			<point x="601" y="724" type="line"/>
			<point x="681" y="698"/>
			<point x="702" y="659"/>
			<point x="702" y="583" type="curve" smooth="yes"/>
			<point x="702" y="162" type="line" smooth="yes"/>
			<point x="702" y="86"/>
			<point x="681" y="47"/>
		</contour>
		<contour>
			<point x="60" y="21" type="curve"/>
			<point x="64" y="-7" type="line"/>
			<point x="125" y="-2"/>
			<point x="175" y="0"/>
			<point x="207" y="0" type="curve" smooth="yes"/>
			<point x="239" y="0"/>
			<point x="299" y="-2"/>
			<point x="348" y="-7" type="curve"/>
			<point x="352" y="21" type="line"/>
			<point x="272" y="48"/>
			<point x="251" y="86"/>
			<point x="251" y="162" type="curve" smooth="yes"/>
			<point x="251" y="583" type="line" smooth="yes"/>
			<point x="251" y="659"/>
			<point x="272" y="697"/>
			<point x="352" y="724" type="curve"/>
			<point x="348" y="752" type="line"/>
			<point x="299" y="747"/>
			<point x="239" y="745"/>
			<point x="207" y="745" type="curve" smooth="yes"/>
			<point x="175" y="745"/>
			<point x="125" y="747"/>
			<point x="64" y="752" type="curve"/>
			<point x="60" y="724" type="line"/>
			<point x="140" y="698"/>
			<point x="161" y="659"/>
			<point x="161" y="583" type="curve" smooth="yes"/>
			<point x="161" y="162" type="line" smooth="yes"/>
			<point x="161" y="86"/>
			<point x="140" y="47"/>
		</contour>
		<contour>
			<point x="237" y="350" type="line"/>
			<point x="715" y="350" type="line"/>
			<point x="715" y="400" type="line"/>
			<point x="237" y="400" type="line"/>
		</contour>
	</outline>
</glyph>
<glyph name="I" format="2">
	<advance width="412"/>
	<unicode hex="0049"/>
	<anchor x="206" y="0" name="bottom"/>
	<anchor x="371" y="10" name="ogonek"/>
	<anchor x="206" y="745" name="top"/>
	<anchor x="20" y="745" name="topleft"/>
	<outline>
		<contour>
			<point x="60" y="21" type="curve"/>
			<point x="64" y="-7" type="line"/>
			<point x="125" y="-2"/>
			<point x="175" y="0"/>
			<point x="207" y="0" type="curve" smooth="yes"/>
			<point x="239" y="0"/>
			<point x="299" y="-2"/>
			<point x="348" y="-7" type="curve"/>
			<point x="352" y="21" type="line"/>
			<point x="272" y="48"/>
			<point x="251" y="86"/>
			<point x="251" y="162" type="curve" smooth="yes"/>
			<point x="251" y="583" type="line" smooth="yes"/>
			<point x="251" y="659"/>
			<point x="272" y="697"/>
			<point x="352" y="724" type="curve"/>
			<point x="348" y="752" type="line"/>
			<point x="299" y="747"/>
			<point x="239" y="745"/>
			<point x="207" y="745" type="curve" smooth="yes"/>
			<point x="175" y="745"/>
			<point x="125" y="747"/>
			<point x="64" y="752" type="curve"/>
			<point x="60" y="724" type="line"/>
			<point x="140" y="698"/>
			<point x="161" y="659"/>
			<point x="161" y="583" type="curve" smooth="yes"/>
			<point x="161" y="162" type="line" smooth="yes"/>
			<point x="161" y="86"/>
			<point x="140" y="47"/>
		</contour>
	</outline>
</glyph>
<glyph name="J" format="2">
	<advance width="402"/>
	<unicode hex="004A"/>
	<outline>
		<contour>
			<point x="-13" y="-91" type="curve"/>
			<point x="-11" y="-117" type="line"/>
			<point x="150" y="-119"/>
			<point x="251" y="-61"/>
			<point x="251" y="207" type="curve" smooth="yes"/>
			<point x="251" y="583" type="line" smooth="yes"/>
			<point x="251" y="659"/>
			<point x="272" y="697"/>
			<point x="352" y="724" type="curve"/>
			<point x="348" y="752" type="line"/>
			<point x="299" y="747"/>
			<point x="239" y="745"/>
			<point x="207" y="745" type="curve" smooth="yes"/>
			<point x="175" y="745"/>
			<point x="125" y="747"/>
			<point x="64" y="752" type="curve"/>
			<point x="60" y="724" type="line"/>
			<point x="140" y="698"/>
			<point x="161" y="659"/>
			<point x="161" y="583" type="curve" smooth="yes"/>
			<point x="161" y="222" type="line" smooth="yes"/>
			<point x="161" y="0"/>
			<point x="84" y="-75"/>
		</contour>
	</outline>
</glyph>
<glyph name="K" format="2">
	<advance width="804"/>
	<unicode hex="004B"/>
	<anchor x="465" y="0" name="bottom"/>
	<anchor x="435" y="745" name="top"/>
	<outline>
		<contour>
			<point x="223" y="243" type="line"/>
			<point x="554" y="556" type="line" smooth="yes"/>
			<point x="633" y="631"/>
			<point x="724" y="687"/>
			<point x="804" y="724" type="curve"/>
			<point x="800" y="752" type="line"/>
			<point x="731" y="747"/>
			<point x="679" y="745"/>
			<point x="653" y="745" type="curve" smooth="yes"/>
			<point x="627" y="745"/>
			<point x="570" y="747"/>
			<point x="476" y="752" type="curve"/>
			<point x="472" y="724" type="line"/>
			<point x="558" y="708"/>
			<point x="593" y="648"/>
			<point x="527" y="585" type="curve" smooth="yes"/>
			<point x="232" y="306" type="line"/>
		</contour>
		<contour>
			<point x="60" y="21" type="curve"/>
			<point x="64" y="-7" type="line"/>
			<point x="125" y="-2"/>
			<point x="175" y="0"/>
			<point x="207" y="0" type="curve" smooth="yes"/>
			<point x="239" y="0"/>
			<point x="299" y="-2"/>
			<point x="348" y="-7" type="curve"/>
			<point x="352" y="21" type="line"/>
			<point x="272" y="48"/>
			<point x="251" y="86"/>
			<point x="251" y="162" type="curve" smooth="yes"/>
			<point x="251" y="583" type="line" smooth="yes"/>
			<point x="251" y="659"/>
			<point x="272" y="697"/>
			<point x="352" y="724" type="curve"/>
			<point x="348" y="752" type="line"/>
			<point x="299" y="747"/>
			<point x="239" y="745"/>
			<point x="207" y="745" type="curve" smooth="yes"/>
			<point x="175" y="745"/>
			<point x="125" y="747"/>
			<point x="64" y="752" type="curve"/>
			<point x="60" y="724" type="line"/>
			<point x="140" y="698"/>
			<point x="161" y="659"/>
			<point x="161" y="583" type="curve" smooth="yes"/>
			<point x="161" y="162" type="line" smooth="yes"/>
			<point x="161" y="86"/>
			<point x="140" y="47"/>
		</contour>
		<contour>
			<point x="619" y="0" type="curve"/>
			<point x="787" y="0" type="line"/>
			<point x="802" y="28" type="line"/>
			<point x="736" y="57"/>
			<point x="699" y="82"/>
			<point x="616" y="211" type="curve" smooth="yes"/>
			<point x="449" y="472" type="line"/>
			<point x="377" y="415" type="line"/>
			<point x="480" y="271"/>
			<point x="577" y="98"/>
		</contour>
	</outline>
</glyph>
<glyph name="L" format="2">
	<advance width="714"/>
	<unicode hex="004C"/>
	<outline>
		<contour>
			<point x="60" y="21" type="curve"/>
			<point x="64" y="-7" type="line"/>
			<point x="125" y="-2"/>
			<point x="175" y="0"/>
			<point x="368" y="0" type="curve" smooth="yes"/>
			<point x="524" y="0"/>
			<point x="602" y="-2"/>
			<point x="660" y="-6" type="curve"/>
			<point x="674" y="317" type="line"/>
			<point x="646" y="317" type="line"/>
			<point x="609" y="128"/>
			<point x="534" y="40"/>
			<point x="385" y="40" type="curve" smooth="yes"/>
			<point x="292" y="40"/>
			<point x="251" y="84"/>
			<point x="251" y="172" type="curve" smooth="yes"/>
			<point x="251" y="583" type="line" smooth="yes"/>
			<point x="251" y="659"/>
			<point x="272" y="697"/>
			<point x="352" y="724" type="curve"/>
			<point x="348" y="752" type="line"/>
			<point x="299" y="747"/>
			<point x="239" y="745"/>
			<point x="207" y="745" type="curve" smooth="yes"/>
			<point x="175" y="745"/>
			<point x="125" y="747"/>
			<point x="64" y="752" type="curve"/>
			<point x="60" y="724" type="line"/>
			<point x="140" y="698"/>
			<point x="161" y="659"/>
			<point x="161" y="583" type="curve" smooth="yes"/>
			<point x="161" y="162" type="line" smooth="yes"/>
			<point x="161" y="86"/>
			<point x="140" y="47"/>
		</contour>
	</outline>
</glyph>
<glyph name="M" format="2">
	<advance width="1128"/>
	<unicode hex="004D"/>
	<outline>
		<contour>
			<point x="10" y="21" type="curve"/>
			<point x="14" y="-7" type="line"/>
			<point x="70" y="-2"/>
			<point x="94" y="0"/>
			<point x="132" y="0" type="curve" smooth="yes"/>
			<point x="167" y="0"/>
			<point x="217" y="-2"/>
			<point x="282" y="-7" type="curve"/>
			<point x="286" y="21" type="line"/>
			<point x="186" y="58"/>
			<point x="171" y="115"/>
			<point x="199" y="212" type="curve" smooth="yes"/>
			<point x="306" y="577" type="line"/>
			<point x="281" y="575" type="line"/>
			<point x="543" y="-15" type="line"/>
			<point x="558" y="-15" type="line"/>
			<point x="789" y="618" type="line"/>
			<point x="782" y="599" type="line"/>
			<point x="800" y="562"/>
			<point x="814" y="518"/>
			<point x="828" y="463" type="curve" smooth="yes"/>
			<point x="898" y="192" type="line" smooth="yes"/>
			<point x="922" y="100"/>
			<point x="913" y="47"/>
			<point x="833" y="21" type="curve"/>
			<point x="837" y="-7" type="line"/>
			<point x="893" y="-3"/>
			<point x="939" y="0"/>
			<point x="985" y="0" type="curve" smooth="yes"/>
			<point x="1041" y="0"/>
			<point x="1069" y="-3"/>
			<point x="1114" y="-7" type="curve"/>
			<point x="1118" y="21" type="line"/>
			<point x="1038" y="48"/>
			<point x="1025" y="100"/>
			<point x="1001" y="192" type="curve" smooth="yes"/>
			<point x="926" y="481" type="line" smooth="yes"/>
			<point x="891" y="616"/>
			<point x="889" y="697"/>
			<point x="972" y="724" type="curve"/>
			<point x="968" y="752" type="line"/>
			<point x="919" y="747"/>
			<point x="877" y="745"/>
			<point x="791" y="745" type="curve"/>
			<point x="563" y="113" type="line"/>
			<point x="581" y="144" type="line"/>
			<point x="313" y="752" type="line"/>
			<point x="279" y="747"/>
			<point x="263" y="745"/>
			<point x="232" y="745" type="curve" smooth="yes"/>
			<point x="201" y="745"/>
			<point x="180" y="746"/>
			<point x="124" y="752" type="curve"/>
			<point x="120" y="724" type="line"/>
			<point x="240" y="693"/>
			<point x="280" y="613"/>
			<point x="244" y="499" type="curve" smooth="yes"/>
			<point x="154" y="212" type="line" smooth="yes"/>
			<point x="124" y="116"/>
			<point x="90" y="57"/>
		</contour>
	</outline>
</glyph>
<glyph name="N" format="2">
	<advance width="930"/>
	<unicode hex="004E"/>
	<anchor x="472" y="0" name="bottom"/>
	<anchor x="472" y="745" name="top"/>
	<outline>
		<contour>
			<point x="60" y="21" type="curve"/>
			<point x="64" y="-7" type="line"/>
			<point x="120" y="-2"/>
			<point x="139" y="0"/>
			<point x="177" y="0" type="curve" smooth="yes"/>
			<point x="212" y="0"/>
			<point x="258" y="-2"/>
			<point x="323" y="-7" type="curve"/>
			<point x="327" y="21" type="line"/>
			<point x="227" y="58"/>
			<point x="206" y="96"/>
			<point x="206" y="182" type="curve" smooth="yes"/>
			<point x="206" y="655" type="line"/>
			<point x="176" y="644" type="line"/>
			<point x="738" y="-19" type="line"/>
			<point x="738" y="151" type="line"/>
			<point x="228" y="753" type="line"/>
			<point x="205" y="749"/>
			<point x="180" y="745"/>
			<point x="155" y="745" type="curve" smooth="yes"/>
			<point x="128" y="745"/>
			<point x="104" y="748"/>
			<point x="64" y="752" type="curve"/>
			<point x="60" y="724" type="line"/>
			<point x="140" y="688"/>
			<point x="166" y="649"/>
			<point x="166" y="523" type="curve" smooth="yes"/>
			<point x="166" y="182" type="line" smooth="yes"/>
			<point x="166" y="96"/>
			<point x="140" y="57"/>
		</contour>
		<contour>
			<point x="729" y="563" type="curve" smooth="yes"/>
			<point x="729" y="-1" type="line"/>
			<point x="738" y="-19" type="line"/>
			<point x="769" y="-1" type="line"/>
			<point x="769" y="563" type="line" smooth="yes"/>
			<point x="769" y="649"/>
			<point x="790" y="687"/>
			<point x="870" y="724" type="curve"/>
			<point x="866" y="752" type="line"/>
			<point x="817" y="747"/>
			<point x="780" y="745"/>
			<point x="749" y="745" type="curve" smooth="yes"/>
			<point x="718" y="745"/>
			<point x="679" y="746"/>
			<point x="612" y="752" type="curve"/>
			<point x="608" y="724" type="line"/>
			<point x="708" y="688"/>
			<point x="729" y="649"/>
		</contour>
	</outline>
</glyph>
<glyph name="O" format="2">
	<advance width="824"/>
	<unicode hex="004F"/>
	<anchor x="412" y="0" name="bottom"/>
	<anchor x="412" y="373" name="center"/>
	<anchor x="742" y="10" name="ogonek"/>
	<anchor x="412" y="745" name="top"/>
	<anchor x="20" y="745" name="topleft"/>
	<anchor x="804" y="745" name="topright"/>
	<outline>
		<contour>
			<point x="412" y="-15" type="curve" smooth="yes"/>
			<point x="622" y="-15"/>
			<point x="794" y="159"/>
			<point x="794" y="374" type="curve" smooth="yes"/>
			<point x="794" y="597"/>
			<point x="622" y="760"/>
			<point x="412" y="760" type="curve" smooth="yes"/>
			<point x="201" y="760"/>
			<point x="30" y="587"/>
			<point x="30" y="374" type="curve" smooth="yes"/>
			<point x="30" y="149"/>
			<point x="201" y="-15"/>
		</contour>
		<contour>
			<point x="536" y="49" type="curve" smooth="yes"/>
			<point x="397" y="0"/>
			<point x="238" y="93"/>
			<point x="175" y="257" type="curve" smooth="yes"/>
			<point x="99" y="453"/>
			<point x="146" y="645"/>
			<point x="282" y="694" type="curve" smooth="yes"/>
			<point x="416" y="740"/>
			<point x="577" y="651"/>
			<point x="648" y="493" type="curve" smooth="yes"/>
			<point x="734" y="298"/>
			<point x="685" y="102"/>
		</contour>
	</outline>
</glyph>
<glyph name="P" format="2">
	<advance width="684"/>
	<unicode hex="0050"/>
	<outline>
		<contour>
			<point x="60" y="21" type="curve"/>
			<point x="64" y="-7" type="line"/>
			<point x="125" y="-2"/>
			<point x="175" y="0"/>
			<point x="207" y="0" type="curve" smooth="yes"/>
			<point x="239" y="0"/>
			<point x="299" y="-2"/>
			<point x="348" y="-7" type="curve"/>
			<point x="352" y="21" type="line"/>
			<point x="272" y="48"/>
			<point x="251" y="86"/>
			<point x="251" y="162" type="curve" smooth="yes"/>
			<point x="251" y="704" type="line"/>
			<point x="437" y="720"/>
			<point x="554" y="663"/>
			<point x="554" y="525" type="curve" smooth="yes"/>
			<point x="554" y="433"/>
			<point x="499" y="348"/>
			<point x="308" y="320" type="curve" smooth="yes"/>
			<point x="246" y="311" type="line"/>
			<point x="248" y="271" type="line"/>
			<point x="330" y="282" type="line" smooth="yes"/>
			<point x="582" y="316"/>
			<point x="664" y="415"/>
			<point x="664" y="532" type="curve" smooth="yes"/>
			<point x="664" y="674"/>
			<point x="549" y="759"/>
			<point x="372" y="750" type="curve" smooth="yes"/>
			<point x="315" y="747"/>
			<point x="239" y="745"/>
			<point x="207" y="745" type="curve" smooth="yes"/>
			<point x="175" y="745"/>
			<point x="125" y="747"/>
			<point x="64" y="752" type="curve"/>
			<point x="60" y="724" type="line"/>
			<point x="140" y="698"/>
			<point x="161" y="659"/>
			<point x="161" y="583" type="curve" smooth="yes"/>
			<point x="161" y="162" type="line" smooth="yes"/>
			<point x="161" y="86"/>
			<point x="140" y="47"/>
		</contour>
	</outline>
</glyph>
<glyph name="Q" format="2">
	<advance width="830"/>
	<unicode hex="0051"/>
	<anchor x="411" y="0" name="bottom"/>
	<anchor x="411" y="373" name="center"/>
	<anchor x="756" y="10" name="ogonek"/>
	<anchor x="411" y="755" name="top"/>
	<anchor x="0" y="745" name="topleft"/>
	<anchor x="822" y="745" name="topright"/>
	<outline>
		<contour>
			<point x="412" y="15" type="curve" smooth="yes"/>
			<point x="622" y="15"/>
			<point x="794" y="182"/>
			<point x="794" y="389" type="curve" smooth="yes"/>
			<point x="794" y="603"/>
			<point x="622" y="760"/>
			<point x="412" y="760" type="curve" smooth="yes"/>
			<point x="201" y="760"/>
			<point x="30" y="594"/>
			<point x="30" y="389" type="curve" smooth="yes"/>
			<point x="30" y="173"/>
			<point x="201" y="15"/>
		</contour>
		<contour>
			<point x="664" y="-165" type="curve"/>
			<point x="712" y="-102"/>
			<point x="745" y="-75"/>
			<point x="800" y="-19" type="curve"/>
			<point x="786" y="-1" type="line"/>
			<point x="710" y="-35"/>
			<point x="636" y="-43"/>
			<point x="574" y="-31" type="curve" smooth="yes"/>
			<point x="515" y="-20"/>
			<point x="445" y="-3"/>
			<point x="398" y="9" type="curve" smooth="yes"/>
			<point x="329" y="27" type="line"/>
			<point x="257" y="13"/>
			<point x="187" y="-4"/>
			<point x="101" y="-24" type="curve"/>
			<point x="109" y="-48" type="line"/>
			<point x="279" y="-21"/>
			<point x="407" y="-35"/>
		</contour>
		<contour>
			<point x="535" y="78" type="curve" smooth="yes"/>
			<point x="396" y="31"/>
			<point x="238" y="119"/>
			<point x="175" y="276" type="curve" smooth="yes"/>
			<point x="99" y="465"/>
			<point x="146" y="647"/>
			<point x="282" y="695" type="curve" smooth="yes"/>
			<point x="416" y="739"/>
			<point x="577" y="655"/>
			<point x="648" y="503" type="curve" smooth="yes"/>
			<point x="734" y="316"/>
			<point x="684" y="129"/>
		</contour>
	</outline>
</glyph>
<glyph name="R" format="2">
	<advance width="782"/>
	<unicode hex="0052"/>
	<anchor x="435" y="0" name="bottom"/>
	<anchor x="395" y="745" name="top"/>
	<outline>
		<contour>
			<point x="60" y="21" type="curve"/>
			<point x="64" y="-7" type="line"/>
			<point x="125" y="-2"/>
			<point x="175" y="0"/>
			<point x="207" y="0" type="curve" smooth="yes"/>
			<point x="239" y="0"/>
			<point x="299" y="-2"/>
			<point x="348" y="-7" type="curve"/>
			<point x="352" y="21" type="line"/>
			<point x="272" y="48"/>
			<point x="251" y="86"/>
			<point x="251" y="162" type="curve" smooth="yes"/>
			<point x="251" y="705" type="line"/>
			<point x="437" y="721"/>
			<point x="554" y="693"/>
			<point x="554" y="565" type="curve" smooth="yes"/>
			<point x="554" y="484"/>
			<point x="489" y="412"/>
			<point x="348" y="375" type="curve" smooth="yes"/>
			<point x="246" y="348" type="line"/>
			<point x="248" y="307" type="line"/>
			<point x="405" y="349" type="line" smooth="yes"/>
			<point x="580" y="396"/>
			<point x="664" y="466"/>
			<point x="664" y="572" type="curve" smooth="yes"/>
			<point x="664" y="693"/>
			<point x="562" y="760"/>
			<point x="372" y="750" type="curve" smooth="yes"/>
			<point x="315" y="747"/>
			<point x="239" y="745"/>
			<point x="207" y="745" type="curve" smooth="yes"/>
			<point x="175" y="745"/>
			<point x="125" y="747"/>
			<point x="64" y="752" type="curve"/>
			<point x="60" y="724" type="line"/>
			<point x="140" y="698"/>
			<point x="161" y="659"/>
			<point x="161" y="583" type="curve" smooth="yes"/>
			<point x="161" y="162" type="line" smooth="yes"/>
			<point x="161" y="86"/>
			<point x="140" y="47"/>
		</contour>
		<contour>
			<point x="767" y="-5" type="curve"/>
			<point x="782" y="23" type="line"/>
			<point x="716" y="52"/>
			<point x="679" y="78"/>
			<point x="596" y="206" type="curve" smooth="yes"/>
			<point x="483" y="380" type="line"/>
			<point x="391" y="354" type="line"/>
			<point x="494" y="210"/>
			<point x="557" y="93"/>
			<point x="599" y="-5" type="curve"/>
			<point x="642" y="0"/>
			<point x="704" y="0"/>
		</contour>
	</outline>
</glyph>
<glyph name="S" format="2">
	<advance width="668"/>
	<unicode hex="0053"/>
	<anchor x="332" y="-12" name="bottom"/>
	<anchor x="350" y="745" name="top"/>
	<outline>
		<contour>
			<point x="98" y="282" type="curve"/>
			<point x="73" y="274" type="line"/>
			<point x="87" y="207"/>
			<point x="83" y="84"/>
			<point x="60" y="26" type="curve"/>
			<point x="165" y="-7"/>
			<point x="253" y="-15"/>
			<point x="340" y="-15" type="curve" smooth="yes"/>
			<point x="536" y="-15"/>
			<point x="618" y="63"/>
			<point x="618" y="176" type="curve" smooth="yes"/>
			<point x="618" y="278"/>
			<point x="551" y="337"/>
			<point x="377" y="415" type="curve" smooth="yes"/>
			<point x="232" y="480"/>
			<point x="165" y="534"/>
			<point x="165" y="612" type="curve" smooth="yes"/>
			<point x="165" y="676"/>
			<point x="235" y="720"/>
			<point x="309" y="720" type="curve" smooth="yes"/>
			<point x="399" y="720"/>
			<point x="500" y="661"/>
			<point x="549" y="493" type="curve"/>
			<point x="572" y="498" type="line"/>
			<point x="563" y="579"/>
			<point x="562" y="652"/>
			<point x="570" y="734" type="curve"/>
			<point x="442" y="734"/>
			<point x="419" y="760"/>
			<point x="322" y="760" type="curve" smooth="yes"/>
			<point x="202" y="760"/>
			<point x="77" y="697"/>
			<point x="77" y="572" type="curve" smooth="yes"/>
			<point x="77" y="475"/>
			<point x="142" y="402"/>
			<point x="298" y="335" type="curve" smooth="yes"/>
			<point x="467" y="262"/>
			<point x="532" y="209"/>
			<point x="532" y="132" type="curve" smooth="yes"/>
			<point x="532" y="70"/>
			<point x="470" y="25"/>
			<point x="368" y="25" type="curve" smooth="yes"/>
			<point x="263" y="25"/>
			<point x="159" y="88"/>
		</contour>
	</outline>
</glyph>
<glyph name="T" format="2">
	<advance width="731"/>
	<unicode hex="0054"/>
	<outline>
		<contour>
			<point x="190" y="21" type="curve"/>
			<point x="194" y="-7" type="line"/>
			<point x="285" y="-2"/>
			<point x="335" y="0"/>
			<point x="367" y="0" type="curve" smooth="yes"/>
			<point x="399" y="0"/>
			<point x="459" y="-2"/>
			<point x="538" y="-7" type="curve"/>
			<point x="542" y="21" type="line"/>
			<point x="432" y="48"/>
			<point x="411" y="86"/>
			<point x="411" y="162" type="curve" smooth="yes"/>
			<point x="411" y="592" type="line" smooth="yes"/>
			<point x="411" y="668"/>
			<point x="432" y="706"/>
			<point x="504" y="707" type="curve" smooth="yes"/>
			<point x="617" y="708"/>
			<point x="672" y="627"/>
			<point x="688" y="468" type="curve"/>
			<point x="716" y="468" type="line"/>
			<point x="721" y="751" type="line"/>
			<point x="625" y="747"/>
			<point x="538" y="744"/>
			<point x="366" y="745" type="curve" smooth="yes"/>
			<point x="194" y="746"/>
			<point x="107" y="747"/>
			<point x="10" y="751" type="curve"/>
			<point x="16" y="468" type="line"/>
			<point x="44" y="468" type="line"/>
			<point x="60" y="627"/>
			<point x="115" y="708"/>
			<point x="228" y="707" type="curve" smooth="yes"/>
			<point x="300" y="707"/>
			<point x="321" y="668"/>
			<point x="321" y="592" type="curve" smooth="yes"/>
			<point x="321" y="162" type="line" smooth="yes"/>
			<point x="321" y="86"/>
			<point x="300" y="47"/>
		</contour>
	</outline>
</glyph>
<glyph name="U" format="2">
	<advance width="838"/>
	<unicode hex="0055"/>
	<anchor x="419" y="0" name="bottom"/>
	<anchor x="754" y="10" name="ogonek"/>
	<anchor x="430" y="745" name="top"/>
	<anchor x="818" y="745" name="topright"/>
	<outline>
		<contour>
			<point x="427" y="-15" type="curve" smooth="yes"/>
			<point x="613" y="-17"/>
			<point x="717" y="102"/>
			<point x="717" y="318" type="curve" smooth="yes"/>
			<point x="717" y="513" type="line" smooth="yes"/>
			<point x="717" y="629"/>
			<point x="738" y="697"/>
			<point x="818" y="724" type="curve"/>
			<point x="814" y="752" type="line"/>
			<point x="765" y="747"/>
			<point x="715" y="745"/>
			<point x="683" y="745" type="curve" smooth="yes"/>
			<point x="651" y="745"/>
			<point x="601" y="748"/>
			<point x="530" y="752" type="curve"/>
			<point x="526" y="722" type="line"/>
			<point x="646" y="696"/>
			<point x="677" y="629"/>
			<point x="677" y="513" type="curve" smooth="yes"/>
			<point x="677" y="338" type="line" smooth="yes"/>
			<point x="677" y="169"/>
			<point x="595" y="75"/>
			<point x="447" y="75" type="curve" smooth="yes"/>
			<point x="296" y="75"/>
			<point x="211" y="175"/>
			<point x="211" y="354" type="curve" smooth="yes"/>
			<point x="211" y="583" type="line" smooth="yes"/>
			<point x="211" y="659"/>
			<point x="227" y="696"/>
			<point x="347" y="722" type="curve"/>
			<point x="343" y="752" type="line"/>
			<point x="272" y="748"/>
			<point x="228" y="745"/>
			<point x="186" y="745" type="curve" smooth="yes"/>
			<point x="144" y="745"/>
			<point x="104" y="746"/>
			<point x="24" y="752" type="curve"/>
			<point x="20" y="724" type="line"/>
			<point x="100" y="697"/>
			<point x="121" y="659"/>
			<point x="121" y="583" type="curve" smooth="yes"/>
			<point x="121" y="332" type="line" smooth="yes"/>
			<point x="121" y="112"/>
			<point x="231" y="-13"/>
		</contour>
	</outline>
</glyph>
<glyph name="V" format="2">
	<advance width="844"/>
	<unicode hex="0056"/>
	<outline>
		<contour>
			<point x="-25" y="751" type="curve"/>
			<point x="-30" y="722" type="line"/>
			<point x="71" y="700"/>
			<point x="109" y="643"/>
			<point x="145" y="566" type="curve" smooth="yes"/>
			<point x="418" y="-15" type="line"/>
			<point x="442" y="-15" type="line"/>
			<point x="689" y="528" type="line" smooth="yes"/>
			<point x="736" y="631"/>
			<point x="777" y="705"/>
			<point x="874" y="722" type="curve"/>
			<point x="870" y="751" type="line"/>
			<point x="803" y="746"/>
			<point x="747" y="745"/>
			<point x="704" y="745" type="curve" smooth="yes"/>
			<point x="660" y="745"/>
			<point x="611" y="748"/>
			<point x="542" y="751" type="curve"/>
			<point x="537" y="722" type="line"/>
			<point x="645" y="706"/>
			<point x="698" y="643"/>
			<point x="651" y="540" type="curve" smooth="yes"/>
			<point x="455" y="111" type="line"/>
			<point x="468" y="111" type="line"/>
			<point x="253" y="572" type="line" smooth="yes"/>
			<point x="213" y="658"/>
			<point x="258" y="709"/>
			<point x="369" y="722" type="curve"/>
			<point x="366" y="751" type="line"/>
			<point x="305" y="748"/>
			<point x="212" y="745"/>
			<point x="168" y="745" type="curve" smooth="yes"/>
			<point x="125" y="745"/>
			<point x="59" y="746"/>
		</contour>
	</outline>
</glyph>
<glyph name="W" format="2">
	<advance width="1159"/>
	<unicode hex="0057"/>
	<anchor x="566" y="0" name="bottom"/>
	<anchor x="612" y="745" name="top"/>
	<outline>
		<contour>
			<point x="145" y="566" type="curve" smooth="yes"/>
			<point x="358" y="-15" type="line"/>
			<point x="382" y="-15" type="line"/>
			<point x="631" y="728" type="line"/>
			<point x="633" y="760" type="line"/>
			<point x="600" y="760" type="line"/>
			<point x="382" y="111" type="line"/>
			<point x="417" y="114" type="line"/>
			<point x="249" y="572" type="line" smooth="yes"/>
			<point x="216" y="663"/>
			<point x="258" y="709"/>
			<point x="369" y="722" type="curve"/>
			<point x="366" y="751" type="line"/>
			<point x="305" y="747"/>
			<point x="212" y="745"/>
			<point x="168" y="745" type="curve" smooth="yes"/>
			<point x="125" y="745"/>
			<point x="59" y="747"/>
			<point x="-25" y="751" type="curve"/>
			<point x="-30" y="722" type="line"/>
			<point x="71" y="700"/>
			<point x="115" y="647"/>
		</contour>
		<contour>
			<point x="803" y="-15" type="line"/>
			<point x="827" y="-15" type="line"/>
			<point x="1004" y="528" type="line" smooth="yes"/>
			<point x="1040" y="637"/>
			<point x="1092" y="705"/>
			<point x="1189" y="722" type="curve"/>
			<point x="1185" y="751" type="line"/>
			<point x="1118" y="747"/>
			<point x="1062" y="745"/>
			<point x="1019" y="745" type="curve" smooth="yes"/>
			<point x="975" y="745"/>
			<point x="926" y="747"/>
			<point x="857" y="751" type="curve"/>
			<point x="852" y="722" type="line"/>
			<point x="960" y="706"/>
			<point x="1002" y="649"/>
			<point x="966" y="540" type="curve" smooth="yes"/>
			<point x="826" y="111" type="line"/>
			<point x="864" y="111" type="line"/>
			<point x="633" y="760" type="line"/>
			<point x="575" y="624" type="line"/>
		</contour>
	</outline>
</glyph>
<glyph name="X" format="2">
	<advance width="841"/>
	<unicode hex="0058"/>
	<outline>
		<contour>
			<point x="0" y="22" type="curve"/>
			<point x="5" y="-7" type="line"/>
			<point x="64" y="-1"/>
			<point x="132" y="2"/>
			<point x="171" y="2" type="curve" smooth="yes"/>
			<point x="210" y="2"/>
			<point x="264" y="-1"/>
			<point x="326" y="-7" type="curve"/>
			<point x="331" y="22" type="line"/>
			<point x="234" y="39"/>
			<point x="215" y="93"/>
			<point x="277" y="175" type="curve" smooth="yes"/>
			<point x="567" y="559" type="line" smooth="yes"/>
			<point x="631" y="644"/>
			<point x="709" y="708"/>
			<point x="806" y="723" type="curve"/>
			<point x="801" y="751" type="line"/>
			<point x="742" y="747"/>
			<point x="674" y="745"/>
			<point x="635" y="745" type="curve" smooth="yes"/>
			<point x="596" y="745"/>
			<point x="552" y="747"/>
			<point x="490" y="751" type="curve"/>
			<point x="485" y="723" type="line"/>
			<point x="582" y="709"/>
			<point x="581" y="646"/>
			<point x="523" y="569" type="curve" smooth="yes"/>
			<point x="228" y="179" type="line" smooth="yes"/>
			<point x="167" y="98"/>
			<point x="97" y="41"/>
		</contour>
		<contour>
			<point x="447" y="22" type="curve"/>
			<point x="452" y="-7" type="line"/>
			<point x="524" y="-1"/>
			<point x="616" y="2"/>
			<point x="655" y="2" type="curve" smooth="yes"/>
			<point x="694" y="2"/>
			<point x="762" y="-1"/>
			<point x="836" y="-7" type="curve"/>
			<point x="841" y="22" type="line"/>
			<point x="734" y="46"/>
			<point x="683" y="82"/>
			<point x="633" y="153" type="curve" smooth="yes"/>
			<point x="318" y="603" type="line" smooth="yes"/>
			<point x="287" y="647"/>
			<point x="281" y="709"/>
			<point x="381" y="723" type="curve"/>
			<point x="376" y="751" type="line"/>
			<point x="304" y="747"/>
			<point x="212" y="745"/>
			<point x="173" y="745" type="curve" smooth="yes"/>
			<point x="134" y="745"/>
			<point x="78" y="747"/>
			<point x="14" y="751" type="curve"/>
			<point x="9" y="723" type="line"/>
			<point x="108" y="708"/>
			<point x="167" y="662"/>
			<point x="213" y="596" type="curve" smooth="yes"/>
			<point x="517" y="160" type="line" smooth="yes"/>
			<point x="571" y="82"/>
			<point x="557" y="43"/>
		</contour>
	</outline>
</glyph>
<glyph name="Y" format="2">
	<advance width="775"/>
	<unicode hex="0059"/>
	<anchor x="386" y="0" name="bottom"/>
	<anchor x="432" y="745" name="top"/>
	<anchor x="22" y="745" name="topleft"/>
	<outline>
		<contour>
			<point x="4" y="751" type="curve"/>
			<point x="0" y="722" type="line"/>
			<point x="79" y="690"/>
			<point x="139" y="647"/>
			<point x="177" y="584" type="curve" smooth="yes"/>
			<point x="388" y="236" type="line"/>
			<point x="407" y="236" type="line"/>
			<point x="612" y="571" type="line" smooth="yes"/>
			<point x="657" y="644"/>
			<point x="711" y="693"/>
			<point x="775" y="722" type="curve"/>
			<point x="770" y="751" type="line"/>
			<point x="708" y="747"/>
			<point x="664" y="745"/>
			<point x="631" y="745" type="curve" smooth="yes"/>
			<point x="597" y="745"/>
			<point x="558" y="747"/>
			<point x="505" y="751" type="curve"/>
			<point x="501" y="722" type="line"/>
			<point x="585" y="710"/>
			<point x="619" y="662"/>
			<point x="576" y="591" type="curve" smooth="yes"/>
			<point x="411" y="318" type="line"/>
			<point x="438" y="323" type="line"/>
			<point x="283" y="585" type="line" smooth="yes"/>
			<point x="240" y="657"/>
			<point x="249" y="710"/>
			<point x="364" y="722" type="curve"/>
			<point x="361" y="751" type="line"/>
			<point x="268" y="747"/>
			<point x="188" y="745"/>
			<point x="154" y="745" type="curve" smooth="yes"/>
			<point x="121" y="745"/>
			<point x="69" y="748"/>
		</contour>
		<contour>
			<point x="237" y="21" type="curve"/>
			<point x="241" y="-7" type="line"/>
			<point x="322" y="-2"/>
			<point x="372" y="0"/>
			<point x="404" y="0" type="curve" smooth="yes"/>
			<point x="436" y="0"/>
			<point x="496" y="-2"/>
			<point x="565" y="-7" type="curve"/>
			<point x="569" y="21" type="line"/>
			<point x="469" y="48"/>
			<point x="448" y="86"/>
			<point x="448" y="162" type="curve" smooth="yes"/>
			<point x="448" y="333" type="line"/>
			<point x="358" y="333" type="line"/>
			<point x="358" y="162" type="line" smooth="yes"/>
			<point x="358" y="86"/>
			<point x="337" y="47"/>
		</contour>
	</outline>
</glyph>
<glyph name="Z" format="2">
	<advance width="721"/>
	<unicode hex="005A"/>
	<anchor x="367" y="0" name="bottom"/>
	<anchor x="384" y="745" name="top"/>
	<outline>
		<contour>
			<point x="41" y="0" type="line"/>
			<point x="685" y="0" type="line"/>
			<point x="701" y="17" type="line"/>
			<point x="684" y="81"/>
			<point x="672" y="170"/>
			<point x="670" y="288" type="curve"/>
			<point x="644" y="289" type="line"/>
			<point x="634" y="81"/>
			<point x="519" y="53"/>
			<point x="357" y="47" type="curve" smooth="yes"/>
			<point x="131" y="38" type="line"/>
			<point x="156" y="31" type="line"/>
			<point x="660" y="722" type="line"/>
			<point x="651" y="745" type="line"/>
			<point x="406" y="745" type="line" smooth="yes"/>
			<point x="229" y="745"/>
			<point x="145" y="745"/>
			<point x="80" y="764" type="curve"/>
			<point x="59" y="752" type="line"/>
			<point x="85" y="676"/>
			<point x="91" y="568"/>
			<point x="82" y="460" type="curve"/>
			<point x="108" y="457" type="line"/>
			<point x="144" y="652"/>
			<point x="228" y="700"/>
			<point x="359" y="703" type="curve" smooth="yes"/>
			<point x="610" y="708" type="line"/>
			<point x="536" y="715" type="line"/>
			<point x="30" y="22" type="line"/>
		</contour>
	</outline>
</glyph>
<glyph name="bracketleft" format="2">
	<advance width="368"/>
	<unicode hex="005B"/>
	<outline>
		<contour>
			<point x="100" y="795" type="line"/>
			<point x="100" y="-209" type="line"/>
			<point x="358" y="-209" type="line"/>
			<point x="358" y="-175" type="line"/>
			<point x="190" y="-155" type="line"/>
			<point x="190" y="741" type="line"/>
			<point x="358" y="761" type="line"/>
			<point x="358" y="795" type="line"/>
		</contour>
	</outline>
</glyph>
<glyph name="a" format="2">
	<advance width="627"/>
	<unicode hex="0061"/>
	<anchor x="321" y="0" name="bottom"/>
	<anchor x="581" y="10" name="ogonek"/>
	<anchor x="321" y="565" name="top"/>
	<outline>
		<contour>
			<point x="60" y="498" type="curve"/>
			<point x="66" y="478" type="line"/>
			<point x="226" y="526"/>
			<point x="361" y="522"/>
			<point x="390" y="325" type="curve" smooth="yes"/>
			<point x="438" y="0" type="line"/>
			<point x="590" y="0" type="line"/>
			<point x="597" y="28" type="line"/>
			<point x="478" y="78"/>
			<point x="412" y="415"/>
			<point x="552" y="516" type="curve"/>
			<point x="538" y="539" type="line"/>
			<point x="489" y="526"/>
			<point x="419" y="498"/>
			<point x="360" y="467" type="curve"/>
			<point x="469" y="430" type="line"/>
			<point x="410" y="529"/>
			<point x="348" y="565"/>
			<point x="246" y="565" type="curve" smooth="yes"/>
			<point x="169" y="565"/>
			<point x="113" y="538"/>
		</contour>
		<contour>
			<point x="390" y="427" type="curve"/>
			<point x="357" y="467" type="line"/>
			<point x="28" y="276"/>
			<point x="3" y="55"/>
			<point x="70" y="7" type="curve" smooth="yes"/>
			<point x="137" y="-41"/>
			<point x="358" y="-8"/>
			<point x="431" y="239" type="curve"/>
			<point x="371" y="402" type="line"/>
			<point x="408" y="281"/>
			<point x="382" y="204"/>
			<point x="342" y="152" type="curve" smooth="yes"/>
			<point x="286" y="79"/>
			<point x="201" y="60"/>
			<point x="163" y="95" type="curve" smooth="yes"/>
			<point x="123" y="133"/>
			<point x="144" y="228"/>
			<point x="218" y="302" type="curve" smooth="yes"/>
			<point x="279" y="363"/>
			<point x="342" y="402"/>
		</contour>
	</outline>
</glyph>
<glyph name="b" format="2">
	<advance width="692"/>
	<unicode hex="0062"/>
	<outline>
		<contour>
			<point x="408" y="-15" type="curve" smooth="yes"/>
			<point x="557" y="-15"/>
			<point x="667" y="112"/>
			<point x="667" y="274" type="curve" smooth="yes"/>
			<point x="667" y="437"/>
			<point x="550" y="565"/>
			<point x="401" y="565" type="curve" smooth="yes"/>
			<point x="224" y="565"/>
			<point x="165" y="435"/>
			<point x="165" y="274" type="curve" smooth="yes"/>
			<point x="165" y="107"/>
			<point x="231" y="-15"/>
		</contour>
		<contour>
			<point x="109" y="0" type="curve"/>
			<point x="143" y="0" type="line"/>
			<point x="217" y="102" type="line"/>
			<point x="217" y="583" type="line" smooth="yes"/>
			<point x="217" y="659"/>
			<point x="227" y="740"/>
			<point x="258" y="817" type="curve"/>
			<point x="240" y="832" type="line"/>
			<point x="189" y="773"/>
			<point x="133" y="737"/>
			<point x="30" y="720" type="curve"/>
			<point x="30" y="693" type="line"/>
			<point x="104" y="693"/>
			<point x="127" y="629"/>
			<point x="127" y="553" type="curve" smooth="yes"/>
			<point x="127" y="282" type="line" smooth="yes"/>
			<point x="127" y="156"/>
			<point x="119" y="77"/>
		</contour>
		<contour>
			<point x="430" y="27" type="curve" smooth="yes"/>
			<point x="327" y="23"/>
			<point x="241" y="124"/>
			<point x="222" y="272" type="curve" smooth="yes"/>
			<point x="206" y="398"/>
			<point x="252" y="495"/>
			<point x="334" y="507" type="curve" smooth="yes"/>
			<point x="439" y="522"/>
			<point x="527" y="430"/>
			<point x="548" y="283" type="curve" smooth="yes"/>
			<point x="567" y="137"/>
			<point x="518" y="31"/>
		</contour>
	</outline>
</glyph>
<glyph name="c" format="2">
	<advance width="556"/>
	<unicode hex="0063"/>
	<anchor x="278" y="0" name="bottom"/>
	<anchor x="278" y="550" name="top"/>
	<outline>
		<contour>
			<point x="284" y="-15" type="curve" smooth="yes"/>
			<point x="387" y="-15"/>
			<point x="500" y="63"/>
			<point x="531" y="168" type="curve"/>
			<point x="513" y="179" type="line"/>
			<point x="426" y="43"/>
			<point x="259" y="48"/>
			<point x="173" y="163" type="curve" smooth="yes"/>
			<point x="90" y="274"/>
			<point x="105" y="455"/>
			<point x="194" y="505" type="curve" smooth="yes"/>
			<point x="283" y="555"/>
			<point x="410" y="512"/>
			<point x="468" y="320" type="curve"/>
			<point x="490" y="322" type="line"/>
			<point x="492" y="398"/>
			<point x="502" y="467"/>
			<point x="517" y="530" type="curve"/>
			<point x="504" y="540" type="line"/>
			<point x="426" y="510"/>
			<point x="385" y="565"/>
			<point x="284" y="565" type="curve" smooth="yes"/>
			<point x="129" y="565"/>
			<point x="25" y="436"/>
			<point x="25" y="276" type="curve" smooth="yes"/>
			<point x="25" y="108"/>
			<point x="129" y="-15"/>
		</contour>
	</outline>
</glyph>
<glyph name="e" format="2">
	<advance width="566"/>
	<unicode hex="0065"/>
	<anchor x="273" y="0" name="bottom"/>
	<anchor x="491" y="10" name="ogonek"/>
	<anchor x="273" y="550" name="top"/>
	<outline>
		<contour>
			<point x="551" y="168" type="curve"/>
			<point x="533" y="179" type="line"/>
			<point x="446" y="44"/>
			<point x="254" y="48"/>
			<point x="168" y="163" type="curve" smooth="yes"/>
			<point x="85" y="274"/>
			<point x="112" y="450"/>
			<point x="194" y="505" type="curve" smooth="yes"/>
			<point x="293" y="571"/>
			<point x="410" y="492"/>
			<point x="410" y="350" type="curve"/>
			<point x="104" y="351" type="line"/>
			<point x="107" y="311" type="line"/>
			<point x="522" y="310" type="line"/>
			<point x="532" y="494"/>
			<point x="411" y="565"/>
			<point x="284" y="565" type="curve" smooth="yes"/>
			<point x="129" y="565"/>
			<point x="25" y="436"/>
			<point x="25" y="276" type="curve" smooth="yes"/>
			<point x="25" y="108"/>
			<point x="147" y="-15"/>
			<point x="292" y="-15" type="curve" smooth="yes"/>
			<point x="432" y="-15"/>
			<point x="520" y="63"/>
		</contour>
	</outline>
</glyph>
<glyph name="g" format="2">
	<advance width="664"/>
	<unicode hex="0067"/>
	<anchor x="332" y="-250" name="bottom"/>
	<anchor x="319" y="565" name="top"/>
	<outline>
		<contour>
			<point x="315" y="119" type="curve" smooth="yes"/>
			<point x="456" y="119"/>
			<point x="572" y="219"/>
			<point x="572" y="343" type="curve" smooth="yes"/>
			<point x="572" y="471"/>
			<point x="456" y="565"/>
			<point x="315" y="565" type="curve" smooth="yes"/>
			<point x="174" y="565"/>
			<point x="59" y="466"/>
			<point x="59" y="343" type="curve" smooth="yes"/>
			<point x="59" y="213"/>
			<point x="174" y="119"/>
		</contour>
		<contour>
			<point x="374" y="162" type="curve" smooth="yes"/>
			<point x="300" y="147"/>
			<point x="214" y="206"/>
			<point x="180" y="307" type="curve" smooth="yes"/>
			<point x="146" y="408"/>
			<point x="181" y="508"/>
			<point x="259" y="522" type="curve" smooth="yes"/>
			<point x="332" y="536"/>
			<point x="417" y="478"/>
			<point x="451" y="378" type="curve" smooth="yes"/>
			<point x="483" y="276"/>
			<point x="448" y="176"/>
		</contour>
		<contour>
			<point x="613" y="501" type="line"/>
			<point x="654" y="565" type="line"/>
			<point x="645" y="579" type="line"/>
			<point x="532" y="561"/>
			<point x="448" y="565"/>
			<point x="317" y="565" type="curve"/>
			<point x="328" y="547" type="line"/>
		</contour>
		<contour>
			<point x="76" y="-237" type="curve" smooth="yes"/>
			<point x="144" y="-269"/>
			<point x="314" y="-266"/>
			<point x="452" y="-204" type="curve" smooth="yes"/>
			<point x="576" y="-148"/>
			<point x="648" y="-43"/>
			<point x="606" y="27" type="curve" smooth="yes"/>
			<point x="573" y="82"/>
			<point x="515" y="71"/>
			<point x="362" y="48" type="curve" smooth="yes"/>
			<point x="258" y="32"/>
			<point x="164" y="21"/>
			<point x="134" y="51" type="curve" smooth="yes"/>
			<point x="105" y="80"/>
			<point x="111" y="129"/>
			<point x="166" y="167" type="curve"/>
			<point x="149" y="180" type="line"/>
			<point x="57" y="128"/>
			<point x="22" y="43"/>
			<point x="86" y="-18" type="curve" smooth="yes"/>
			<point x="153" y="-82"/>
			<point x="280" y="-57"/>
			<point x="400" y="-34" type="curve" smooth="yes"/>
			<point x="496" y="-16"/>
			<point x="540" y="-15"/>
			<point x="549" y="-46" type="curve" smooth="yes"/>
			<point x="558" y="-78"/>
			<point x="523" y="-130"/>
			<point x="435" y="-168" type="curve" smooth="yes"/>
			<point x="336" y="-211"/>
			<point x="203" y="-218"/>
			<point x="139" y="-164" type="curve" smooth="yes"/>
			<point x="110" y="-140"/>
			<point x="95" y="-88"/>
			<point x="129" y="-40" type="curve"/>
			<point x="115" y="-30" type="line"/>
			<point x="14" y="-85"/>
			<point x="-18" y="-193"/>
		</contour>
	</outline>
</glyph>
<glyph name="h" format="2">
	<advance width="762"/>
	<unicode hex="0068"/>
	<outline>
		<contour>
			<point x="450" y="21" type="curve"/>
			<point x="454" y="-7" type="line"/>
			<point x="505" y="-2"/>
			<point x="555" y="0"/>
			<point x="587" y="0" type="curve" smooth="yes"/>
			<point x="619" y="0"/>
			<point x="679" y="-2"/>
			<point x="728" y="-7" type="curve"/>
			<point x="732" y="21" type="line"/>
			<point x="652" y="48"/>
			<point x="631" y="86"/>
			<point x="631" y="162" type="curve" smooth="yes"/>
			<point x="631" y="331" type="line" smooth="yes"/>
			<point x="631" y="487"/>
			<point x="576" y="565"/>
			<point x="464" y="565" type="curve" smooth="yes"/>
			<point x="381" y="565"/>
			<point x="279" y="499"/>
			<point x="226" y="381" type="curve"/>
			<point x="237" y="361" type="line"/>
			<point x="282" y="427"/>
			<point x="330" y="488"/>
			<point x="418" y="488" type="curve" smooth="yes"/>
			<point x="500" y="488"/>
			<point x="541" y="435"/>
			<point x="541" y="327" type="curve" smooth="yes"/>
			<point x="541" y="162" type="line" smooth="yes"/>
			<point x="541" y="86"/>
			<point x="520" y="47"/>
		</contour>
		<contour>
			<point x="50" y="21" type="curve"/>
			<point x="54" y="-7" type="line"/>
			<point x="115" y="-2"/>
			<point x="165" y="0"/>
			<point x="197" y="0" type="curve" smooth="yes"/>
			<point x="229" y="0"/>
			<point x="289" y="-2"/>
			<point x="338" y="-7" type="curve"/>
			<point x="342" y="21" type="line"/>
			<point x="262" y="48"/>
			<point x="241" y="86"/>
			<point x="241" y="162" type="curve" smooth="yes"/>
			<point x="241" y="583" type="line" smooth="yes"/>
			<point x="241" y="659"/>
			<point x="251" y="740"/>
			<point x="282" y="817" type="curve"/>
			<point x="264" y="832" type="line"/>
			<point x="213" y="773"/>
			<point x="157" y="736"/>
			<point x="54" y="717" type="curve"/>
			<point x="54" y="693" type="line"/>
			<point x="128" y="693"/>
			<point x="151" y="629"/>
			<point x="151" y="553" type="curve" smooth="yes"/>
			<point x="151" y="162" type="line" smooth="yes"/>
			<point x="151" y="86"/>
			<point x="130" y="47"/>
		</contour>
	</outline>
</glyph>
<glyph name="j" format="2">
	<advance width="337"/>
	<unicode hex="006A"/>
	<outline>
		<contour>
			<point x="-20" y="-226" type="curve"/>
			<point x="-11" y="-247" type="line"/>
			<point x="100" y="-219"/>
			<point x="226" y="-148"/>
			<point x="226" y="40" type="curve" smooth="yes"/>
			<point x="226" y="349" type="line" smooth="yes"/>
			<point x="226" y="415"/>
			<point x="222" y="475"/>
			<point x="237" y="573" type="curve"/>
			<point x="209" y="580" type="line"/>
			<point x="171" y="531"/>
			<point x="117" y="494"/>
			<point x="39" y="470" type="curve"/>
			<point x="39" y="446" type="line"/>
			<point x="114" y="440"/>
			<point x="136" y="381"/>
			<point x="136" y="312" type="curve" smooth="yes"/>
			<point x="136" y="72" type="line" smooth="yes"/>
			<point x="136" y="-96"/>
			<point x="60" y="-190"/>
		</contour>
		<component base="period" xScale="0.95" yScale="0.95" xOffset="27" yOffset="669"/>
	</outline>
</glyph>
<glyph name="k" format="2">
	<advance width="712"/>
	<unicode hex="006B"/>
	<outline>
		<contour>
			<point x="50" y="21" type="curve"/>
			<point x="54" y="-7" type="line"/>
			<point x="115" y="-2"/>
			<point x="165" y="0"/>
			<point x="197" y="0" type="curve" smooth="yes"/>
			<point x="229" y="0"/>
			<point x="289" y="-2"/>
			<point x="338" y="-7" type="curve"/>
			<point x="342" y="21" type="line"/>
			<point x="262" y="48"/>
			<point x="241" y="86"/>
			<point x="241" y="162" type="curve" smooth="yes"/>
			<point x="241" y="583" type="line" smooth="yes"/>
			<point x="241" y="659"/>
			<point x="251" y="740"/>
			<point x="282" y="817" type="curve"/>
			<point x="264" y="832" type="line"/>
			<point x="213" y="773"/>
			<point x="157" y="736"/>
			<point x="54" y="717" type="curve"/>
			<point x="54" y="693" type="line"/>
			<point x="128" y="693"/>
			<point x="151" y="629"/>
			<point x="151" y="553" type="curve" smooth="yes"/>
			<point x="151" y="162" type="line" smooth="yes"/>
			<point x="151" y="86"/>
			<point x="130" y="47"/>
		</contour>
		<contour>
			<point x="380" y="557" type="curve"/>
			<point x="376" y="535" type="line"/>
			<point x="466" y="519"/>
			<point x="474" y="445"/>
			<point x="404" y="395" type="curve" smooth="yes"/>
			<point x="231" y="270" type="line"/>
			<point x="201" y="197" type="line"/>
			<point x="459" y="388" type="line" smooth="yes"/>
			<point x="526" y="438"/>
			<point x="597" y="490"/>
			<point x="670" y="537" type="curve"/>
			<point x="666" y="557" type="line"/>
			<point x="617" y="552"/>
			<point x="564" y="550"/>
			<point x="532" y="550" type="curve" smooth="yes"/>
			<point x="500" y="550"/>
			<point x="441" y="552"/>
		</contour>
		<contour>
			<point x="425" y="373" type="curve"/>
			<point x="352" y="324" type="line"/>
			<point x="474" y="132"/>
			<point x="510" y="70"/>
			<point x="523" y="-5" type="curve"/>
			<point x="566" y="0"/>
			<point x="624" y="0"/>
			<point x="667" y="-5" type="curve"/>
			<point x="676" y="20" type="line"/>
			<point x="614" y="72"/>
			<point x="513" y="213"/>
		</contour>
	</outline>
</glyph>
<glyph name="l" format="2">
	<advance width="382"/>
	<unicode hex="006C"/>
	<anchor x="197" y="-10" name="bottom"/>
	<anchor x="197" y="400" name="center"/>
	<anchor x="197" y="800" name="top"/>
	<anchor x="390" y="800" name="topright"/>
	<outline>
		<contour>
			<point x="50" y="21" type="curve"/>
			<point x="54" y="-7" type="line"/>
			<point x="115" y="-2"/>
			<point x="165" y="0"/>
			<point x="197" y="0" type="curve" smooth="yes"/>
			<point x="229" y="0"/>
			<point x="289" y="-2"/>
			<point x="338" y="-7" type="curve"/>
			<point x="342" y="21" type="line"/>
			<point x="262" y="48"/>
			<point x="241" y="86"/>
			<point x="241" y="162" type="curve" smooth="yes"/>
			<point x="241" y="583" type="line" smooth="yes"/>
			<point x="241" y="659"/>
			<point x="251" y="740"/>
			<point x="282" y="817" type="curve"/>
			<point x="264" y="832" type="line"/>
			<point x="213" y="773"/>
			<point x="157" y="737"/>
			<point x="54" y="720" type="curve"/>
			<point x="54" y="693" type="line"/>
			<point x="128" y="693"/>
			<point x="151" y="629"/>
			<point x="151" y="553" type="curve" smooth="yes"/>
			<point x="151" y="162" type="line" smooth="yes"/>
			<point x="151" y="86"/>
			<point x="130" y="47"/>
		</contour>
	</outline>
</glyph>
<glyph name="m" format="2">
	<advance width="1072"/>
	<unicode hex="006D"/>
	<outline>
		<contour>
			<point x="760" y="21" type="curve"/>
			<point x="764" y="-7" type="line"/>
			<point x="815" y="-2"/>
			<point x="865" y="0"/>
			<point x="897" y="0" type="curve" smooth="yes"/>
			<point x="929" y="0"/>
			<point x="989" y="-2"/>
			<point x="1038" y="-7" type="curve"/>
			<point x="1042" y="21" type="line"/>
			<point x="962" y="48"/>
			<point x="941" y="86"/>
			<point x="941" y="162" type="curve" smooth="yes"/>
			<point x="941" y="331" type="line" smooth="yes"/>
			<point x="941" y="487"/>
			<point x="886" y="565"/>
			<point x="786" y="565" type="curve" smooth="yes"/>
			<point x="693" y="565"/>
			<point x="620" y="506"/>
			<point x="573" y="388" type="curve"/>
			<point x="584" y="361" type="line"/>
			<point x="625" y="427"/>
			<point x="667" y="488"/>
			<point x="746" y="488" type="curve" smooth="yes"/>
			<point x="818" y="488"/>
			<point x="851" y="435"/>
			<point x="851" y="327" type="curve" smooth="yes"/>
			<point x="851" y="162" type="line" smooth="yes"/>
			<point x="851" y="86"/>
			<point x="830" y="47"/>
		</contour>
		<contour>
			<point x="50" y="21" type="curve"/>
			<point x="54" y="-7" type="line"/>
			<point x="115" y="-2"/>
			<point x="165" y="0"/>
			<point x="197" y="0" type="curve" smooth="yes"/>
			<point x="229" y="0"/>
			<point x="289" y="-2"/>
			<point x="338" y="-7" type="curve"/>
			<point x="342" y="21" type="line"/>
			<point x="262" y="48"/>
			<point x="241" y="86"/>
			<point x="241" y="162" type="curve" smooth="yes"/>
			<point x="241" y="330" type="line" smooth="yes"/>
			<point x="241" y="396"/>
			<point x="237" y="456"/>
			<point x="252" y="554" type="curve"/>
			<point x="224" y="561" type="line"/>
			<point x="186" y="512"/>
			<point x="132" y="475"/>
			<point x="54" y="451" type="curve"/>
			<point x="54" y="427" type="line"/>
			<point x="129" y="421"/>
			<point x="151" y="362"/>
			<point x="151" y="293" type="curve" smooth="yes"/>
			<point x="151" y="162" type="line" smooth="yes"/>
			<point x="151" y="86"/>
			<point x="130" y="47"/>
		</contour>
		<contour>
			<point x="410" y="21" type="curve"/>
			<point x="414" y="-7" type="line"/>
			<point x="465" y="-2"/>
			<point x="515" y="0"/>
			<point x="547" y="0" type="curve" smooth="yes"/>
			<point x="579" y="0"/>
			<point x="639" y="-2"/>
			<point x="688" y="-7" type="curve"/>
			<point x="692" y="21" type="line"/>
			<point x="612" y="48"/>
			<point x="591" y="86"/>
			<point x="591" y="162" type="curve" smooth="yes"/>
			<point x="591" y="331" type="line" smooth="yes"/>
			<point x="591" y="487"/>
			<point x="537" y="565"/>
			<point x="438" y="565" type="curve" smooth="yes"/>
			<point x="344" y="565"/>
			<point x="272" y="506"/>
			<point x="226" y="388" type="curve"/>
			<point x="236" y="361" type="line"/>
			<point x="276" y="427"/>
			<point x="318" y="488"/>
			<point x="397" y="488" type="curve" smooth="yes"/>
			<point x="470" y="488"/>
			<point x="501" y="435"/>
			<point x="501" y="327" type="curve" smooth="yes"/>
			<point x="501" y="162" type="line" smooth="yes"/>
			<point x="501" y="86"/>
			<point x="480" y="47"/>
		</contour>
	</outline>
</glyph>
<glyph name="o" format="2">
	<advance width="622"/>
	<unicode hex="006F"/>
	<anchor x="323" y="0" name="bottom"/>
	<anchor x="323" y="275" name="center"/>
	<anchor x="581" y="10" name="ogonek"/>
	<anchor x="323" y="565" name="top"/>
	<anchor x="626" y="550" name="topright"/>
	<outline>
		<contour>
			<point x="311" y="-15" type="curve" smooth="yes"/>
			<point x="468" y="-15"/>
			<point x="597" y="115"/>
			<point x="597" y="276" type="curve" smooth="yes"/>
			<point x="597" y="443"/>
			<point x="468" y="565"/>
			<point x="311" y="565" type="curve" smooth="yes"/>
			<point x="153" y="565"/>
			<point x="25" y="436"/>
			<point x="25" y="276" type="curve" smooth="yes"/>
			<point x="25" y="108"/>
			<point x="153" y="-15"/>
		</contour>
		<contour>
			<point x="398" y="41" type="curve" smooth="yes"/>
			<point x="313" y="11"/>
			<point x="201" y="79"/>
			<point x="149" y="215" type="curve" smooth="yes"/>
			<point x="98" y="350"/>
			<point x="135" y="477"/>
			<point x="222" y="508" type="curve" smooth="yes"/>
			<point x="308" y="537"/>
			<point x="421" y="471"/>
			<point x="472" y="337" type="curve" smooth="yes"/>
			<point x="524" y="200"/>
			<point x="486" y="71"/>
		</contour>
	</outline>
</glyph>
<glyph name="p" format="2">
	<advance width="688"/>
	<unicode hex="0070"/>
	<outline>
		<contour>
			<point x="20" y="-226" type="curve"/>
			<point x="24" y="-254" type="line"/>
			<point x="75" y="-252"/>
			<point x="131" y="-250"/>
			<point x="163" y="-250" type="curve" smooth="yes"/>
			<point x="195" y="-250"/>
			<point x="271" y="-252"/>
			<point x="350" y="-257" type="curve"/>
			<point x="354" y="-229" type="line"/>
			<point x="224" y="-200"/>
			<point x="214" y="-164"/>
			<point x="214" y="-88" type="curve" smooth="yes"/>
			<point x="214" y="328" type="line"/>
			<point x="193" y="566" type="line"/>
			<point x="168" y="568" type="line"/>
			<point x="147" y="509"/>
			<point x="116" y="475"/>
			<point x="27" y="465" type="curve"/>
			<point x="27" y="438" type="line"/>
			<point x="101" y="438"/>
			<point x="124" y="374"/>
			<point x="124" y="298" type="curve" smooth="yes"/>
			<point x="124" y="-88" type="line" smooth="yes"/>
			<point x="124" y="-164"/>
			<point x="90" y="-203"/>
		</contour>
		<contour>
			<point x="426" y="27" type="curve" smooth="yes"/>
			<point x="323" y="23"/>
			<point x="237" y="124"/>
			<point x="218" y="272" type="curve" smooth="yes"/>
			<point x="202" y="398"/>
			<point x="248" y="495"/>
			<point x="330" y="507" type="curve" smooth="yes"/>
			<point x="435" y="522"/>
			<point x="523" y="430"/>
			<point x="544" y="283" type="curve" smooth="yes"/>
			<point x="563" y="137"/>
			<point x="514" y="31"/>
		</contour>
		<contour>
			<point x="404" y="-15" type="curve" smooth="yes"/>
			<point x="553" y="-15"/>
			<point x="663" y="112"/>
			<point x="663" y="274" type="curve" smooth="yes"/>
			<point x="663" y="437"/>
			<point x="546" y="565"/>
			<point x="397" y="565" type="curve" smooth="yes"/>
			<point x="220" y="565"/>
			<point x="161" y="435"/>
			<point x="161" y="274" type="curve" smooth="yes"/>
			<point x="161" y="107"/>
			<point x="227" y="-15"/>
		</contour>
	</outline>
</glyph>
<glyph name="q" format="2">
	<advance width="689"/>
	<unicode hex="0071"/>
	<outline>
		<contour>
			<point x="291" y="-15" type="curve" smooth="yes"/>
			<point x="468" y="-15"/>
			<point x="527" y="115"/>
			<point x="527" y="276" type="curve" smooth="yes"/>
			<point x="527" y="443"/>
			<point x="461" y="565"/>
			<point x="284" y="565" type="curve" smooth="yes"/>
			<point x="135" y="565"/>
			<point x="25" y="438"/>
			<point x="25" y="276" type="curve" smooth="yes"/>
			<point x="25" y="113"/>
			<point x="142" y="-15"/>
		</contour>
		<contour>
			<point x="352" y="45" type="curve" smooth="yes"/>
			<point x="240" y="41"/>
			<point x="157" y="154"/>
			<point x="144" y="291" type="curve" smooth="yes"/>
			<point x="131" y="428"/>
			<point x="181" y="514"/>
			<point x="256" y="525" type="curve" smooth="yes"/>
			<point x="362" y="540"/>
			<point x="448" y="455"/>
			<point x="470" y="301" type="curve" smooth="yes"/>
			<point x="488" y="162"/>
			<point x="452" y="49"/>
		</contour>
		<contour>
			<point x="335" y="-229" type="curve"/>
			<point x="339" y="-257" type="line"/>
			<point x="418" y="-252"/>
			<point x="494" y="-250"/>
			<point x="526" y="-250" type="curve" smooth="yes"/>
			<point x="558" y="-250"/>
			<point x="614" y="-252"/>
			<point x="665" y="-254" type="curve"/>
			<point x="669" y="-226" type="line"/>
			<point x="599" y="-203"/>
			<point x="565" y="-164"/>
			<point x="565" y="-88" type="curve" smooth="yes"/>
			<point x="565" y="268" type="line" smooth="yes"/>
			<point x="565" y="394"/>
			<point x="573" y="473"/>
			<point x="583" y="550" type="curve"/>
			<point x="549" y="550" type="line"/>
			<point x="475" y="448" type="line"/>
			<point x="475" y="-88" type="line" smooth="yes"/>
			<point x="475" y="-164"/>
			<point x="465" y="-200"/>
		</contour>
	</outline>
</glyph>
<glyph name="r" format="2">
	<advance width="522"/>
	<unicode hex="0072"/>
	<anchor x="250" y="0" name="bottom"/>
	<anchor x="347" y="565" name="top"/>
	<outline>
		<contour>
			<point x="50" y="21" type="curve"/>
			<point x="54" y="-7" type="line"/>
			<point x="115" y="-2"/>
			<point x="165" y="0"/>
			<point x="197" y="0" type="curve" smooth="yes"/>
			<point x="229" y="0"/>
			<point x="289" y="-2"/>
			<point x="338" y="-7" type="curve"/>
			<point x="342" y="21" type="line"/>
			<point x="262" y="48"/>
			<point x="241" y="86"/>
			<point x="241" y="162" type="curve" smooth="yes"/>
			<point x="241" y="330" type="line" smooth="yes"/>
			<point x="241" y="396"/>
			<point x="237" y="456"/>
			<point x="252" y="554" type="curve"/>
			<point x="224" y="561" type="line"/>
			<point x="186" y="512"/>
			<point x="132" y="475"/>
			<point x="54" y="451" type="curve"/>
			<point x="54" y="427" type="line"/>
			<point x="129" y="421"/>
			<point x="151" y="362"/>
			<point x="151" y="293" type="curve" smooth="yes"/>
			<point x="151" y="162" type="line" smooth="yes"/>
			<point x="151" y="86"/>
			<point x="130" y="47"/>
		</contour>
		<contour>
			<point x="219" y="333" type="curve"/>
			<point x="241" y="322" type="line"/>
			<point x="241" y="403"/>
			<point x="290" y="460"/>
			<point x="350" y="460" type="curve" smooth="yes"/>
			<point x="405" y="460"/>
			<point x="450" y="426"/>
			<point x="464" y="349" type="curve"/>
			<point x="486" y="355" type="line"/>
			<point x="485" y="405"/>
			<point x="485" y="474"/>
			<point x="497" y="544" type="curve"/>
			<point x="418" y="575"/>
			<point x="253" y="557"/>
		</contour>
	</outline>
</glyph>
<glyph name="s" format="2">
	<advance width="536"/>
	<unicode hex="0073"/>
	<anchor x="268" y="0" name="bottom"/>
	<anchor x="268" y="550" name="top"/>
	<outline>
		<contour>
			<point x="80" y="214" type="curve"/>
			<point x="60" y="208" type="line"/>
			<point x="71" y="154"/>
			<point x="60" y="63"/>
			<point x="50" y="20" type="curve"/>
			<point x="131" y="-4"/>
			<point x="198" y="-10"/>
			<point x="270" y="-10" type="curve" smooth="yes"/>
			<point x="421" y="-10"/>
			<point x="486" y="46"/>
			<point x="486" y="142" type="curve" smooth="yes"/>
			<point x="486" y="219"/>
			<point x="441" y="269"/>
			<point x="301" y="329" type="curve" smooth="yes"/>
			<point x="208" y="369"/>
			<point x="159" y="403"/>
			<point x="159" y="445" type="curve" smooth="yes"/>
			<point x="159" y="496"/>
			<point x="203" y="520"/>
			<point x="255" y="520" type="curve" smooth="yes"/>
			<point x="322" y="520"/>
			<point x="394" y="477"/>
			<point x="430" y="361" type="curve"/>
			<point x="452" y="366" type="line"/>
			<point x="445" y="426"/>
			<point x="446" y="480"/>
			<point x="450" y="541" type="curve"/>
			<point x="372" y="541"/>
			<point x="344" y="560"/>
			<point x="272" y="560" type="curve" smooth="yes"/>
			<point x="164" y="560"/>
			<point x="68" y="513"/>
			<point x="68" y="411" type="curve" smooth="yes"/>
			<point x="68" y="339"/>
			<point x="120" y="287"/>
			<point x="241" y="238" type="curve" smooth="yes"/>
			<point x="352" y="194"/>
			<point x="398" y="152"/>
			<point x="398" y="105" type="curve" smooth="yes"/>
			<point x="398" y="56"/>
			<point x="349" y="30"/>
			<point x="292" y="30" type="curve" smooth="yes"/>
			<point x="198" y="30"/>
			<point x="129" y="77"/>
		</contour>
	</outline>
</glyph>
<glyph name="t" format="2">
	<advance width="507"/>
	<unicode hex="0074"/>
	<anchor x="308" y="-24" name="bottom"/>
	<anchor x="287" y="261" name="center"/>
	<anchor x="254" y="653" name="top"/>
	<anchor x="539" y="536" name="topright"/>
	<outline>
		<contour>
			<point x="274" y="-15" type="curve" smooth="yes"/>
			<point x="357" y="-15"/>
			<point x="449" y="48"/>
			<point x="502" y="166" type="curve"/>
			<point x="480" y="179" type="line"/>
			<point x="436" y="113"/>
			<point x="388" y="62"/>
			<point x="320" y="62" type="curve" smooth="yes"/>
			<point x="238" y="62"/>
			<point x="197" y="115"/>
			<point x="197" y="233" type="curve" smooth="yes"/>
			<point x="197" y="426"/>
			<point x="197" y="544"/>
			<point x="208" y="686" type="curve"/>
			<point x="184" y="690" type="line"/>
			<point x="139" y="590"/>
			<point x="100" y="550"/>
			<point x="10" y="529" type="curve"/>
			<point x="10" y="502" type="line"/>
			<point x="85" y="496"/>
			<point x="107" y="463"/>
			<point x="107" y="354" type="curve" smooth="yes"/>
			<point x="107" y="204" type="line" smooth="yes"/>
			<point x="107" y="48"/>
			<point x="162" y="-15"/>
		</contour>
		<contour>
			<point x="445" y="480" type="line"/>
			<point x="486" y="536" type="line"/>
			<point x="477" y="550" type="line"/>
			<point x="139" y="536" type="line"/>
			<point x="130" y="496" type="line"/>
		</contour>
	</outline>
</glyph>
<glyph name="u" format="2">
	<advance width="665"/>
	<unicode hex="0075"/>
	<anchor x="320" y="0" name="bottom"/>
	<anchor x="632" y="10" name="ogonek"/>
	<anchor x="330" y="550" name="top"/>
	<anchor x="690" y="550" name="topright"/>
	<outline>
		<contour>
			<point x="264" y="-15" type="curve" smooth="yes"/>
			<point x="347" y="-15"/>
			<point x="434" y="59"/>
			<point x="487" y="177" type="curve"/>
			<point x="476" y="197" type="line"/>
			<point x="431" y="131"/>
			<point x="378" y="62"/>
			<point x="310" y="62" type="curve" smooth="yes"/>
			<point x="228" y="62"/>
			<point x="187" y="123"/>
			<point x="187" y="231" type="curve" smooth="yes"/>
			<point x="187" y="301" type="line" smooth="yes"/>
			<point x="187" y="407"/>
			<point x="187" y="477"/>
			<point x="198" y="562" type="curve"/>
			<point x="181" y="569" type="line"/>
			<point x="136" y="523"/>
			<point x="90" y="493"/>
			<point x="10" y="472" type="curve"/>
			<point x="10" y="452" type="line"/>
			<point x="75" y="446"/>
			<point x="97" y="406"/>
			<point x="97" y="297" type="curve" smooth="yes"/>
			<point x="97" y="227" type="line" smooth="yes"/>
			<point x="97" y="71"/>
			<point x="152" y="-15"/>
		</contour>
		<contour>
			<point x="501" y="-9" type="curve"/>
			<point x="645" y="35" type="line"/>
			<point x="645" y="58" type="line"/>
			<point x="585" y="84"/>
			<point x="552" y="144"/>
			<point x="552" y="253" type="curve" smooth="yes"/>
			<point x="552" y="301" type="line" smooth="yes"/>
			<point x="552" y="407"/>
			<point x="552" y="477"/>
			<point x="563" y="562" type="curve"/>
			<point x="546" y="569" type="line"/>
			<point x="501" y="523"/>
			<point x="460" y="493"/>
			<point x="370" y="472" type="curve"/>
			<point x="370" y="452" type="line"/>
			<point x="445" y="446"/>
			<point x="467" y="406"/>
			<point x="467" y="297" type="curve" smooth="yes"/>
			<point x="467" y="164" type="line" smooth="yes"/>
			<point x="467" y="103"/>
			<point x="478" y="20"/>
		</contour>
	</outline>
</glyph>
<glyph name="v" format="2">
	<advance width="617"/>
	<unicode hex="0076"/>
	<anchor x="309" y="0" name="bottom"/>
	<anchor x="309" y="550" name="top"/>
	<outline>
		<contour>
			<point x="-26" y="550" type="curve"/>
			<point x="-30" y="522" type="line"/>
			<point x="46" y="496"/>
			<point x="85" y="446"/>
			<point x="124" y="364" type="curve" smooth="yes"/>
			<point x="306" y="-15" type="line"/>
			<point x="327" y="-15" type="line"/>
			<point x="503" y="372" type="line" smooth="yes"/>
			<point x="536" y="445"/>
			<point x="567" y="485"/>
			<point x="647" y="522" type="curve"/>
			<point x="643" y="550" type="line"/>
			<point x="594" y="545"/>
			<point x="538" y="543"/>
			<point x="506" y="543" type="curve" smooth="yes"/>
			<point x="474" y="543"/>
			<point x="455" y="545"/>
			<point x="404" y="550" type="curve"/>
			<point x="400" y="522" type="line"/>
			<point x="480" y="508"/>
			<point x="496" y="453"/>
			<point x="466" y="388" type="curve" smooth="yes"/>
			<point x="326" y="82" type="line"/>
			<point x="355" y="114" type="line"/>
			<point x="227" y="382" type="line" smooth="yes"/>
			<point x="194" y="451"/>
			<point x="184" y="508"/>
			<point x="255" y="522" type="curve"/>
			<point x="251" y="550" type="line"/>
			<point x="192" y="545"/>
			<point x="155" y="543"/>
			<point x="123" y="543" type="curve" smooth="yes"/>
			<point x="91" y="543"/>
			<point x="35" y="545"/>
		</contour>
	</outline>
</glyph>
<glyph name="w" format="2">
	<advance width="887"/>
	<unicode hex="0077"/>
	<anchor x="436" y="0" name="bottom"/>
	<anchor x="470" y="550" name="top"/>
	<outline>
		<contour>
			<point x="-26" y="550" type="curve"/>
			<point x="-30" y="522" type="line"/>
			<point x="46" y="496"/>
			<point x="81" y="448"/>
			<point x="117" y="364" type="curve" smooth="yes"/>
			<point x="279" y="-15" type="line"/>
			<point x="300" y="-15" type="line"/>
			<point x="451" y="411" type="line"/>
			<point x="438" y="404" type="line"/>
			<point x="619" y="-15" type="line"/>
			<point x="638" y="-15" type="line"/>
			<point x="773" y="372" type="line" smooth="yes"/>
			<point x="799" y="447"/>
			<point x="837" y="485"/>
			<point x="917" y="522" type="curve"/>
			<point x="913" y="550" type="line"/>
			<point x="864" y="545"/>
			<point x="808" y="543"/>
			<point x="776" y="543" type="curve" smooth="yes"/>
			<point x="744" y="543"/>
			<point x="725" y="545"/>
			<point x="674" y="550" type="curve"/>
			<point x="670" y="522" type="line"/>
			<point x="750" y="508"/>
			<point x="759" y="455"/>
			<point x="736" y="388" type="curve" smooth="yes"/>
			<point x="639" y="106" type="line"/>
			<point x="670" y="118" type="line"/>
			<point x="480" y="559" type="line"/>
			<point x="459" y="559" type="line"/>
			<point x="310" y="131" type="line"/>
			<point x="330" y="120" type="line"/>
			<point x="218" y="382" type="line" smooth="yes"/>
			<point x="188" y="452"/>
			<point x="184" y="508"/>
			<point x="255" y="522" type="curve"/>
			<point x="251" y="550" type="line"/>
			<point x="192" y="545"/>
			<point x="155" y="543"/>
			<point x="123" y="543" type="curve" smooth="yes"/>
			<point x="91" y="543"/>
			<point x="35" y="545"/>
		</contour>
	</outline>
</glyph>
<glyph name="x" format="2">
	<advance width="650"/>
	<unicode hex="0078"/>
	<outline>
		<contour>
			<point x="10" y="21" type="curve"/>
			<point x="14" y="-7" type="line"/>
			<point x="63" y="-2"/>
			<point x="98" y="0"/>
			<point x="130" y="0" type="curve" smooth="yes"/>
			<point x="162" y="0"/>
			<point x="198" y="-2"/>
			<point x="249" y="-7" type="curve"/>
			<point x="253" y="21" type="line"/>
			<point x="173" y="35"/>
			<point x="169" y="65"/>
			<point x="216" y="121" type="curve" smooth="yes"/>
			<point x="417" y="360" type="line" smooth="yes"/>
			<point x="474" y="427"/>
			<point x="536" y="485"/>
			<point x="616" y="522" type="curve"/>
			<point x="612" y="550" type="line"/>
			<point x="563" y="545"/>
			<point x="507" y="543"/>
			<point x="475" y="543" type="curve" smooth="yes"/>
			<point x="443" y="543"/>
			<point x="428" y="545"/>
			<point x="377" y="550" type="curve"/>
			<point x="373" y="522" type="line"/>
			<point x="453" y="508"/>
			<point x="450" y="461"/>
			<point x="392" y="392" type="curve" smooth="yes"/>
			<point x="191" y="153" type="line" smooth="yes"/>
			<point x="145" y="99"/>
			<point x="90" y="58"/>
		</contour>
		<contour>
			<point x="335" y="21" type="curve"/>
			<point x="339" y="-7" type="line"/>
			<point x="398" y="-2"/>
			<point x="455" y="0"/>
			<point x="487" y="0" type="curve" smooth="yes"/>
			<point x="519" y="0"/>
			<point x="575" y="-2"/>
			<point x="636" y="-7" type="curve"/>
			<point x="640" y="21" type="line"/>
			<point x="560" y="47"/>
			<point x="512" y="99"/>
			<point x="474" y="152" type="curve" smooth="yes"/>
			<point x="297" y="399" type="line" smooth="yes"/>
			<point x="251" y="464"/>
			<point x="213" y="505"/>
			<point x="303" y="522" type="curve"/>
			<point x="299" y="550" type="line"/>
			<point x="240" y="545"/>
			<point x="164" y="543"/>
			<point x="132" y="543" type="curve" smooth="yes"/>
			<point x="100" y="543"/>
			<point x="73" y="545"/>
			<point x="12" y="550" type="curve"/>
			<point x="8" y="522" type="line"/>
			<point x="88" y="496"/>
			<point x="153" y="434"/>
			<point x="194" y="376" type="curve" smooth="yes"/>
			<point x="371" y="129" type="line" smooth="yes"/>
			<point x="413" y="70"/>
			<point x="425" y="28"/>
		</contour>
	</outline>
</glyph>
<glyph name="y" format="2">
	<advance width="612"/>
	<unicode hex="0079"/>
	<anchor x="302" y="0" name="bottom"/>
	<anchor x="332" y="550" name="top"/>
	<outline>
		<contour>
			<point x="2" y="-100" type="curve"/>
			<point x="-9" y="-119" type="line"/>
			<point x="56" y="-153"/>
			<point x="110" y="-197"/>
			<point x="153" y="-250" type="curve"/>
			<point x="175" y="-250" type="line"/>
			<point x="502" y="371" type="line" smooth="yes"/>
			<point x="531" y="427"/>
			<point x="562" y="485"/>
			<point x="642" y="522" type="curve"/>
			<point x="638" y="550" type="line"/>
			<point x="589" y="545"/>
			<point x="533" y="543"/>
			<point x="501" y="543" type="curve" smooth="yes"/>
			<point x="469" y="543"/>
			<point x="433" y="545"/>
			<point x="382" y="550" type="curve"/>
			<point x="378" y="522" type="line"/>
			<point x="458" y="508"/>
			<point x="500" y="458"/>
			<point x="463" y="387" type="curve" smooth="yes"/>
			<point x="263" y="0" type="line" smooth="yes"/>
			<point x="210" y="-103"/>
			<point x="116" y="-129"/>
		</contour>
		<contour>
			<point x="126" y="372" type="curve" smooth="yes"/>
			<point x="296" y="32" type="line"/>
			<point x="353" y="135" type="line"/>
			<point x="233" y="384" type="line" smooth="yes"/>
			<point x="196" y="462"/>
			<point x="209" y="505"/>
			<point x="299" y="522" type="curve"/>
			<point x="295" y="550" type="line"/>
			<point x="236" y="545"/>
			<point x="160" y="543"/>
			<point x="128" y="543" type="curve" smooth="yes"/>
			<point x="96" y="543"/>
			<point x="40" y="545"/>
			<point x="-21" y="550" type="curve"/>
			<point x="-25" y="522" type="line"/>
			<point x="55" y="486"/>
			<point x="92" y="440"/>
		</contour>
	</outline>
</glyph>
<glyph name="z" format="2">
	<advance width="582"/>
	<unicode hex="007A"/>
	<anchor x="251" y="0" name="bottom"/>
	<anchor x="271" y="550" name="top"/>
	<outline>
		<contour>
			<point x="41" y="0" type="line"/>
			<point x="540" y="0" type="line"/>
			<point x="552" y="13" type="line"/>
			<point x="536" y="60"/>
			<point x="527" y="141"/>
			<point x="529" y="230" type="curve"/>
			<point x="507" y="232" type="line"/>
			<point x="467" y="77"/>
			<point x="394" y="40"/>
			<point x="266" y="40" type="curve" smooth="yes"/>
			<point x="146" y="40" type="line"/>
			<point x="146" y="14" type="line"/>
			<point x="536" y="526" type="line"/>
			<point x="532" y="550" type="line"/>
			<point x="329" y="550" type="line" smooth="yes"/>
			<point x="189" y="550"/>
			<point x="120" y="555"/>
			<point x="68" y="574" type="curve"/>
			<point x="52" y="565" type="line"/>
			<point x="76" y="485"/>
			<point x="84" y="415"/>
			<point x="79" y="337" type="curve"/>
			<point x="101" y="335" type="line"/>
			<point x="137" y="480"/>
			<point x="188" y="510"/>
			<point x="300" y="510" type="curve" smooth="yes"/>
			<point x="422" y="510" type="line"/>
			<point x="425" y="537" type="line"/>
			<point x="32" y="21" type="line"/>
		</contour>
	</outline>
</glyph>
<glyph name="braceleft" format="2">
	<advance width="377"/>
	<unicode hex="007B"/>
	<anchor x="319" y="500" name="_top"/>
	<anchor x="319" y="765" name="top"/>
	<outline>
		<contour>
			<point x="357" y="791" type="curve"/>
			<point x="357" y="826" type="line"/>
			<point x="191" y="826"/>
			<point x="99" y="738"/>
			<point x="121" y="602" type="curve" smooth="yes"/>
			<point x="141" y="476" type="line" smooth="yes"/>
			<point x="155" y="389"/>
			<point x="119" y="332"/>
			<point x="50" y="332" type="curve"/>
			<point x="50" y="303" type="line"/>
			<point x="185" y="303"/>
			<point x="260" y="380"/>
			<point x="241" y="500" type="curve" smooth="yes"/>
			<point x="221" y="622" type="line" smooth="yes"/>
			<point x="205" y="725"/>
			<point x="259" y="791"/>
		</contour>
		<contour>
			<point x="357" y="-192" type="curve"/>
			<point x="357" y="-157" type="line"/>
			<point x="259" y="-157"/>
			<point x="205" y="-91"/>
			<point x="221" y="12" type="curve" smooth="yes"/>
			<point x="241" y="134" type="line" smooth="yes"/>
			<point x="260" y="254"/>
			<point x="185" y="331"/>
			<point x="50" y="331" type="curve"/>
			<point x="50" y="302" type="line"/>
			<point x="119" y="302"/>
			<point x="155" y="245"/>
			<point x="141" y="158" type="curve" smooth="yes"/>
			<point x="121" y="32" type="line" smooth="yes"/>
			<point x="99" y="-104"/>
			<point x="191" y="-192"/>
		</contour>
	</outline>
</glyph>
<glyph name="bar" format="2">
	<advance width="260"/>
	<unicode hex="007C"/>
	<outline>
		<contour>
			<point x="160" y="-164" type="line"/>
			<point x="160" y="745" type="line"/>
			<point x="100" y="745" type="line"/>
			<point x="100" y="-166" type="line"/>
		</contour>
	</outline>
</glyph>
<glyph name="cent" format="2">
	<advance width="556"/>
	<unicode hex="00A2"/>
	<anchor x="274" y="101" name="bottom"/>
	<anchor x="290" y="651" name="top"/>
	<outline>
		<component base="c" yScale="0.9498" yOffset="112"/>
		<contour>
			<point x="325" y="-42" type="line"/>
			<point x="325" y="800" type="line"/>
			<point x="265" y="800" type="line"/>
			<point x="265" y="-44" type="line"/>
		</contour>
	</outline>
</glyph>
<glyph name="sterling" format="2">
	<advance width="694"/>
	<unicode hex="00A3"/>
	<anchor x="648" y="0" name="bottom"/>
	<anchor x="648" y="373" name="center"/>
	<anchor x="516" y="745" name="top"/>
	<anchor x="1000" y="745" name="topright"/>
	<outline>
		<contour>
			<point x="40" y="21" type="curve"/>
			<point x="44" y="-7" type="line"/>
			<point x="105" y="-2"/>
			<point x="155" y="0"/>
			<point x="348" y="0" type="curve" smooth="yes"/>
			<point x="504" y="0"/>
			<point x="582" y="-2"/>
			<point x="640" y="-6" type="curve"/>
			<point x="654" y="317" type="line"/>
			<point x="626" y="317" type="line"/>
			<point x="589" y="128"/>
			<point x="514" y="40"/>
			<point x="355" y="40" type="curve" smooth="yes"/>
			<point x="181" y="40" type="line"/>
			<point x="271" y="122" type="line" smooth="yes"/>
			<point x="381" y="222"/>
			<point x="378" y="326"/>
			<point x="313" y="410" type="curve" smooth="yes"/>
			<point x="258" y="480"/>
			<point x="191" y="534"/>
			<point x="191" y="612" type="curve" smooth="yes"/>
			<point x="191" y="676"/>
			<point x="261" y="720"/>
			<point x="335" y="720" type="curve" smooth="yes"/>
			<point x="425" y="720"/>
			<point x="526" y="661"/>
			<point x="575" y="493" type="curve"/>
			<point x="598" y="498" type="line"/>
			<point x="589" y="579"/>
			<point x="588" y="652"/>
			<point x="596" y="734" type="curve"/>
			<point x="468" y="734"/>
			<point x="445" y="760"/>
			<point x="348" y="760" type="curve" smooth="yes"/>
			<point x="228" y="760"/>
			<point x="103" y="697"/>
			<point x="103" y="572" type="curve" smooth="yes"/>
			<point x="103" y="475"/>
			<point x="148" y="426"/>
			<point x="215" y="344" type="curve" smooth="yes"/>
			<point x="303" y="236"/>
			<point x="239" y="115"/>
		</contour>
		<contour>
			<point x="60" y="330" type="line"/>
			<point x="538" y="330" type="line"/>
			<point x="538" y="380" type="line"/>
			<point x="60" y="380" type="line"/>
		</contour>
	</outline>
</glyph>
<glyph name="yen" format="2">
	<advance width="775"/>
	<unicode hex="00A5"/>
	<anchor x="359" y="0" name="bottom"/>
	<anchor x="389" y="745" name="top"/>
	<anchor x="-5" y="745" name="topleft"/>
	<outline>
		<contour>
			<point x="4" y="754" type="curve"/>
			<point x="0" y="726" type="line"/>
			<point x="79" y="691"/>
			<point x="132" y="643"/>
			<point x="177" y="584" type="curve" smooth="yes"/>
			<point x="388" y="306" type="line"/>
			<point x="407" y="306" type="line"/>
			<point x="612" y="571" type="line" smooth="yes"/>
			<point x="664" y="638"/>
			<point x="711" y="694"/>
			<point x="775" y="726" type="curve"/>
			<point x="770" y="754" type="line"/>
			<point x="708" y="749"/>
			<point x="664" y="747"/>
			<point x="631" y="747" type="curve" smooth="yes"/>
			<point x="597" y="747"/>
			<point x="558" y="749"/>
			<point x="505" y="754" type="curve"/>
			<point x="501" y="725" type="line"/>
			<point x="585" y="710"/>
			<point x="626" y="657"/>
			<point x="576" y="591" type="curve" smooth="yes"/>
			<point x="426" y="395" type="line"/>
			<point x="283" y="585" type="line" smooth="yes"/>
			<point x="233" y="652"/>
			<point x="247" y="711"/>
			<point x="364" y="725" type="curve"/>
			<point x="361" y="754" type="line"/>
			<point x="268" y="749"/>
			<point x="188" y="747"/>
			<point x="154" y="747" type="curve" smooth="yes"/>
			<point x="121" y="747"/>
			<point x="69" y="749"/>
		</contour>
		<contour>
			<point x="237" y="21" type="curve"/>
			<point x="241" y="-7" type="line"/>
			<point x="322" y="-2"/>
			<point x="372" y="0"/>
			<point x="404" y="0" type="curve" smooth="yes"/>
			<point x="436" y="0"/>
			<point x="496" y="-2"/>
			<point x="565" y="-7" type="curve"/>
			<point x="569" y="21" type="line"/>
			<point x="469" y="48"/>
			<point x="448" y="86"/>
			<point x="448" y="162" type="curve" smooth="yes"/>
			<point x="448" y="373" type="line"/>
			<point x="358" y="373" type="line"/>
			<point x="358" y="162" type="line" smooth="yes"/>
			<point x="358" y="86"/>
			<point x="337" y="47"/>
		</contour>
		<contour>
			<point x="163" y="309" type="line"/>
			<point x="641" y="309" type="line"/>
			<point x="641" y="359" type="line"/>
			<point x="163" y="359" type="line"/>
		</contour>
		<contour>
			<point x="163" y="181" type="line"/>
			<point x="641" y="181" type="line"/>
			<point x="641" y="231" type="line"/>
			<point x="163" y="231" type="line"/>
		</contour>
	</outline>
</glyph>
<glyph name="brokenbar" format="2">
	<advance width="260"/>
	<unicode hex="00A6"/>
	<outline>
		<contour>
			<point x="160" y="370" type="line"/>
			<point x="160" y="745" type="line"/>
			<point x="100" y="745" type="line"/>
			<point x="100" y="370" type="line"/>
		</contour>
		<contour>
			<point x="160" y="-165" type="line"/>
			<point x="160" y="210" type="line"/>
			<point x="100" y="210" type="line"/>
			<point x="100" y="-165" type="line"/>
		</contour>
	</outline>
</glyph>
<glyph name="section" format="2">
	<advance width="671"/>
	<unicode hex="00A7"/>
	<anchor x="309" y="-5" name="bottom"/>
	<anchor x="323" y="374" name="top"/>
	<outline>
		<contour>
			<point x="419" y="243" type="curve"/>
			<point x="438" y="217" type="line"/>
			<point x="559" y="234"/>
			<point x="611" y="292"/>
			<point x="611" y="356" type="curve" smooth="yes"/>
			<point x="611" y="428"/>
			<point x="544" y="479"/>
			<point x="370" y="534" type="curve" smooth="yes"/>
			<point x="225" y="580"/>
			<point x="178" y="608"/>
			<point x="178" y="648" type="curve" smooth="yes"/>
			<point x="178" y="693"/>
			<point x="228" y="720"/>
			<point x="302" y="720" type="curve" smooth="yes"/>
			<point x="392" y="720"/>
			<point x="482" y="680"/>
			<point x="531" y="541" type="curve"/>
			<point x="554" y="544" type="line"/>
			<point x="545" y="622"/>
			<point x="544" y="673"/>
			<point x="552" y="732" type="curve"/>
			<point x="454" y="732"/>
			<point x="407" y="760"/>
			<point x="300" y="760" type="curve" smooth="yes"/>
			<point x="190" y="760"/>
			<point x="90" y="708"/>
			<point x="90" y="620" type="curve" smooth="yes"/>
			<point x="90" y="551"/>
			<point x="135" y="496"/>
			<point x="291" y="449" type="curve" smooth="yes"/>
			<point x="460" y="397"/>
			<point x="525" y="359"/>
			<point x="525" y="315" type="curve" smooth="yes"/>
			<point x="525" y="270"/>
			<point x="486" y="253"/>
		</contour>
		<contour>
			<point x="249" y="492" type="curve"/>
			<point x="219" y="515" type="line"/>
			<point x="136" y="497"/>
			<point x="60" y="436"/>
			<point x="60" y="372" type="curve" smooth="yes"/>
			<point x="60" y="303"/>
			<point x="135" y="243"/>
			<point x="291" y="196" type="curve" smooth="yes"/>
			<point x="460" y="144"/>
			<point x="515" y="128"/>
			<point x="515" y="84" type="curve" smooth="yes"/>
			<point x="515" y="45"/>
			<point x="463" y="25"/>
			<point x="391" y="25" type="curve" smooth="yes"/>
			<point x="296" y="25"/>
			<point x="192" y="77"/>
			<point x="121" y="215" type="curve"/>
			<point x="96" y="209" type="line"/>
			<point x="110" y="162"/>
			<point x="106" y="75"/>
			<point x="83" y="33" type="curve"/>
			<point x="170" y="6"/>
			<point x="246" y="-15"/>
			<point x="373" y="-15" type="curve" smooth="yes"/>
			<point x="509" y="-15"/>
			<point x="601" y="31"/>
			<point x="601" y="111" type="curve" smooth="yes"/>
			<point x="601" y="183"/>
			<point x="544" y="225"/>
			<point x="370" y="280" type="curve" smooth="yes"/>
			<point x="225" y="326"/>
			<point x="148" y="365"/>
			<point x="148" y="410" type="curve" smooth="yes"/>
			<point x="148" y="454"/>
			<point x="198" y="481"/>
		</contour>
	</outline>
</glyph>
<glyph name="copyright" format="2">
	<advance width="855"/>
	<unicode hex="00A9"/>
	<anchor x="426" y="-45" name="bottom"/>
	<anchor x="426" y="357" name="center"/>
	<anchor x="805" y="-29" name="ogonek"/>
	<anchor x="426" y="761" name="top"/>
	<anchor x="870" y="761" name="topright"/>
	<outline>
		<contour>
			<point x="426" y="-9" type="curve" smooth="yes"/>
			<point x="635" y="-9"/>
			<point x="805" y="155"/>
			<point x="805" y="360" type="curve" smooth="yes"/>
			<point x="805" y="571"/>
			<point x="635" y="726"/>
			<point x="426" y="726" type="curve" smooth="yes"/>
			<point x="218" y="726"/>
			<point x="50" y="562"/>
			<point x="50" y="360" type="curve" smooth="yes"/>
			<point x="50" y="145"/>
			<point x="218" y="-9"/>
		</contour>
		<contour>
			<point x="426" y="37" type="curve" smooth="yes"/>
			<point x="243" y="37"/>
			<point x="96" y="171"/>
			<point x="96" y="360" type="curve" smooth="yes"/>
			<point x="96" y="536"/>
			<point x="243" y="682"/>
			<point x="426" y="682" type="curve" smooth="yes"/>
			<point x="610" y="682"/>
			<point x="759" y="544"/>
			<point x="759" y="360" type="curve" smooth="yes"/>
			<point x="759" y="179"/>
			<point x="610" y="37"/>
		</contour>
		<component base="c" xScale="-0.6156" yScale="0.6156" xOffset="613" yOffset="188"/>
	</outline>
</glyph>
<glyph name="ordfeminine" format="2">
	<advance width="340"/>
	<unicode hex="00AA"/>
	<anchor x="165" y="527" name="bottom"/>
	<anchor x="295" y="532" name="ogonek"/>
	<anchor x="165" y="802" name="top"/>
	<outline>
		<contour>
			<point x="27" y="733" type="curve"/>
			<point x="39" y="704" type="line"/>
			<point x="107" y="742"/>
			<point x="187" y="736"/>
			<point x="203" y="634" type="curve" smooth="yes"/>
			<point x="228" y="471" type="line"/>
			<point x="326" y="471" type="line"/>
			<point x="330" y="503" type="line"/>
			<point x="263" y="554"/>
			<point x="234" y="686"/>
			<point x="307" y="738" type="curve"/>
			<point x="289" y="766" type="line"/>
			<point x="264" y="760"/>
			<point x="222" y="737"/>
			<point x="191" y="721" type="curve"/>
			<point x="260" y="677" type="line"/>
			<point x="237" y="751"/>
			<point x="183" y="773"/>
			<point x="130" y="773" type="curve" smooth="yes"/>
			<point x="90" y="773"/>
			<point x="51" y="759"/>
		</contour>
		<contour>
			<point x="203" y="682" type="curve"/>
			<point x="190" y="721" type="line"/>
			<point x="19" y="622"/>
			<point x="-2" y="512"/>
			<point x="37" y="475" type="curve" smooth="yes"/>
			<point x="68" y="446"/>
			<point x="188" y="457"/>
			<point x="226" y="585" type="curve"/>
			<point x="191" y="678" type="line"/>
			<point x="211" y="618"/>
			<point x="193" y="585"/>
			<point x="182" y="571" type="curve" smooth="yes"/>
			<point x="157" y="539"/>
			<point x="122" y="526"/>
			<point x="104" y="541" type="curve" smooth="yes"/>
			<point x="87" y="556"/>
			<point x="99" y="599"/>
			<point x="134" y="632" type="curve" smooth="yes"/>
			<point x="155" y="652"/>
			<point x="181" y="669"/>
		</contour>
	</outline>
</glyph>
<glyph name="logicalnot" format="2">
	<advance width="541"/>
	<unicode hex="00AC"/>
	<outline>
		<contour>
			<point x="80" y="390" type="line"/>
			<point x="458" y="393" type="line"/>
			<point x="458" y="453" type="line"/>
			<point x="80" y="450" type="line"/>
		</contour>
		<contour>
			<point x="461" y="215" type="line"/>
			<point x="458" y="453" type="line"/>
			<point x="398" y="453" type="line"/>
			<point x="401" y="214" type="line"/>
		</contour>
	</outline>
</glyph>
<glyph name="degree" format="2">
	<advance width="388"/>
	<unicode hex="00B0"/>
	<outline>
		<contour>
			<point x="194" y="442" type="curve" smooth="yes"/>
			<point x="283" y="442"/>
			<point x="358" y="513"/>
			<point x="358" y="601" type="curve" smooth="yes"/>
			<point x="358" y="693"/>
			<point x="283" y="760"/>
			<point x="194" y="760" type="curve" smooth="yes"/>
			<point x="102" y="760"/>
			<point x="30" y="689"/>
			<point x="30" y="601" type="curve" smooth="yes"/>
			<point x="30" y="508"/>
			<point x="102" y="442"/>
		</contour>
		<contour>
			<point x="194" y="493" type="curve" smooth="yes"/>
			<point x="132" y="493"/>
			<point x="83" y="538"/>
			<point x="83" y="601" type="curve" smooth="yes"/>
			<point x="83" y="659"/>
			<point x="132" y="708"/>
			<point x="194" y="708" type="curve" smooth="yes"/>
			<point x="253" y="708"/>
			<point x="305" y="663"/>
			<point x="305" y="601" type="curve" smooth="yes"/>
			<point x="305" y="542"/>
			<point x="253" y="493"/>
		</contour>
	</outline>
</glyph>
<glyph name="plusminus" format="2">
	<advance width="538"/>
	<unicode hex="00B1"/>
	<outline>
		<contour>
			<point x="80" y="390" type="line"/>
			<point x="458" y="393" type="line"/>
			<point x="458" y="453" type="line"/>
			<point x="80" y="450" type="line"/>
		</contour>
		<contour>
			<point x="300" y="293" type="line"/>
			<point x="297" y="551" type="line"/>
			<point x="237" y="551" type="line"/>
			<point x="240" y="292" type="line"/>
		</contour>
		<contour>
			<point x="80" y="171" type="line"/>
			<point x="458" y="174" type="line"/>
			<point x="458" y="234" type="line"/>
			<point x="80" y="231" type="line"/>
		</contour>
	</outline>
</glyph>
<glyph name="uni00B2" format="2">
	<advance width="343"/>
	<unicode hex="00B2"/>
	<anchor x="155" y="526" name="bottom"/>
	<anchor x="189" y="901" name="top"/>
	<outline>
		<contour>
			<point x="16" y="526" type="line"/>
			<point x="320" y="526" type="line"/>
			<point x="328" y="548" type="line"/>
			<point x="319" y="580"/>
			<point x="311" y="612"/>
			<point x="310" y="671" type="curve"/>
			<point x="285" y="671" type="line"/>
			<point x="270" y="577"/>
			<point x="231" y="569"/>
			<point x="149" y="567" type="curve" smooth="yes"/>
			<point x="46" y="565" type="line"/>
			<point x="73" y="542" type="line"/>
			<point x="178" y="629" type="line" smooth="yes"/>
			<point x="255" y="693"/>
			<point x="294" y="749"/>
			<point x="294" y="802" type="curve" smooth="yes"/>
			<point x="294" y="864"/>
			<point x="251" y="909"/>
			<point x="169" y="909" type="curve" smooth="yes"/>
			<point x="91" y="909"/>
			<point x="39" y="855"/>
			<point x="29" y="775" type="curve"/>
			<point x="55" y="771" type="line"/>
			<point x="69" y="820"/>
			<point x="107" y="852"/>
			<point x="152" y="852" type="curve" smooth="yes"/>
			<point x="188" y="852"/>
			<point x="212" y="831"/>
			<point x="212" y="799" type="curve" smooth="yes"/>
			<point x="212" y="767"/>
			<point x="184" y="720"/>
			<point x="140" y="677" type="curve" smooth="yes"/>
			<point x="10" y="550" type="line"/>
		</contour>
	</outline>
</glyph>
<glyph name="uni00B3" format="2">
	<advance width="363"/>
	<unicode hex="00B3"/>
	<outline>
		<contour>
			<point x="183" y="517" type="curve" smooth="yes"/>
			<point x="265" y="517"/>
			<point x="335" y="569"/>
			<point x="335" y="643" type="curve" smooth="yes"/>
			<point x="335" y="691"/>
			<point x="295" y="728"/>
			<point x="220" y="733" type="curve"/>
			<point x="220" y="735" type="line"/>
			<point x="279" y="751"/>
			<point x="317" y="789"/>
			<point x="317" y="834" type="curve" smooth="yes"/>
			<point x="317" y="879"/>
			<point x="266" y="908"/>
			<point x="188" y="908" type="curve" smooth="yes"/>
			<point x="125" y="908"/>
			<point x="102" y="882"/>
			<point x="65" y="903" type="curve"/>
			<point x="47" y="893" type="line"/>
			<point x="56" y="855"/>
			<point x="65" y="810"/>
			<point x="63" y="768" type="curve"/>
			<point x="91" y="763" type="line"/>
			<point x="113" y="841"/>
			<point x="143" y="870"/>
			<point x="185" y="870" type="curve" smooth="yes"/>
			<point x="217" y="870"/>
			<point x="235" y="850"/>
			<point x="235" y="826" type="curve" smooth="yes"/>
			<point x="235" y="803"/>
			<point x="206" y="760"/>
			<point x="111" y="729" type="curve"/>
			<point x="118" y="696" type="line"/>
			<point x="135" y="700"/>
			<point x="151" y="701"/>
			<point x="177" y="701" type="curve" smooth="yes"/>
			<point x="222" y="701"/>
			<point x="251" y="677"/>
			<point x="251" y="640" type="curve" smooth="yes"/>
			<point x="251" y="597"/>
			<point x="217" y="569"/>
			<point x="168" y="569" type="curve" smooth="yes"/>
			<point x="116" y="569"/>
			<point x="76" y="600"/>
			<point x="51" y="639" type="curve"/>
			<point x="28" y="621" type="line"/>
			<point x="42" y="578"/>
			<point x="93" y="517"/>
		</contour>
	</outline>
</glyph>
<glyph name="paragraph" format="2">
	<advance width="704"/>
	<unicode hex="00B6"/>
	<anchor x="746" y="0" name="bottom"/>
	<anchor x="955" y="10" name="ogonek"/>
	<anchor x="746" y="745" name="top"/>
	<anchor x="505" y="745" name="topleft"/>
	<outline>
		<contour>
			<point x="398" y="0" type="curve"/>
			<point x="398" y="745" type="line"/>
			<point x="350" y="746" type="line" smooth="yes"/>
			<point x="164" y="750"/>
			<point x="60" y="673"/>
			<point x="60" y="532" type="curve" smooth="yes"/>
			<point x="60" y="383"/>
			<point x="163" y="302"/>
			<point x="348" y="304" type="curve"/>
			<point x="338" y="335" type="line"/>
			<point x="338" y="162" type="line" smooth="yes"/>
			<point x="338" y="86"/>
			<point x="317" y="48"/>
			<point x="217" y="21" type="curve"/>
			<point x="221" y="-7" type="line"/>
			<point x="290" y="-2"/>
			<point x="330" y="0"/>
		</contour>
		<contour>
			<point x="453" y="745" type="curve"/>
			<point x="453" y="0" type="line"/>
			<point x="501" y="0"/>
			<point x="561" y="-2"/>
			<point x="610" y="-7" type="curve"/>
			<point x="614" y="21" type="line"/>
			<point x="534" y="48"/>
			<point x="513" y="86"/>
			<point x="513" y="162" type="curve" smooth="yes"/>
			<point x="513" y="583" type="line" smooth="yes"/>
			<point x="513" y="659"/>
			<point x="534" y="697"/>
			<point x="614" y="724" type="curve"/>
			<point x="610" y="752" type="line"/>
			<point x="561" y="747"/>
			<point x="501" y="745"/>
		</contour>
	</outline>
</glyph>
<glyph name="uni00B9" format="2">
	<advance width="313"/>
	<unicode hex="00B9"/>
	<outline>
		<contour>
			<point x="23" y="556" type="curve"/>
			<point x="25" y="526" type="line"/>
			<point x="99" y="528"/>
			<point x="146" y="529"/>
			<point x="161" y="529" type="curve" smooth="yes"/>
			<point x="177" y="529"/>
			<point x="223" y="528"/>
			<point x="291" y="526" type="curve"/>
			<point x="293" y="556" type="line"/>
			<point x="213" y="566"/>
			<point x="197" y="584"/>
			<point x="197" y="632" type="curve" smooth="yes"/>
			<point x="197" y="788" type="line" smooth="yes"/>
			<point x="197" y="821"/>
			<point x="200" y="855"/>
			<point x="206" y="903" type="curve"/>
			<point x="174" y="907" type="line"/>
			<point x="134" y="852"/>
			<point x="94" y="815"/>
			<point x="20" y="774" type="curve"/>
			<point x="29" y="752" type="line"/>
			<point x="159" y="788" type="line"/>
			<point x="124" y="834" type="line"/>
			<point x="124" y="632" type="line" smooth="yes"/>
			<point x="124" y="584"/>
			<point x="107" y="566"/>
		</contour>
	</outline>
</glyph>
<glyph name="ordmasculine" format="2">
	<advance width="342"/>
	<unicode hex="00BA"/>
	<anchor x="164" y="530" name="bottom"/>
	<anchor x="164" y="668" name="center"/>
	<anchor x="293" y="535" name="ogonek"/>
	<anchor x="164" y="805" name="top"/>
	<anchor x="315" y="805" name="topright"/>
	<outline>
		<contour>
			<point x="171" y="459" type="curve" smooth="yes"/>
			<point x="259" y="459"/>
			<point x="333" y="530"/>
			<point x="333" y="617" type="curve" smooth="yes"/>
			<point x="333" y="707"/>
			<point x="259" y="774"/>
			<point x="171" y="774" type="curve" smooth="yes"/>
			<point x="81" y="774"/>
			<point x="9" y="703"/>
			<point x="9" y="617" type="curve" smooth="yes"/>
			<point x="9" y="526"/>
			<point x="81" y="459"/>
		</contour>
		<contour>
			<point x="230" y="513" type="curve" smooth="yes"/>
			<point x="196" y="492"/>
			<point x="144" y="520"/>
			<point x="109" y="581" type="curve" smooth="yes"/>
			<point x="76" y="638"/>
			<point x="77" y="700"/>
			<point x="111" y="720" type="curve" smooth="yes"/>
			<point x="146" y="741"/>
			<point x="198" y="714"/>
			<point x="232" y="652" type="curve" smooth="yes"/>
			<point x="266" y="595"/>
			<point x="265" y="533"/>
		</contour>
	</outline>
</glyph>
<glyph name="AE" format="2">
	<advance width="1215"/>
	<unicode hex="00C6"/>
	<outline>
		<contour>
			<point x="462" y="577" type="curve"/>
			<point x="438" y="620" type="line"/>
			<point x="341" y="568"/>
			<point x="249" y="501"/>
			<point x="181" y="435" type="curve" smooth="yes"/>
			<point x="-10" y="243"/>
			<point x="-5" y="58"/>
			<point x="61" y="9" type="curve" smooth="yes"/>
			<point x="150" y="-55"/>
			<point x="437" y="10"/>
			<point x="519" y="338" type="curve"/>
			<point x="480" y="456" type="line"/>
			<point x="494" y="350"/>
			<point x="454" y="275"/>
			<point x="402" y="207" type="curve" smooth="yes"/>
			<point x="328" y="111"/>
			<point x="214" y="50"/>
			<point x="150" y="93" type="curve" smooth="yes"/>
			<point x="88" y="134"/>
			<point x="130" y="298"/>
			<point x="224" y="397" type="curve" smooth="yes"/>
			<point x="281" y="458"/>
			<point x="367" y="522"/>
		</contour>
		<component base="E" xOffset="452"/>
		<contour>
			<point x="508" y="258" type="curve"/>
			<point x="568" y="377" type="line"/>
			<point x="566" y="422"/>
			<point x="569" y="467"/>
			<point x="579" y="510" type="curve"/>
			<point x="510" y="620" type="line"/>
			<point x="482" y="608"/>
			<point x="469" y="636"/>
			<point x="438" y="620" type="curve"/>
			<point x="550" y="557" type="line"/>
			<point x="510" y="690"/>
			<point x="428" y="753"/>
			<point x="293" y="753" type="curve" smooth="yes"/>
			<point x="192" y="753"/>
			<point x="118" y="722"/>
			<point x="48" y="669" type="curve"/>
			<point x="62" y="641" type="line"/>
			<point x="293" y="753"/>
			<point x="448" y="678"/>
			<point x="480" y="456" type="curve" smooth="yes"/>
			<point x="492" y="375"/>
			<point x="501" y="311"/>
		</contour>
	</outline>
</glyph>
<glyph name="Eth" format="2">
	<advance width="942"/>
	<unicode hex="00D0"/>
	<outline>
		<component base="D"/>
		<contour>
			<point x="62" y="353" type="line"/>
			<point x="503" y="353" type="line"/>
			<point x="503" y="403" type="line"/>
			<point x="61" y="403" type="line"/>
		</contour>
	</outline>
</glyph>
<glyph name="multiply" format="2">
	<advance width="555"/>
	<unicode hex="00D7"/>
	<outline>
		<contour>
			<point x="124" y="173" type="line"/>
			<point x="475" y="528" type="line"/>
			<point x="432" y="571" type="line"/>
			<point x="80" y="215" type="line"/>
		</contour>
		<contour>
			<point x="431" y="173" type="line"/>
			<point x="475" y="215" type="line"/>
			<point x="123" y="571" type="line"/>
			<point x="80" y="528" type="line"/>
		</contour>
	</outline>
</glyph>
<glyph name="Oslash" format="2">
	<advance width="824"/>
	<unicode hex="00D8"/>
	<outline>
		<component base="O"/>
		<contour>
			<point x="116" y="0" type="line"/>
			<point x="767" y="745" type="line"/>
			<point x="700" y="745" type="line"/>
			<point x="49" y="0" type="line"/>
		</contour>
	</outline>
</glyph>
<glyph name="Thorn" format="2">
	<advance width="639"/>
	<unicode hex="00DE"/>
	<anchor x="181" y="0" name="bottom"/>
	<anchor x="390" y="10" name="ogonek"/>
	<anchor x="181" y="745" name="top"/>
	<anchor x="-60" y="745" name="topleft"/>
	<outline>
		<contour>
			<point x="60" y="21" type="curve"/>
			<point x="64" y="-7" type="line"/>
			<point x="125" y="-2"/>
			<point x="175" y="0"/>
			<point x="207" y="0" type="curve" smooth="yes"/>
			<point x="239" y="0"/>
			<point x="299" y="-2"/>
			<point x="348" y="-7" type="curve"/>
			<point x="352" y="21" type="line"/>
			<point x="272" y="48"/>
			<point x="251" y="86"/>
			<point x="251" y="162" type="curve" smooth="yes"/>
			<point x="251" y="583" type="line" smooth="yes"/>
			<point x="251" y="659"/>
			<point x="272" y="697"/>
			<point x="352" y="724" type="curve"/>
			<point x="348" y="752" type="line"/>
			<point x="299" y="747"/>
			<point x="239" y="745"/>
			<point x="207" y="745" type="curve" smooth="yes"/>
			<point x="175" y="745"/>
			<point x="125" y="747"/>
			<point x="64" y="752" type="curve"/>
			<point x="60" y="724" type="line"/>
			<point x="140" y="698"/>
			<point x="161" y="659"/>
			<point x="161" y="583" type="curve" smooth="yes"/>
			<point x="161" y="162" type="line" smooth="yes"/>
			<point x="161" y="86"/>
			<point x="140" y="47"/>
		</contour>
		<contour>
			<point x="293" y="584" type="curve" smooth="yes"/>
			<point x="238" y="579" type="line"/>
			<point x="238" y="540" type="line"/>
			<point x="293" y="545" type="line" smooth="yes"/>
			<point x="433" y="558"/>
			<point x="499" y="488"/>
			<point x="499" y="378" type="curve" smooth="yes"/>
			<point x="499" y="268"/>
			<point x="433" y="198"/>
			<point x="293" y="211" type="curve" smooth="yes"/>
			<point x="238" y="216" type="line"/>
			<point x="238" y="177" type="line"/>
			<point x="293" y="172" type="line" smooth="yes"/>
			<point x="514" y="152"/>
			<point x="619" y="242"/>
			<point x="619" y="378" type="curve" smooth="yes"/>
			<point x="619" y="514"/>
			<point x="514" y="604"/>
		</contour>
	</outline>
</glyph>
<glyph name="germandbls" format="2">
	<advance width="714"/>
	<unicode hex="00DF"/>
	<anchor x="657" y="0" name="bottom"/>
	<anchor x="671" y="550" name="top"/>
	<outline>
		<contour>
			<point x="40" y="24" type="curve"/>
			<point x="44" y="-4" type="line"/>
			<point x="95" y="-2"/>
			<point x="195" y="0"/>
			<point x="248" y="0" type="curve"/>
			<point x="239" y="50"/>
			<point x="234" y="86"/>
			<point x="234" y="162" type="curve" smooth="yes"/>
			<point x="234" y="577" type="line" smooth="yes"/>
			<point x="234" y="655"/>
			<point x="255" y="763"/>
			<point x="373" y="763" type="curve" smooth="yes"/>
			<point x="438" y="763"/>
			<point x="484" y="732"/>
			<point x="484" y="677" type="curve" smooth="yes"/>
			<point x="484" y="629"/>
			<point x="463" y="582"/>
			<point x="425" y="546" type="curve" smooth="yes"/>
			<point x="369" y="494"/>
			<point x="333" y="458"/>
			<point x="333" y="415" type="curve" smooth="yes"/>
			<point x="333" y="354"/>
			<point x="390" y="310"/>
			<point x="471" y="261" type="curve" smooth="yes"/>
			<point x="558" y="208"/>
			<point x="589" y="165"/>
			<point x="589" y="115" type="curve" smooth="yes"/>
			<point x="589" y="63"/>
			<point x="554" y="30"/>
			<point x="500" y="30" type="curve" smooth="yes"/>
			<point x="440" y="30"/>
			<point x="389" y="77"/>
			<point x="352" y="214" type="curve"/>
			<point x="337" y="208" type="line"/>
			<point x="346" y="154"/>
			<point x="337" y="63"/>
			<point x="330" y="20" type="curve"/>
			<point x="390" y="-4"/>
			<point x="440" y="-10"/>
			<point x="494" y="-10" type="curve" smooth="yes"/>
			<point x="609" y="-10"/>
			<point x="684" y="50"/>
			<point x="684" y="142" type="curve" smooth="yes"/>
			<point x="684" y="225"/>
			<point x="635" y="293"/>
			<point x="533" y="353" type="curve" smooth="yes"/>
			<point x="443" y="405"/>
			<point x="426" y="435"/>
			<point x="426" y="459" type="curve" smooth="yes"/>
			<point x="426" y="481"/>
			<point x="441" y="501"/>
			<point x="471" y="519" type="curve" smooth="yes"/>
			<point x="528" y="553"/>
			<point x="584" y="591"/>
			<point x="584" y="670" type="curve" smooth="yes"/>
			<point x="584" y="760"/>
			<point x="474" y="810"/>
			<point x="385" y="810" type="curve" smooth="yes"/>
			<point x="247" y="810"/>
			<point x="161" y="715"/>
			<point x="146" y="605" type="curve" smooth="yes"/>
			<point x="137" y="538"/>
			<point x="129" y="499"/>
			<point x="45" y="492" type="curve"/>
			<point x="45" y="465" type="line"/>
			<point x="115" y="465"/>
			<point x="144" y="435"/>
			<point x="144" y="310" type="curve" smooth="yes"/>
			<point x="144" y="162" type="line" smooth="yes"/>
			<point x="144" y="86"/>
			<point x="110" y="47"/>
		</contour>
	</outline>
</glyph>
<glyph name="ae" format="2">
	<advance width="930"/>
	<unicode hex="00E6"/>
	<anchor x="335" y="0" name="bottom"/>
	<anchor x="595" y="10" name="ogonek"/>
	<anchor x="335" y="550" name="top"/>
	<outline>
		<contour>
			<point x="60" y="498" type="curve"/>
			<point x="66" y="478" type="line"/>
			<point x="226" y="526"/>
			<point x="361" y="522"/>
			<point x="390" y="325" type="curve"/>
			<point x="414" y="323"/>
			<point x="418" y="227"/>
			<point x="431" y="239" type="curve"/>
			<point x="469" y="430" type="line"/>
			<point x="410" y="529"/>
			<point x="348" y="565"/>
			<point x="246" y="565" type="curve" smooth="yes"/>
			<point x="169" y="565"/>
			<point x="113" y="538"/>
		</contour>
		<contour>
			<point x="390" y="427" type="curve"/>
			<point x="357" y="467" type="line"/>
			<point x="28" y="276"/>
			<point x="3" y="55"/>
			<point x="70" y="7" type="curve" smooth="yes"/>
			<point x="137" y="-41"/>
			<point x="358" y="-8"/>
			<point x="431" y="239" type="curve"/>
			<point x="371" y="402" type="line"/>
			<point x="408" y="281"/>
			<point x="382" y="204"/>
			<point x="342" y="152" type="curve" smooth="yes"/>
			<point x="286" y="79"/>
			<point x="201" y="60"/>
			<point x="163" y="95" type="curve" smooth="yes"/>
			<point x="123" y="133"/>
			<point x="144" y="228"/>
			<point x="218" y="302" type="curve" smooth="yes"/>
			<point x="279" y="363"/>
			<point x="342" y="402"/>
		</contour>
		<component base="e" xOffset="364"/>
	</outline>
</glyph>
<glyph name="eth" format="2">
	<advance width="640"/>
	<unicode hex="00F0"/>
	<anchor x="313" y="0" name="bottom"/>
	<anchor x="313" y="275" name="center"/>
	<anchor x="571" y="10" name="ogonek"/>
	<anchor x="313" y="550" name="top"/>
	<anchor x="616" y="550" name="topright"/>
	<outline>
		<contour>
			<point x="311" y="-15" type="curve" smooth="yes"/>
			<point x="468" y="-15"/>
			<point x="597" y="105"/>
			<point x="597" y="336" type="curve" smooth="yes"/>
			<point x="597" y="625"/>
			<point x="410" y="766"/>
			<point x="275" y="815" type="curve"/>
			<point x="270" y="791" type="line"/>
			<point x="367" y="740"/>
			<point x="450" y="647"/>
			<point x="496" y="458" type="curve"/>
			<point x="510" y="466" type="line"/>
			<point x="451" y="537"/>
			<point x="381" y="565"/>
			<point x="311" y="565" type="curve" smooth="yes"/>
			<point x="153" y="565"/>
			<point x="25" y="436"/>
			<point x="25" y="276" type="curve" smooth="yes"/>
			<point x="25" y="108"/>
			<point x="153" y="-15"/>
		</contour>
		<contour>
			<point x="230" y="599" type="line"/>
			<point x="610" y="702" type="line"/>
			<point x="610" y="752" type="line"/>
			<point x="229" y="649" type="line"/>
		</contour>
		<contour>
			<point x="398" y="41" type="curve" smooth="yes"/>
			<point x="313" y="11"/>
			<point x="201" y="79"/>
			<point x="149" y="215" type="curve" smooth="yes"/>
			<point x="98" y="350"/>
			<point x="135" y="477"/>
			<point x="222" y="508" type="curve" smooth="yes"/>
			<point x="308" y="537"/>
			<point x="421" y="471"/>
			<point x="472" y="337" type="curve" smooth="yes"/>
			<point x="524" y="200"/>
			<point x="486" y="71"/>
		</contour>
	</outline>
</glyph>
<glyph name="divide" format="2">
	<advance width="619"/>
	<unicode hex="00F7"/>
	<anchor x="183" y="550" name="_top"/>
	<anchor x="183" y="815" name="top"/>
	<outline>
		<contour>
			<point x="51" y="340" type="line"/>
			<point x="569" y="343" type="line"/>
			<point x="569" y="403" type="line"/>
			<point x="50" y="400" type="line"/>
		</contour>
		<contour>
			<point x="310" y="113" type="curve" smooth="yes"/>
			<point x="345" y="113"/>
			<point x="373" y="142"/>
			<point x="373" y="177" type="curve" smooth="yes"/>
			<point x="373" y="212"/>
			<point x="345" y="241"/>
			<point x="310" y="241" type="curve" smooth="yes"/>
			<point x="274" y="241"/>
			<point x="246" y="212"/>
			<point x="246" y="177" type="curve" smooth="yes"/>
			<point x="246" y="142"/>
			<point x="274" y="113"/>
		</contour>
		<contour>
			<point x="310" y="522" type="curve" smooth="yes"/>
			<point x="345" y="522"/>
			<point x="373" y="551"/>
			<point x="373" y="586" type="curve" smooth="yes"/>
			<point x="373" y="621"/>
			<point x="345" y="650"/>
			<point x="310" y="650" type="curve" smooth="yes"/>
			<point x="274" y="650"/>
			<point x="246" y="621"/>
			<point x="246" y="586" type="curve" smooth="yes"/>
			<point x="246" y="551"/>
			<point x="274" y="522"/>
		</contour>
	</outline>
</glyph>
<glyph name="oslash" format="2">
	<advance width="622"/>
	<unicode hex="00F8"/>
	<outline>
		<component base="o"/>
		<contour>
			<point x="101" y="0" type="line"/>
			<point x="585" y="550" type="line"/>
			<point x="518" y="550" type="line"/>
			<point x="34" y="0" type="line"/>
		</contour>
	</outline>
</glyph>
<glyph name="thorn" format="2">
	<advance width="718"/>
	<unicode hex="00FE"/>
	<outline>
		<contour>
			<point x="434" y="-15" type="curve" smooth="yes"/>
			<point x="583" y="-15"/>
			<point x="693" y="112"/>
			<point x="693" y="274" type="curve" smooth="yes"/>
			<point x="693" y="437"/>
			<point x="576" y="565"/>
			<point x="427" y="565" type="curve" smooth="yes"/>
			<point x="340" y="565"/>
			<point x="281" y="533"/>
			<point x="244" y="482" type="curve"/>
			<point x="244" y="583" type="line" smooth="yes"/>
			<point x="244" y="659"/>
			<point x="254" y="740"/>
			<point x="285" y="817" type="curve"/>
			<point x="267" y="832" type="line"/>
			<point x="216" y="773"/>
			<point x="160" y="737"/>
			<point x="57" y="720" type="curve"/>
			<point x="57" y="693" type="line"/>
			<point x="131" y="693"/>
			<point x="154" y="629"/>
			<point x="154" y="553" type="curve" smooth="yes"/>
			<point x="154" y="-88" type="line" smooth="yes"/>
			<point x="154" y="-164"/>
			<point x="120" y="-203"/>
			<point x="50" y="-226" type="curve"/>
			<point x="54" y="-254" type="line"/>
			<point x="105" y="-252"/>
			<point x="161" y="-250"/>
			<point x="193" y="-250" type="curve" smooth="yes"/>
			<point x="225" y="-250"/>
			<point x="301" y="-252"/>
			<point x="380" y="-257" type="curve"/>
			<point x="384" y="-229" type="line"/>
			<point x="254" y="-200"/>
			<point x="244" y="-164"/>
			<point x="244" y="-88" type="curve" smooth="yes"/>
			<point x="244" y="70" type="line"/>
			<point x="283" y="17"/>
			<point x="344" y="-15"/>
		</contour>
		<contour>
			<point x="248" y="272" type="curve" smooth="yes"/>
			<point x="232" y="398"/>
			<point x="278" y="495"/>
			<point x="360" y="507" type="curve" smooth="yes"/>
			<point x="465" y="522"/>
			<point x="553" y="430"/>
			<point x="574" y="283" type="curve" smooth="yes"/>
			<point x="593" y="137"/>
			<point x="544" y="31"/>
			<point x="456" y="27" type="curve" smooth="yes"/>
			<point x="353" y="23"/>
			<point x="267" y="124"/>
		</contour>
	</outline>
</glyph>
<glyph name="Aogonek" format="2">
	<advance width="721"/>
	<unicode hex="0104"/>
	<outline>
		<component base="A"/>
		<contour>
			<point x="559" y="-192" type="curve" smooth="yes"/>
			<point x="630" y="-192"/>
			<point x="678" y="-131"/>
			<point x="695" y="-102" type="curve"/>
			<point x="678" y="-85" type="line"/>
			<point x="646" y="-115"/>
			<point x="615" y="-131"/>
			<point x="590" y="-131" type="curve" smooth="yes"/>
			<point x="551" y="-131"/>
			<point x="527" y="-109"/>
			<point x="527" y="-78" type="curve" smooth="yes"/>
			<point x="527" y="-44"/>
			<point x="551" y="0"/>
			<point x="628" y="0" type="curve"/>
			<point x="574" y="15" type="line"/>
			<point x="536" y="11"/>
			<point x="466" y="-42"/>
			<point x="465" y="-101" type="curve" smooth="yes"/>
			<point x="464" y="-148"/>
			<point x="501" y="-192"/>
		</contour>
	</outline>
</glyph>
<glyph name="aogonek" format="2">
	<advance width="627"/>
	<unicode hex="0105"/>
	<outline>
		<component base="a"/>
		<contour>
			<point x="439" y="-192" type="curve" smooth="yes"/>
			<point x="510" y="-192"/>
			<point x="558" y="-131"/>
			<point x="575" y="-102" type="curve"/>
			<point x="558" y="-85" type="line"/>
			<point x="526" y="-115"/>
			<point x="495" y="-131"/>
			<point x="470" y="-131" type="curve" smooth="yes"/>
			<point x="431" y="-131"/>
			<point x="407" y="-109"/>
			<point x="407" y="-78" type="curve" smooth="yes"/>
			<point x="407" y="-44"/>
			<point x="431" y="0"/>
			<point x="508" y="0" type="curve"/>
			<point x="454" y="15" type="line"/>
			<point x="416" y="11"/>
			<point x="346" y="-42"/>
			<point x="345" y="-101" type="curve" smooth="yes"/>
			<point x="344" y="-148"/>
			<point x="381" y="-192"/>
		</contour>
	</outline>
</glyph>
<glyph name="dcroat" format="2">
	<advance width="714"/>
	<unicode hex="0111"/>
	<outline>
		<contour>
			<point x="291" y="-15" type="curve" smooth="yes"/>
			<point x="468" y="-15"/>
			<point x="527" y="115"/>
			<point x="527" y="276" type="curve" smooth="yes"/>
			<point x="527" y="443"/>
			<point x="461" y="565"/>
			<point x="284" y="565" type="curve" smooth="yes"/>
			<point x="135" y="565"/>
			<point x="25" y="438"/>
			<point x="25" y="276" type="curve" smooth="yes"/>
			<point x="25" y="113"/>
			<point x="142" y="-15"/>
		</contour>
		<contour>
			<point x="352" y="45" type="curve" smooth="yes"/>
			<point x="240" y="41"/>
			<point x="157" y="154"/>
			<point x="144" y="291" type="curve" smooth="yes"/>
			<point x="131" y="428"/>
			<point x="181" y="514"/>
			<point x="256" y="525" type="curve" smooth="yes"/>
			<point x="362" y="540"/>
			<point x="448" y="455"/>
			<point x="470" y="301" type="curve" smooth="yes"/>
			<point x="488" y="162"/>
			<point x="452" y="49"/>
		</contour>
		<contour>
			<point x="660" y="-4" type="curve"/>
			<point x="664" y="26" type="line"/>
			<point x="584" y="63"/>
			<point x="563" y="126"/>
			<point x="563" y="282" type="curve" smooth="yes"/>
			<point x="563" y="456" type="line" smooth="yes"/>
			<point x="563" y="662"/>
			<point x="566" y="719"/>
			<point x="606" y="818" type="curve"/>
			<point x="586" y="832" type="line"/>
			<point x="535" y="773"/>
			<point x="479" y="770"/>
			<point x="376" y="770" type="curve"/>
			<point x="376" y="743" type="line"/>
			<point x="450" y="743"/>
			<point x="473" y="711"/>
			<point x="473" y="502" type="curve"/>
			<point x="476" y="182" type="line"/>
			<point x="476" y="123" type="line"/>
			<point x="488" y="-2" type="line"/>
			<point x="546" y="0"/>
			<point x="611" y="1"/>
		</contour>
		<contour>
			<point x="283" y="600" type="line"/>
			<point x="663" y="603" type="line"/>
			<point x="663" y="653" type="line"/>
			<point x="282" y="650" type="line"/>
		</contour>
	</outline>
</glyph>
<glyph name="Eogonek" format="2">
	<advance width="763"/>
	<unicode hex="0118"/>
	<outline>
		<component base="E"/>
		<contour>
			<point x="601" y="-182" type="curve" smooth="yes"/>
			<point x="672" y="-182"/>
			<point x="720" y="-121"/>
			<point x="737" y="-92" type="curve"/>
			<point x="720" y="-75" type="line"/>
			<point x="688" y="-105"/>
			<point x="657" y="-121"/>
			<point x="632" y="-121" type="curve" smooth="yes"/>
			<point x="593" y="-121"/>
			<point x="569" y="-99"/>
			<point x="569" y="-68" type="curve" smooth="yes"/>
			<point x="569" y="-34"/>
			<point x="589" y="20"/>
			<point x="650" y="89" type="curve"/>
			<point x="644" y="100" type="line"/>
			<point x="572" y="20"/>
			<point x="508" y="-32"/>
			<point x="507" y="-91" type="curve" smooth="yes"/>
			<point x="506" y="-138"/>
			<point x="543" y="-182"/>
		</contour>
	</outline>
</glyph>
<glyph name="eogonek" format="2">
	<advance width="566"/>
	<unicode hex="0119"/>
	<outline>
		<contour>
			<point x="394" y="-192" type="curve" smooth="yes"/>
			<point x="465" y="-192"/>
			<point x="513" y="-131"/>
			<point x="530" y="-102" type="curve"/>
			<point x="513" y="-85" type="line"/>
			<point x="481" y="-115"/>
			<point x="450" y="-131"/>
			<point x="425" y="-131" type="curve" smooth="yes"/>
			<point x="386" y="-131"/>
			<point x="362" y="-109"/>
			<point x="362" y="-78" type="curve" smooth="yes"/>
			<point x="362" y="-44"/>
			<point x="382" y="-3"/>
			<point x="430" y="34" type="curve"/>
			<point x="423" y="44" type="line"/>
			<point x="375" y="10"/>
			<point x="301" y="-42"/>
			<point x="300" y="-101" type="curve" smooth="yes"/>
			<point x="299" y="-148"/>
			<point x="336" y="-192"/>
		</contour>
		<component base="e"/>
	</outline>
</glyph>
<glyph name="Hbar" format="2">
	<advance width="953"/>
	<unicode hex="0126"/>
	<outline>
		<component base="H"/>
		<contour>
			<point x="97" y="516" type="line"/>
			<point x="872" y="516" type="line"/>
			<point x="872" y="566" type="line"/>
			<point x="96" y="566" type="line"/>
		</contour>
	</outline>
</glyph>
<glyph name="hbar" format="2">
	<advance width="762"/>
	<unicode hex="0127"/>
	<anchor x="214" y="362" name="_top"/>
	<anchor x="214" y="627" name="top"/>
	<outline>
		<component base="h"/>
		<contour>
			<point x="32" y="407" type="line"/>
			<point x="363" y="618" type="line"/>
			<point x="365" y="686" type="line"/>
			<point x="32" y="474" type="line"/>
		</contour>
	</outline>
</glyph>
<glyph name="Iogonek" format="2">
	<advance width="412"/>
	<unicode hex="012E"/>
	<outline>
		<component base="I"/>
		<contour>
			<point x="214" y="-192" type="curve" smooth="yes"/>
			<point x="285" y="-192"/>
			<point x="333" y="-131"/>
			<point x="350" y="-102" type="curve"/>
			<point x="333" y="-85" type="line"/>
			<point x="301" y="-115"/>
			<point x="270" y="-131"/>
			<point x="245" y="-131" type="curve" smooth="yes"/>
			<point x="206" y="-131"/>
			<point x="182" y="-109"/>
			<point x="182" y="-78" type="curve" smooth="yes"/>
			<point x="182" y="-44"/>
			<point x="206" y="2"/>
			<point x="255" y="-1" type="curve"/>
			<point x="229" y="15" type="line"/>
			<point x="191" y="11"/>
			<point x="121" y="-42"/>
			<point x="120" y="-101" type="curve" smooth="yes"/>
			<point x="119" y="-148"/>
			<point x="156" y="-192"/>
		</contour>
	</outline>
</glyph>
<glyph name="iogonek" format="2">
	<advance width="372"/>
	<unicode hex="012F"/>
	<outline>
		<component base="dotlessi"/>
		<component base="period" xScale="0.9573" yScale="0.9573" xOffset="42" yOffset="645"/>
		<contour>
			<point x="202" y="-192" type="curve" smooth="yes"/>
			<point x="273" y="-192"/>
			<point x="321" y="-131"/>
			<point x="338" y="-102" type="curve"/>
			<point x="321" y="-85" type="line"/>
			<point x="289" y="-115"/>
			<point x="258" y="-131"/>
			<point x="233" y="-131" type="curve" smooth="yes"/>
			<point x="194" y="-131"/>
			<point x="170" y="-109"/>
			<point x="170" y="-78" type="curve" smooth="yes"/>
			<point x="170" y="-44"/>
			<point x="196" y="1"/>
			<point x="243" y="-1" type="curve"/>
			<point x="217" y="15" type="line"/>
			<point x="179" y="11"/>
			<point x="109" y="-42"/>
			<point x="108" y="-101" type="curve" smooth="yes"/>
			<point x="107" y="-148"/>
			<point x="144" y="-192"/>
		</contour>
	</outline>
</glyph>
<glyph name="dotlessi" format="2">
	<advance width="392"/>
	<unicode hex="0131"/>
	<anchor x="220" y="0" name="bottom"/>
	<anchor x="395" y="10" name="ogonek"/>
	<anchor x="203" y="550" name="top"/>
	<outline>
		<contour>
			<point x="50" y="21" type="curve"/>
			<point x="54" y="-7" type="line"/>
			<point x="115" y="-2"/>
			<point x="165" y="0"/>
			<point x="197" y="0" type="curve" smooth="yes"/>
			<point x="229" y="0"/>
			<point x="289" y="-2"/>
			<point x="338" y="-7" type="curve"/>
			<point x="342" y="21" type="line"/>
			<point x="262" y="48"/>
			<point x="241" y="86"/>
			<point x="241" y="162" type="curve" smooth="yes"/>
			<point x="241" y="330" type="line" smooth="yes"/>
			<point x="241" y="396"/>
			<point x="237" y="456"/>
			<point x="252" y="554" type="curve"/>
			<point x="224" y="561" type="line"/>
			<point x="186" y="512"/>
			<point x="132" y="475"/>
			<point x="54" y="451" type="curve"/>
			<point x="54" y="427" type="line"/>
			<point x="129" y="421"/>
			<point x="151" y="362"/>
			<point x="151" y="293" type="curve" smooth="yes"/>
			<point x="151" y="162" type="line" smooth="yes"/>
			<point x="151" y="86"/>
			<point x="130" y="47"/>
		</contour>
	</outline>
</glyph>
<glyph name="Lslash" format="2">
	<advance width="684"/>
	<unicode hex="0141"/>
	<outline>
		<component base="L"/>
		<contour>
			<point x="32" y="210" type="line"/>
			<point x="438" y="451" type="line"/>
			<point x="439" y="517" type="line"/>
			<point x="31" y="275" type="line"/>
		</contour>
	</outline>
</glyph>
<glyph name="lslash" format="2">
	<advance width="392"/>
	<unicode hex="0142"/>
	<anchor x="214" y="800" name="_top"/>
	<anchor x="214" y="1065" name="top"/>
	<outline>
		<component base="l"/>
		<contour>
			<point x="32" y="252" type="line"/>
			<point x="363" y="463" type="line"/>
			<point x="365" y="531" type="line"/>
			<point x="32" y="319" type="line"/>
		</contour>
	</outline>
</glyph>
<glyph name="Eng" format="2">
	<advance width="932"/>
	<unicode hex="014A"/>
	<anchor x="315" y="0" name="bottom"/>
	<anchor x="315" y="745" name="top"/>
	<outline>
		<contour>
			<point x="60" y="21" type="curve"/>
			<point x="64" y="-7" type="line"/>
			<point x="120" y="-2"/>
			<point x="139" y="0"/>
			<point x="177" y="0" type="curve" smooth="yes"/>
			<point x="212" y="0"/>
			<point x="258" y="-2"/>
			<point x="323" y="-7" type="curve"/>
			<point x="327" y="21" type="line"/>
			<point x="227" y="58"/>
			<point x="206" y="96"/>
			<point x="206" y="182" type="curve" smooth="yes"/>
			<point x="206" y="655" type="line"/>
			<point x="176" y="644" type="line"/>
			<point x="738" y="-19" type="line"/>
			<point x="738" y="151" type="line"/>
			<point x="228" y="753" type="line"/>
			<point x="205" y="749"/>
			<point x="180" y="745"/>
			<point x="155" y="745" type="curve" smooth="yes"/>
			<point x="128" y="745"/>
			<point x="104" y="748"/>
			<point x="64" y="752" type="curve"/>
			<point x="60" y="724" type="line"/>
			<point x="140" y="688"/>
			<point x="166" y="649"/>
			<point x="166" y="523" type="curve" smooth="yes"/>
			<point x="166" y="182" type="line" smooth="yes"/>
			<point x="166" y="96"/>
			<point x="140" y="57"/>
		</contour>
		<contour>
			<point x="557" y="-171" type="curve"/>
			<point x="555" y="-193" type="line"/>
			<point x="703" y="-246"/>
			<point x="776" y="-197"/>
			<point x="776" y="-23" type="curve" smooth="yes"/>
			<point x="776" y="583" type="line" smooth="yes"/>
			<point x="776" y="659"/>
			<point x="812" y="697"/>
			<point x="892" y="724" type="curve"/>
			<point x="888" y="752" type="line"/>
			<point x="839" y="747"/>
			<point x="789" y="745"/>
			<point x="757" y="745" type="curve" smooth="yes"/>
			<point x="725" y="745"/>
			<point x="685" y="747"/>
			<point x="624" y="752" type="curve"/>
			<point x="620" y="724" type="line"/>
			<point x="700" y="698"/>
			<point x="736" y="659"/>
			<point x="736" y="583" type="curve" smooth="yes"/>
			<point x="736" y="-14" type="line" smooth="yes"/>
			<point x="736" y="-111"/>
			<point x="649" y="-171"/>
		</contour>
	</outline>
</glyph>
<glyph name="eng" format="2">
	<advance width="691"/>
	<unicode hex="014B"/>
	<anchor x="399" y="-10" name="bottom"/>
	<anchor x="449" y="550" name="top"/>
	<outline>
		<contour>
			<point x="418" y="488" type="curve" smooth="yes"/>
			<point x="500" y="488"/>
			<point x="541" y="435"/>
			<point x="541" y="252" type="curve" smooth="yes"/>
			<point x="541" y="-36"/>
			<point x="465" y="-130"/>
			<point x="385" y="-166" type="curve"/>
			<point x="394" y="-187" type="line"/>
			<point x="505" y="-159"/>
			<point x="641" y="-88"/>
			<point x="641" y="252" type="curve" smooth="yes"/>
			<point x="641" y="487"/>
			<point x="576" y="565"/>
			<point x="464" y="565" type="curve" smooth="yes"/>
			<point x="381" y="565"/>
			<point x="279" y="499"/>
			<point x="226" y="381" type="curve"/>
			<point x="237" y="361" type="line"/>
			<point x="282" y="427"/>
			<point x="330" y="488"/>
		</contour>
		<contour>
			<point x="50" y="21" type="curve"/>
			<point x="54" y="-7" type="line"/>
			<point x="115" y="-2"/>
			<point x="165" y="0"/>
			<point x="197" y="0" type="curve" smooth="yes"/>
			<point x="229" y="0"/>
			<point x="289" y="-2"/>
			<point x="338" y="-7" type="curve"/>
			<point x="342" y="21" type="line"/>
			<point x="262" y="48"/>
			<point x="241" y="86"/>
			<point x="241" y="162" type="curve" smooth="yes"/>
			<point x="241" y="330" type="line" smooth="yes"/>
			<point x="241" y="396"/>
			<point x="237" y="456"/>
			<point x="252" y="554" type="curve"/>
			<point x="224" y="561" type="line"/>
			<point x="186" y="512"/>
			<point x="132" y="475"/>
			<point x="54" y="451" type="curve"/>
			<point x="54" y="427" type="line"/>
			<point x="129" y="421"/>
			<point x="151" y="362"/>
			<point x="151" y="293" type="curve" smooth="yes"/>
			<point x="151" y="162" type="line" smooth="yes"/>
			<point x="151" y="86"/>
			<point x="130" y="47"/>
		</contour>
	</outline>
</glyph>
<glyph name="oe" format="2">
	<advance width="1020"/>
	<unicode hex="0153"/>
	<anchor x="323" y="0" name="bottom"/>
	<anchor x="323" y="275" name="center"/>
	<anchor x="581" y="10" name="ogonek"/>
	<anchor x="323" y="550" name="top"/>
	<anchor x="626" y="550" name="topright"/>
	<outline>
		<contour>
			<point x="311" y="-15" type="curve" smooth="yes"/>
			<point x="431" y="-15"/>
			<point x="534" y="61"/>
			<point x="577" y="168" type="curve" smooth="yes"/>
			<point x="590" y="201"/>
			<point x="577" y="238"/>
			<point x="577" y="276" type="curve" smooth="yes"/>
			<point x="577" y="329"/>
			<point x="584" y="378"/>
			<point x="561" y="420" type="curve" smooth="yes"/>
			<point x="512" y="509"/>
			<point x="418" y="565"/>
			<point x="311" y="565" type="curve" smooth="yes"/>
			<point x="153" y="565"/>
			<point x="25" y="436"/>
			<point x="25" y="276" type="curve" smooth="yes"/>
			<point x="25" y="108"/>
			<point x="153" y="-15"/>
		</contour>
		<contour>
			<point x="398" y="41" type="curve" smooth="yes"/>
			<point x="313" y="11"/>
			<point x="201" y="79"/>
			<point x="149" y="215" type="curve" smooth="yes"/>
			<point x="98" y="350"/>
			<point x="135" y="477"/>
			<point x="222" y="508" type="curve" smooth="yes"/>
			<point x="308" y="537"/>
			<point x="421" y="471"/>
			<point x="472" y="337" type="curve" smooth="yes"/>
			<point x="524" y="200"/>
			<point x="486" y="71"/>
		</contour>
		<contour>
			<point x="1005" y="168" type="curve"/>
			<point x="987" y="179" type="line"/>
			<point x="900" y="44"/>
			<point x="728" y="48"/>
			<point x="642" y="163" type="curve" smooth="yes"/>
			<point x="559" y="274"/>
			<point x="587" y="449"/>
			<point x="668" y="505" type="curve" smooth="yes"/>
			<point x="741" y="555"/>
			<point x="864" y="492"/>
			<point x="864" y="350" type="curve"/>
			<point x="578" y="351" type="line"/>
			<point x="581" y="311" type="line"/>
			<point x="976" y="310" type="line"/>
			<point x="986" y="494"/>
			<point x="885" y="565"/>
			<point x="758" y="565" type="curve" smooth="yes"/>
			<point x="603" y="565"/>
			<point x="499" y="436"/>
			<point x="499" y="276" type="curve" smooth="yes"/>
			<point x="499" y="108"/>
			<point x="603" y="-15"/>
			<point x="758" y="-15" type="curve" smooth="yes"/>
			<point x="861" y="-15"/>
			<point x="974" y="63"/>
		</contour>
	</outline>
</glyph>
<glyph name="Tbar" format="2">
	<advance width="742"/>
	<unicode hex="0166"/>
	<outline>
		<component base="T"/>
		<contour>
			<point x="129" y="326" type="line"/>
			<point x="604" y="326" type="line"/>
			<point x="604" y="376" type="line"/>
			<point x="128" y="376" type="line"/>
		</contour>
	</outline>
</glyph>
<glyph name="tbar" format="2">
	<advance width="545"/>
	<unicode hex="0167"/>
	<outline>
		<contour>
			<point x="34" y="288" type="line"/>
			<point x="455" y="291" type="line"/>
			<point x="455" y="341" type="line"/>
			<point x="33" y="338" type="line"/>
		</contour>
		<component base="t"/>
	</outline>
</glyph>
<glyph name="Uogonek" format="2">
	<advance width="838"/>
	<unicode hex="0172"/>
	<outline>
		<component base="U"/>
		<contour>
			<point x="444" y="-192" type="curve" smooth="yes"/>
			<point x="515" y="-192"/>
			<point x="563" y="-131"/>
			<point x="580" y="-102" type="curve"/>
			<point x="563" y="-85" type="line"/>
			<point x="531" y="-115"/>
			<point x="500" y="-131"/>
			<point x="475" y="-131" type="curve" smooth="yes"/>
			<point x="436" y="-131"/>
			<point x="412" y="-109"/>
			<point x="412" y="-78" type="curve" smooth="yes"/>
			<point x="412" y="-44"/>
			<point x="436" y="-18"/>
			<point x="486" y="-11" type="curve"/>
			<point x="459" y="-2" type="line"/>
			<point x="421" y="-6"/>
			<point x="351" y="-42"/>
			<point x="350" y="-101" type="curve" smooth="yes"/>
			<point x="349" y="-148"/>
			<point x="386" y="-192"/>
		</contour>
	</outline>
</glyph>
<glyph name="uogonek" format="2">
	<advance width="665"/>
	<unicode hex="0173"/>
	<outline>
		<component base="u"/>
		<contour>
			<point x="499" y="-192" type="curve" smooth="yes"/>
			<point x="570" y="-192"/>
			<point x="618" y="-131"/>
			<point x="635" y="-102" type="curve"/>
			<point x="618" y="-85" type="line"/>
			<point x="586" y="-115"/>
			<point x="555" y="-131"/>
			<point x="530" y="-131" type="curve" smooth="yes"/>
			<point x="491" y="-131"/>
			<point x="467" y="-109"/>
			<point x="467" y="-78" type="curve" smooth="yes"/>
			<point x="467" y="-44"/>
			<point x="495" y="-15"/>
			<point x="566" y="8" type="curve"/>
			<point x="524" y="20" type="line"/>
			<point x="466" y="1"/>
			<point x="406" y="-42"/>
			<point x="405" y="-101" type="curve" smooth="yes"/>
			<point x="404" y="-148"/>
			<point x="441" y="-192"/>
		</contour>
	</outline>
</glyph>
<glyph name="acutecomb" format="2">
	<advance width="0"/>
	<unicode hex="0301"/>
	<anchor x="154" y="550" name="_top"/>
	<anchor x="154" y="815" name="top"/>
	<outline>
		<contour>
			<point x="107" y="617" type="line"/>
			<point x="127" y="603" type="line"/>
			<point x="302" y="807" type="line"/>
			<point x="295" y="820" type="line"/>
			<point x="187" y="820" type="line"/>
		</contour>
	</outline>
</glyph>
<glyph name="uni0302" format="2">
	<advance width="0"/>
	<unicode hex="0302"/>
	<anchor x="196" y="550" name="_top"/>
	<anchor x="198" y="815" name="top"/>
	<outline>
		<contour>
			<point x="21" y="617" type="line"/>
			<point x="41" y="603" type="line"/>
			<point x="197" y="711" type="line"/>
			<point x="353" y="603" type="line"/>
			<point x="373" y="617" type="line"/>
			<point x="203" y="816" type="line"/>
			<point x="191" y="816" type="line"/>
		</contour>
	</outline>
</glyph>
<glyph name="tildecomb" format="2">
	<advance width="0"/>
	<unicode hex="0303"/>
	<anchor x="215" y="550" name="_top"/>
	<anchor x="215" y="815" name="top"/>
	<outline>
		<contour>
			<point x="133" y="775" type="curve" smooth="yes"/>
			<point x="205" y="775"/>
			<point x="248" y="712"/>
			<point x="286" y="712" type="curve" smooth="yes"/>
			<point x="324" y="712"/>
			<point x="333" y="739"/>
			<point x="336" y="761" type="curve"/>
			<point x="353" y="761" type="line"/>
			<point x="364" y="706"/>
			<point x="327" y="647"/>
			<point x="270" y="647" type="curve" smooth="yes"/>
			<point x="203" y="647"/>
			<point x="161" y="713"/>
			<point x="117" y="713" type="curve" smooth="yes"/>
			<point x="80" y="713"/>
			<point x="73" y="686"/>
			<point x="68" y="664" type="curve"/>
			<point x="52" y="663" type="line"/>
			<point x="41" y="719"/>
			<point x="76" y="775"/>
		</contour>
	</outline>
</glyph>
<glyph name="uni0304" format="2">
	<advance width="0"/>
	<unicode hex="0304"/>
	<anchor x="254" y="550" name="_top"/>
	<anchor x="254" y="815" name="top"/>
	<outline>
		<contour>
			<point x="99" y="674" type="line"/>
			<point x="390" y="674" type="line"/>
			<point x="390" y="724" type="line"/>
			<point x="98" y="724" type="line"/>
		</contour>
	</outline>
</glyph>
<glyph name="uni0306" format="2">
	<advance width="0"/>
	<unicode hex="0306"/>
	<anchor x="194" y="550" name="_top"/>
	<anchor x="194" y="815" name="top"/>
	<outline>
		<contour>
			<point x="74" y="813" type="curve"/>
			<point x="49" y="813" type="line"/>
			<point x="57" y="716"/>
			<point x="106" y="646"/>
			<point x="193" y="646" type="curve" smooth="yes"/>
			<point x="279" y="646"/>
			<point x="328" y="716"/>
			<point x="336" y="813" type="curve"/>
			<point x="311" y="813" type="line"/>
			<point x="292" y="757"/>
			<point x="240" y="727"/>
			<point x="192" y="727" type="curve" smooth="yes"/>
			<point x="141" y="727"/>
			<point x="91" y="757"/>
		</contour>
	</outline>
</glyph>
<glyph name="uni030A" format="2">
	<advance width="0"/>
	<unicode hex="030A"/>
	<anchor x="165" y="550" name="_top"/>
	<anchor x="165" y="842" name="top"/>
	<outline>
		<contour>
			<point x="83" y="641" type="curve" smooth="yes"/>
			<point x="126" y="597"/>
			<point x="201" y="598"/>
			<point x="247" y="642" type="curve" smooth="yes"/>
			<point x="292" y="685"/>
			<point x="292" y="760"/>
			<point x="247" y="806" type="curve" smooth="yes"/>
			<point x="203" y="851"/>
			<point x="128" y="850"/>
			<point x="83" y="806" type="curve" smooth="yes"/>
			<point x="38" y="762"/>
			<point x="39" y="686"/>
		</contour>
		<contour>
			<point x="111" y="669" type="curve" smooth="yes"/>
			<point x="82" y="699"/>
			<point x="81" y="750"/>
			<point x="111" y="778" type="curve" smooth="yes"/>
			<point x="140" y="805"/>
			<point x="192" y="807"/>
			<point x="219" y="778" type="curve" smooth="yes"/>
			<point x="248" y="748"/>
			<point x="249" y="699"/>
			<point x="219" y="670" type="curve" smooth="yes"/>
			<point x="190" y="643"/>
			<point x="138" y="640"/>
		</contour>
	</outline>
</glyph>
<glyph name="uni030B" format="2">
	<advance width="0"/>
	<unicode hex="030B"/>
	<anchor x="198" y="550" name="_top"/>
	<anchor x="245" y="809" name="top"/>
	<outline>
		<contour>
			<point x="113" y="624" type="line"/>
			<point x="136" y="625" type="line"/>
			<point x="179" y="837" type="line"/>
			<point x="78" y="837" type="line"/>
		</contour>
		<contour>
			<point x="261" y="624" type="line"/>
			<point x="284" y="625" type="line"/>
			<point x="327" y="837" type="line"/>
			<point x="226" y="837" type="line"/>
		</contour>
	</outline>
</glyph>
<glyph name="uni0327" format="2">
	<advance width="0"/>
	<unicode hex="0327"/>
	<anchor x="199" y="0" name="_bottom"/>
	<anchor x="207" y="-250" name="bottom"/>
	<outline>
		<contour>
			<point x="61" y="-133" type="curve"/>
			<point x="48" y="-146" type="line"/>
			<point x="84" y="-180"/>
			<point x="141" y="-210"/>
			<point x="216" y="-210" type="curve" smooth="yes"/>
			<point x="287" y="-210"/>
			<point x="340" y="-169"/>
			<point x="340" y="-122" type="curve" smooth="yes"/>
			<point x="340" y="-80"/>
			<point x="289" y="-53"/>
			<point x="209" y="-53" type="curve"/>
			<point x="218" y="15" type="line"/>
			<point x="127" y="-87" type="line"/>
			<point x="166" y="-87"/>
			<point x="251" y="-91"/>
			<point x="251" y="-134" type="curve" smooth="yes"/>
			<point x="251" y="-177"/>
			<point x="155" y="-187"/>
		</contour>
	</outline>
</glyph>
<glyph name="uni0328" format="2">
	<advance width="0"/>
	<unicode hex="0328"/>
	<outline>
		<contour>
			<point x="164" y="-214" type="curve" smooth="yes"/>
			<point x="235" y="-214"/>
			<point x="283" y="-153"/>
			<point x="300" y="-124" type="curve"/>
			<point x="283" y="-107" type="line"/>
			<point x="251" y="-137"/>
			<point x="220" y="-153"/>
			<point x="195" y="-153" type="curve" smooth="yes"/>
			<point x="156" y="-153"/>
			<point x="132" y="-131"/>
			<point x="132" y="-100" type="curve" smooth="yes"/>
			<point x="132" y="-66"/>
			<point x="152" y="-25"/>
			<point x="200" y="12" type="curve"/>
			<point x="193" y="22" type="line"/>
			<point x="145" y="-12"/>
			<point x="71" y="-64"/>
			<point x="70" y="-123" type="curve" smooth="yes"/>
			<point x="69" y="-170"/>
			<point x="106" y="-214"/>
		</contour>
	</outline>
</glyph>
<glyph name="endash" format="2">
	<advance width="542"/>
	<unicode hex="2013"/>
	<outline>
		<contour>
			<point x="81" y="268" type="line"/>
			<point x="462" y="271" type="line"/>
			<point x="462" y="331" type="line"/>
			<point x="80" y="328" type="line"/>
		</contour>
	</outline>
</glyph>
<glyph name="emdash" format="2">
	<advance width="752"/>
	<unicode hex="2014"/>
	<outline>
		<contour>
			<point x="81" y="268" type="line"/>
			<point x="672" y="271" type="line"/>
			<point x="672" y="331" type="line"/>
			<point x="80" y="328" type="line"/>
		</contour>
	</outline>
</glyph>
<glyph name="dagger" format="2">
	<advance width="600"/>
	<unicode hex="2020"/>
	<outline>
		<contour>
			<point x="287" y="-32" type="line"/>
			<point x="313" y="-32" type="line"/>
			<point x="354" y="745" type="line"/>
			<point x="246" y="745" type="line"/>
		</contour>
		<contour>
			<point x="300" y="448" type="line"/>
			<point x="527" y="407" type="line"/>
			<point x="527" y="515" type="line"/>
			<point x="300" y="474" type="line"/>
			<point x="73" y="515" type="line"/>
			<point x="73" y="407" type="line"/>
		</contour>
	</outline>
</glyph>
<glyph name="daggerdbl" format="2">
	<advance width="600"/>
	<unicode hex="2021"/>
	<outline>
		<contour>
			<point x="246" y="-32" type="line"/>
			<point x="354" y="-32" type="line"/>
			<point x="320" y="357" type="line"/>
			<point x="354" y="745" type="line"/>
			<point x="246" y="745" type="line"/>
			<point x="280" y="357" type="line"/>
		</contour>
		<contour>
			<point x="300" y="488" type="line"/>
			<point x="527" y="447" type="line"/>
			<point x="527" y="555" type="line"/>
			<point x="300" y="514" type="line"/>
			<point x="73" y="555" type="line"/>
			<point x="73" y="447" type="line"/>
		</contour>
		<contour>
			<point x="300" y="224" type="line"/>
			<point x="527" y="183" type="line"/>
			<point x="527" y="291" type="line"/>
			<point x="300" y="250" type="line"/>
			<point x="73" y="291" type="line"/>
			<point x="73" y="183" type="line"/>
		</contour>
	</outline>
</glyph>
<glyph name="perthousand" format="2">
	<advance width="1290"/>
	<unicode hex="2030"/>
	<outline>
		<component base="percent"/>
		<contour>
			<point x="1053" y="-3" type="curve" smooth="yes"/>
			<point x="1145" y="-3"/>
			<point x="1220" y="73"/>
			<point x="1220" y="167" type="curve" smooth="yes"/>
			<point x="1220" y="265"/>
			<point x="1145" y="336"/>
			<point x="1053" y="336" type="curve" smooth="yes"/>
			<point x="960" y="336"/>
			<point x="886" y="261"/>
			<point x="886" y="167" type="curve" smooth="yes"/>
			<point x="886" y="69"/>
			<point x="960" y="-3"/>
		</contour>
		<contour>
			<point x="1097" y="48" type="curve" smooth="yes"/>
			<point x="1054" y="32"/>
			<point x="997" y="67"/>
			<point x="971" y="137" type="curve" smooth="yes"/>
			<point x="945" y="205"/>
			<point x="963" y="269"/>
			<point x="1008" y="285" type="curve" smooth="yes"/>
			<point x="1051" y="300"/>
			<point x="1109" y="266"/>
			<point x="1134" y="197" type="curve" smooth="yes"/>
			<point x="1160" y="129"/>
			<point x="1142" y="64"/>
		</contour>
	</outline>
</glyph>
<glyph name="guilsinglleft" format="2">
	<advance width="317"/>
	<unicode hex="2039"/>
	<outline>
		<contour>
			<point x="30" y="286" type="line"/>
			<point x="30" y="262" type="line"/>
			<point x="241" y="31" type="line"/>
			<point x="267" y="52" type="line"/>
			<point x="147" y="274" type="line"/>
			<point x="267" y="496" type="line"/>
			<point x="241" y="517" type="line"/>
		</contour>
	</outline>
</glyph>
<glyph name="fraction" format="2">
	<advance width="819"/>
	<unicode hex="2044"/>
	<outline>
		<contour>
			<point x="122" y="-70" type="line"/>
			<point x="799" y="800" type="line"/>
			<point x="697" y="800" type="line"/>
			<point x="20" y="-70" type="line"/>
		</contour>
	</outline>
</glyph>
<glyph name="Euro" format="2">
	<advance width="767"/>
	<unicode hex="20AC"/>
	<anchor x="441" y="0" name="bottom"/>
	<anchor x="468" y="745" name="top"/>
	<outline>
		<contour>
			<point x="747" y="292" type="curve"/>
			<point x="721" y="297" type="line"/>
			<point x="673" y="147"/>
			<point x="606" y="73"/>
			<point x="467" y="73" type="curve" smooth="yes"/>
			<point x="311" y="73"/>
			<point x="186" y="220"/>
			<point x="186" y="410" type="curve" smooth="yes"/>
			<point x="186" y="587"/>
			<point x="287" y="719"/>
			<point x="419" y="719" type="curve" smooth="yes"/>
			<point x="534" y="719"/>
			<point x="621" y="647"/>
			<point x="663" y="481" type="curve"/>
			<point x="688" y="484" type="line"/>
			<point x="685" y="565"/>
			<point x="698" y="655"/>
			<point x="718" y="729" type="curve"/>
			<point x="702" y="740" type="line"/>
			<point x="634" y="698"/>
			<point x="548" y="760"/>
			<point x="436" y="760" type="curve" smooth="yes"/>
			<point x="251" y="760"/>
			<point x="91" y="586"/>
			<point x="91" y="373" type="curve" smooth="yes"/>
			<point x="91" y="156"/>
			<point x="243" y="-15"/>
			<point x="436" y="-15" type="curve" smooth="yes"/>
			<point x="608" y="-15"/>
			<point x="713" y="105"/>
		</contour>
		<contour>
			<point x="35" y="328" type="line"/>
			<point x="20" y="278" type="line"/>
			<point x="526" y="278" type="line"/>
			<point x="543" y="328" type="line"/>
		</contour>
		<contour>
			<point x="43" y="476" type="line"/>
			<point x="28" y="426" type="line"/>
			<point x="569" y="426" type="line"/>
			<point x="586" y="476" type="line"/>
		</contour>
	</outline>
</glyph>
<glyph name="minus" format="2">
	<advance width="519"/>
	<unicode hex="2212"/>
	<outline>
		<contour>
			<point x="81" y="340" type="line"/>
			<point x="439" y="343" type="line"/>
			<point x="439" y="403" type="line"/>
			<point x="80" y="400" type="line"/>
		</contour>
	</outline>
</glyph>
<glyph name="infinity" format="2">
	<advance width="937"/>
	<unicode hex="221E"/>
	<outline>
		<contour>
			<point x="430" y="335" type="curve" smooth="yes"/>
			<point x="490" y="194"/>
			<point x="566" y="129"/>
			<point x="669" y="129" type="curve" smooth="yes"/>
			<point x="783" y="129"/>
			<point x="857" y="224"/>
			<point x="857" y="370" type="curve" smooth="yes"/>
			<point x="857" y="518"/>
			<point x="786" y="613"/>
			<point x="676" y="613" type="curve" smooth="yes"/>
			<point x="582" y="613"/>
			<point x="511" y="553"/>
			<point x="474" y="421" type="curve"/>
			<point x="491" y="409" type="line"/>
			<point x="536" y="480"/>
			<point x="594" y="514"/>
			<point x="674" y="514" type="curve" smooth="yes"/>
			<point x="761" y="514"/>
			<point x="817" y="457"/>
			<point x="817" y="369" type="curve" smooth="yes"/>
			<point x="817" y="281"/>
			<point x="768" y="224"/>
			<point x="693" y="224" type="curve" smooth="yes"/>
			<point x="631" y="224"/>
			<point x="566" y="272"/>
			<point x="506" y="407" type="curve" smooth="yes"/>
			<point x="447" y="548"/>
			<point x="371" y="613"/>
			<point x="268" y="613" type="curve" smooth="yes"/>
			<point x="154" y="613"/>
			<point x="80" y="518"/>
			<point x="80" y="372" type="curve" smooth="yes"/>
			<point x="80" y="224"/>
			<point x="151" y="129"/>
			<point x="261" y="129" type="curve" smooth="yes"/>
			<point x="355" y="129"/>
			<point x="426" y="189"/>
			<point x="463" y="321" type="curve"/>
			<point x="446" y="333" type="line"/>
			<point x="401" y="262"/>
			<point x="343" y="228"/>
			<point x="263" y="228" type="curve" smooth="yes"/>
			<point x="176" y="228"/>
			<point x="120" y="285"/>
			<point x="120" y="373" type="curve" smooth="yes"/>
			<point x="120" y="461"/>
			<point x="169" y="518"/>
			<point x="244" y="518" type="curve" smooth="yes"/>
			<point x="306" y="518"/>
			<point x="371" y="470"/>
		</contour>
	</outline>
</glyph>
<glyph name="approxequal" format="2">
	<advance width="531"/>
	<unicode hex="2248"/>
	<anchor x="307" y="304" name="_top"/>
	<anchor x="307" y="569" name="top"/>
	<outline>
		<contour>
			<point x="175" y="348" type="curve" smooth="yes"/>
			<point x="269" y="348"/>
			<point x="325" y="285"/>
			<point x="374" y="285" type="curve" smooth="yes"/>
			<point x="423" y="285"/>
			<point x="435" y="312"/>
			<point x="439" y="334" type="curve"/>
			<point x="458" y="334" type="line"/>
			<point x="472" y="279"/>
			<point x="427" y="220"/>
			<point x="353" y="220" type="curve" smooth="yes"/>
			<point x="266" y="220"/>
			<point x="211" y="286"/>
			<point x="154" y="286" type="curve" smooth="yes"/>
			<point x="106" y="286"/>
			<point x="97" y="259"/>
			<point x="90" y="237" type="curve"/>
			<point x="73" y="236" type="line"/>
			<point x="58" y="292"/>
			<point x="101" y="348"/>
		</contour>
		<contour>
			<point x="175" y="528" type="curve" smooth="yes"/>
			<point x="269" y="528"/>
			<point x="325" y="465"/>
			<point x="374" y="465" type="curve" smooth="yes"/>
			<point x="423" y="465"/>
			<point x="435" y="492"/>
			<point x="439" y="514" type="curve"/>
			<point x="456" y="514" type="line"/>
			<point x="470" y="459"/>
			<point x="427" y="400"/>
			<point x="353" y="400" type="curve" smooth="yes"/>
			<point x="266" y="400"/>
			<point x="211" y="466"/>
			<point x="154" y="466" type="curve" smooth="yes"/>
			<point x="106" y="466"/>
			<point x="97" y="439"/>
			<point x="90" y="417" type="curve"/>
			<point x="73" y="416" type="line"/>
			<point x="58" y="472"/>
			<point x="101" y="528"/>
		</contour>
	</outline>
</glyph>
<glyph name="notequal" format="2">
	<advance width="600"/>
	<unicode hex="2260"/>
	<outline>
		<contour>
			<point x="81" y="427" type="line"/>
			<point x="519" y="430" type="line"/>
			<point x="519" y="490" type="line"/>
			<point x="80" y="487" type="line"/>
		</contour>
		<contour>
			<point x="81" y="246" type="line"/>
			<point x="519" y="249" type="line"/>
			<point x="519" y="309" type="line"/>
			<point x="80" y="306" type="line"/>
		</contour>
		<contour>
			<point x="239" y="101" type="line"/>
			<point x="440" y="639" type="line"/>
			<point x="367" y="639" type="line"/>
			<point x="165" y="101" type="line"/>
		</contour>
	</outline>
</glyph>
<glyph name="greaterequal" format="2">
	<advance width="599"/>
	<unicode hex="2265"/>
	<outline>
		<contour>
			<point x="517" y="443" type="line"/>
			<point x="96" y="636" type="line"/>
			<point x="80" y="603" type="line"/>
			<point x="361" y="431" type="line"/>
			<point x="80" y="259" type="line"/>
			<point x="96" y="226" type="line"/>
			<point x="517" y="419" type="line"/>
		</contour>
		<contour>
			<point x="81" y="126" type="line"/>
			<point x="519" y="129" type="line"/>
			<point x="519" y="189" type="line"/>
			<point x="80" y="186" type="line"/>
		</contour>
	</outline>
</glyph>
<glyph name="uni2600" format="2">
	<advance width="928"/>
	<unicode hex="2600"/>
	<guideline x="62" y="302" angle="0"/>
	<guideline x="234" y="473" angle="270"/>
	<outline>
		<contour>
			<point x="464" y="269" type="curve" smooth="yes"/>
			<point x="536" y="269"/>
			<point x="594" y="328"/>
			<point x="594" y="400" type="curve" smooth="yes"/>
			<point x="594" y="472"/>
			<point x="536" y="531"/>
			<point x="464" y="531" type="curve" smooth="yes"/>
			<point x="391" y="531"/>
			<point x="333" y="472"/>
			<point x="333" y="400" type="curve" smooth="yes"/>
			<point x="333" y="328"/>
			<point x="391" y="269"/>
		</contour>
		<contour>
			<point x="415" y="38" type="line"/>
			<point x="512" y="36" type="line"/>
			<point x="477" y="219" type="line"/>
			<point x="452" y="219" type="line"/>
		</contour>
		<contour>
			<point x="100" y="353" type="line"/>
			<point x="283" y="387" type="line"/>
			<point x="283" y="412" type="line"/>
			<point x="102" y="450" type="line"/>
		</contour>
		<contour>
			<point x="826" y="350" type="line"/>
			<point x="828" y="447" type="line"/>
			<point x="645" y="413" type="line"/>
			<point x="645" y="388" type="line"/>
		</contour>
		<contour>
			<point x="451" y="581" type="line"/>
			<point x="476" y="581" type="line"/>
			<point x="513" y="762" type="line"/>
			<point x="416" y="764" type="line"/>
		</contour>
		<contour>
			<point x="173" y="179" type="line"/>
			<point x="241" y="109" type="line"/>
			<point x="345" y="263" type="line"/>
			<point x="328" y="280" type="line"/>
		</contour>
		<contour>
			<point x="173" y="624" type="line"/>
			<point x="327" y="519" type="line"/>
			<point x="344" y="536" type="line"/>
			<point x="243" y="691" type="line"/>
		</contour>
		<contour>
			<point x="685" y="109" type="line"/>
			<point x="755" y="176" type="line"/>
			<point x="601" y="281" type="line"/>
			<point x="584" y="264" type="line"/>
		</contour>
		<contour>
			<point x="583" y="537" type="line"/>
			<point x="600" y="520" type="line"/>
			<point x="755" y="621" type="line"/>
			<point x="687" y="691" type="line"/>
		</contour>
	</outline>
</glyph>
<glyph name="uni2605" format="2">
	<advance width="943"/>
	<unicode hex="2605"/>
	<outline>
		<contour>
			<point x="696" y="84" type="line"/>
			<point x="708" y="93" type="line"/>
			<point x="623" y="353" type="line"/>
			<point x="843" y="510" type="line"/>
			<point x="838" y="525" type="line"/>
			<point x="566" y="525" type="line"/>
			<point x="481" y="785" type="line"/>
			<point x="465" y="785" type="line"/>
			<point x="379" y="526" type="line"/>
			<point x="104" y="526" type="line"/>
			<point x="100" y="511" type="line"/>
			<point x="322" y="352" type="line"/>
			<point x="237" y="94" type="line"/>
			<point x="249" y="85" type="line"/>
			<point x="472" y="245" type="line"/>
		</contour>
	</outline>
</glyph>
<glyph name="uni2606" format="2">
	<advance width="893"/>
	<unicode hex="2606"/>
	<outline>
		<contour>
			<point x="696" y="65" type="line"/>
			<point x="726" y="87" type="line"/>
			<point x="641" y="347" type="line"/>
			<point x="861" y="504" type="line"/>
			<point x="849" y="540" type="line"/>
			<point x="577" y="540" type="line"/>
			<point x="492" y="800" type="line"/>
			<point x="454" y="800" type="line"/>
			<point x="368" y="541" type="line"/>
			<point x="92" y="541" type="line"/>
			<point x="83" y="505" type="line"/>
			<point x="304" y="346" type="line"/>
			<point x="219" y="88" type="line"/>
			<point x="249" y="66" type="line"/>
			<point x="472" y="227" type="line"/>
		</contour>
		<contour>
			<point x="125" y="511" type="line"/>
			<point x="390" y="511" type="line"/>
			<point x="473" y="761" type="line"/>
			<point x="555" y="510" type="line"/>
			<point x="817" y="510" type="line"/>
			<point x="605" y="359" type="line"/>
			<point x="686" y="110" type="line"/>
			<point x="472" y="263" type="line"/>
			<point x="259" y="111" type="line"/>
			<point x="340" y="358" type="line"/>
		</contour>
	</outline>
</glyph>
<glyph name="uni263D" format="2">
	<advance width="896"/>
	<unicode hex="263D"/>
	<anchor x="408" y="500" name="_top"/>
	<anchor x="408" y="765" name="top"/>
	<outline>
		<contour>
			<point x="242" y="126" type="curve"/>
			<point x="226" y="98" type="line"/>
			<point x="286" y="53"/>
			<point x="360" y="27"/>
			<point x="440" y="27" type="curve" smooth="yes"/>
			<point x="636" y="27"/>
			<point x="796" y="187"/>
			<point x="796" y="383" type="curve" smooth="yes"/>
			<point x="796" y="579"/>
			<point x="636" y="740"/>
			<point x="440" y="740" type="curve" smooth="yes"/>
			<point x="281" y="740"/>
			<point x="146" y="636"/>
			<point x="100" y="493" type="curve"/>
			<point x="137" y="470" type="line"/>
			<point x="179" y="536"/>
			<point x="254" y="581"/>
			<point x="339" y="581" type="curve" smooth="yes"/>
			<point x="470" y="581"/>
			<point x="577" y="474"/>
			<point x="577" y="343" type="curve" smooth="yes"/>
			<point x="577" y="212"/>
			<point x="470" y="105"/>
			<point x="339" y="105" type="curve" smooth="yes"/>
			<point x="304" y="105"/>
			<point x="272" y="112"/>
		</contour>
	</outline>
</glyph>
<glyph name="uni263E" format="2">
	<advance width="896"/>
	<unicode hex="263E"/>
	<outline>
		<contour>
			<point x="654" y="641" type="curve"/>
			<point x="670" y="669" type="line"/>
			<point x="610" y="714"/>
			<point x="536" y="740"/>
			<point x="456" y="740" type="curve" smooth="yes"/>
			<point x="260" y="740"/>
			<point x="100" y="580"/>
			<point x="100" y="384" type="curve" smooth="yes"/>
			<point x="100" y="188"/>
			<point x="260" y="27"/>
			<point x="456" y="27" type="curve" smooth="yes"/>
			<point x="615" y="27"/>
			<point x="750" y="131"/>
			<point x="796" y="274" type="curve"/>
			<point x="759" y="297" type="line"/>
			<point x="717" y="231"/>
			<point x="642" y="186"/>
			<point x="557" y="186" type="curve" smooth="yes"/>
			<point x="426" y="186"/>
			<point x="319" y="293"/>
			<point x="319" y="424" type="curve" smooth="yes"/>
			<point x="319" y="555"/>
			<point x="426" y="662"/>
			<point x="557" y="662" type="curve" smooth="yes"/>
			<point x="592" y="662"/>
			<point x="624" y="655"/>
		</contour>
	</outline>
</glyph>
<glyph name="spade" format="2">
	<advance width="962"/>
	<unicode hex="2660"/>
	<anchor x="485" y="0" name="bottom"/>
	<anchor x="650" y="10" name="ogonek"/>
	<anchor x="485" y="745" name="top"/>
	<anchor x="299" y="745" name="topleft"/>
	<outline>
		<contour>
			<point x="516" y="726" type="curve" smooth="yes"/>
			<point x="495" y="785" type="line"/>
			<point x="466" y="785" type="line"/>
			<point x="445" y="726" type="line" smooth="yes"/>
			<point x="360" y="488"/>
			<point x="100" y="502"/>
			<point x="100" y="275" type="curve" smooth="yes"/>
			<point x="100" y="179"/>
			<point x="162" y="118"/>
			<point x="250" y="118" type="curve" smooth="yes"/>
			<point x="341" y="118"/>
			<point x="399" y="173"/>
			<point x="402" y="243" type="curve"/>
			<point x="570" y="243" type="line"/>
			<point x="573" y="173"/>
			<point x="626" y="118"/>
			<point x="712" y="118" type="curve" smooth="yes"/>
			<point x="800" y="118"/>
			<point x="862" y="179"/>
			<point x="862" y="275" type="curve" smooth="yes"/>
			<point x="862" y="501"/>
			<point x="600" y="489"/>
		</contour>
		<contour>
			<point x="299" y="21" type="curve"/>
			<point x="303" y="-7" type="line"/>
			<point x="394" y="-2"/>
			<point x="444" y="0"/>
			<point x="486" y="0" type="curve" smooth="yes"/>
			<point x="528" y="0"/>
			<point x="588" y="-2"/>
			<point x="667" y="-7" type="curve"/>
			<point x="671" y="21" type="line"/>
			<point x="561" y="48"/>
			<point x="540" y="86"/>
			<point x="540" y="162" type="curve" smooth="yes"/>
			<point x="540" y="243" type="line"/>
			<point x="430" y="243" type="line"/>
			<point x="430" y="162" type="line" smooth="yes"/>
			<point x="430" y="86"/>
			<point x="409" y="47"/>
		</contour>
	</outline>
</glyph>
<glyph name="uni2661" format="2">
	<advance width="1012"/>
	<unicode hex="2661"/>
	<outline>
		<contour>
			<point x="472" y="54" type="curve" smooth="yes"/>
			<point x="485" y="15" type="line"/>
			<point x="528" y="15" type="line"/>
			<point x="541" y="54" type="line" smooth="yes"/>
			<point x="577" y="153"/>
			<point x="656" y="227"/>
			<point x="734" y="299" type="curve" smooth="yes"/>
			<point x="824" y="382"/>
			<point x="912" y="464"/>
			<point x="912" y="596" type="curve" smooth="yes"/>
			<point x="912" y="734"/>
			<point x="822" y="809"/>
			<point x="707" y="809" type="curve" smooth="yes"/>
			<point x="598" y="809"/>
			<point x="520" y="740"/>
			<point x="501" y="639" type="curve"/>
			<point x="483" y="740"/>
			<point x="409" y="809"/>
			<point x="305" y="809" type="curve" smooth="yes"/>
			<point x="190" y="809"/>
			<point x="100" y="734"/>
			<point x="100" y="596" type="curve" smooth="yes"/>
			<point x="100" y="456"/>
			<point x="206" y="366"/>
			<point x="279" y="299" type="curve" smooth="yes"/>
			<point x="311" y="269"/>
			<point x="431" y="169"/>
		</contour>
		<contour>
			<point x="130" y="596" type="curve" smooth="yes"/>
			<point x="130" y="718"/>
			<point x="202" y="779"/>
			<point x="305" y="779" type="curve" smooth="yes"/>
			<point x="414" y="779"/>
			<point x="481" y="697"/>
			<point x="475" y="576" type="curve"/>
			<point x="527" y="576" type="line"/>
			<point x="521" y="696"/>
			<point x="592" y="779"/>
			<point x="707" y="779" type="curve" smooth="yes"/>
			<point x="810" y="779"/>
			<point x="882" y="718"/>
			<point x="882" y="596" type="curve" smooth="yes"/>
			<point x="882" y="477"/>
			<point x="803" y="404"/>
			<point x="714" y="321" type="curve" smooth="yes"/>
			<point x="636" y="249"/>
			<point x="551" y="170"/>
			<point x="513" y="64" type="curve" smooth="yes"/>
			<point x="507" y="46" type="line"/>
			<point x="500" y="64" type="line" smooth="yes"/>
			<point x="462" y="170"/>
			<point x="377" y="249"/>
			<point x="299" y="321" type="curve" smooth="yes"/>
			<point x="189" y="422"/>
			<point x="130" y="477"/>
		</contour>
	</outline>
</glyph>
<glyph name="uni2662" format="2">
	<advance width="921"/>
	<unicode hex="2662"/>
	<outline>
		<contour>
			<point x="435" y="31" type="curve"/>
			<point x="486" y="31" type="line"/>
			<point x="521" y="251"/>
			<point x="612" y="344"/>
			<point x="821" y="374" type="curve"/>
			<point x="821" y="425" type="line"/>
			<point x="612" y="455"/>
			<point x="521" y="547"/>
			<point x="486" y="767" type="curve"/>
			<point x="435" y="767" type="line"/>
			<point x="400" y="547"/>
			<point x="309" y="455"/>
			<point x="100" y="425" type="curve"/>
			<point x="100" y="374" type="line"/>
			<point x="309" y="344"/>
			<point x="400" y="251"/>
		</contour>
		<contour>
			<point x="460" y="61" type="curve"/>
			<point x="422" y="265"/>
			<point x="325" y="365"/>
			<point x="130" y="400" type="curve"/>
			<point x="130" y="399" type="line"/>
			<point x="325" y="434"/>
			<point x="422" y="533"/>
			<point x="461" y="737" type="curve"/>
			<point x="499" y="533"/>
			<point x="596" y="434"/>
			<point x="791" y="399" type="curve"/>
			<point x="791" y="400" type="line"/>
			<point x="596" y="365"/>
			<point x="499" y="265"/>
		</contour>
	</outline>
</glyph>
